<?xml version="1.0" standalone="no"?>
<!DOCTYPE svg PUBLIC "-//W3C//DTD SVG 1.1//EN" "http://www.w3.org/Graphics/SVG/1.1/DTD/svg11.dtd" >
<svg xmlns="http://www.w3.org/2000/svg" xmlns:xlink="http://www.w3.org/1999/xlink" version="1.1">
<metadata>
Created by FontForge 20230101 at Mon Jul  5 20:48:49 2021
 By Unknown
Elena Genova
</metadata>
<defs>
<font id="TheSeasons-Bd" horiz-adv-x="0" >
  <font-face 
    font-family="The Seasons"
    font-weight="700"
    font-stretch="normal"
    units-per-em="1000"
    panose-1="0 0 0 0 0 0 0 0 0 0"
    ascent="800"
    descent="-200"
    x-height="500"
    cap-height="700"
    bbox="-160 -297 1180 1021"
    underline-thickness="50"
    underline-position="-125"
    unicode-range="U+0020-2260"
  />
<missing-glyph horiz-adv-x="500" 
d="M249 186q0 32 -18.5 54.5t-55.5 22.5v12q36 0 55 24.5t19 55.5h12q0 -31 18.5 -55.5t52.5 -24.5v-12q-34 0 -52.5 -22.5t-18.5 -54.5h-12z" />
    <glyph glyph-name="f_i" unicode="fi" horiz-adv-x="536" 
d="M35 0v14q24 8 32 32.5t8 80.5v350v8h-49l6 15h44q11 107 105 193t202 86q35 0 58.5 -8.5t23.5 -25.5q0 -31 -23 -56.5t-54 -25.5q-51 0 -146 60q-18 -10 -30 -21.5t-23.5 -43.5t-11.5 -80v-78h135l-6 -15h-129v-358q0 -56 8 -80.5t32 -32.5v-14h-182zM324 0v14
q24 8 32 32.5t8 80.5v230q0 41 -9 55.5t-31 24.5v14l132 58l10 -8v-374q0 -56 8 -80.5t32 -32.5v-14h-182z" />
    <glyph glyph-name="f_l" unicode="fl" horiz-adv-x="520" 
d="M313 0v14q24 8 32 32.5t8 80.5v560l-108 37q-28 -14 -50 -52t-22 -94v-78h99l-6 -15h-93v-358q0 -56 8 -80.5t32 -32.5v-14h-182v14q24 8 32 32.5t8 80.5v349v9h-45l6 15h40q12 107 105 194t198 87l13 -1l58 27l9 -6v-674q0 -56 8 -80.5t32 -32.5v-14h-182z" />
    <glyph glyph-name=".notdef" horiz-adv-x="500" 
d="M249 186q0 32 -18.5 54.5t-55.5 22.5v12q36 0 55 24.5t19 55.5h12q0 -31 18.5 -55.5t52.5 -24.5v-12q-34 0 -52.5 -22.5t-18.5 -54.5h-12z" />
    <glyph glyph-name=".null" 
 />
    <glyph glyph-name="nonmarkingreturn" horiz-adv-x="333" 
 />
    <glyph glyph-name="space" unicode=" " horiz-adv-x="200" 
 />
    <glyph glyph-name="space" unicode="&#xa0;" horiz-adv-x="200" 
 />
    <glyph glyph-name="space" unicode="&#xa0;" horiz-adv-x="200" 
 />
    <glyph glyph-name="exclam" unicode="!" horiz-adv-x="227" 
d="M108 159l-63 470l115 68l6 -4l-44 -534h-14zM55 54q0 25 17.5 42.5t41.5 17.5t41 -17.5t17 -42.5t-17 -43t-41 -18t-41.5 18t-17.5 43z" />
    <glyph glyph-name="quotedbl" unicode="&#x22;" horiz-adv-x="296" 
d="M38 633q-6 32 5 53t35 21t35 -21t5 -53l-36 -183h-8zM178 633q-6 32 5 53t35 21t35 -21t5 -53l-36 -183h-8z" />
    <glyph glyph-name="numbersign" unicode="#" horiz-adv-x="809" 
d="M521 -1v216h-238v-216h-18v216h-213v14h213v244h-213v14h213v213h18v-213h238v213h18v-213h214v-14h-214v-244h214v-14h-214v-216h-18zM283 229h238v244h-238v-244z" />
    <glyph glyph-name="dollar" unicode="$" horiz-adv-x="540" 
d="M267 -10q-59 0 -116.5 14.5t-87.5 39.5l-12 171l13 1q30 -108 77 -155t126 -52v276q-110 54 -145 81q-80 61 -80 143q0 75 58.5 132.5t166.5 64.5v94h18v-93h9q103 0 177 -42l11 -127l-11 -2q-35 81 -80 115t-106 37v-279q110 -52 148 -81q71 -55 71 -130
q0 -88 -60.5 -145.5t-158.5 -62.5v-120h-18v120zM119 571q0 -50 38.5 -84.5t109.5 -68.5v270q-73 -1 -110.5 -35.5t-37.5 -81.5zM285 9q71 0 103.5 36.5t32.5 86.5q0 46 -34.5 78t-101.5 66v-267z" />
    <glyph glyph-name="percent" unicode="%" horiz-adv-x="777" 
d="M91 -5l-10 10l595 700l10 -10zM17 519q0 85 58.5 135t132.5 50q69 0 121.5 -43.5t52.5 -116.5q0 -92 -58.5 -141.5t-129.5 -49.5q-69 0 -123 44t-54 122zM81 575q0 -82 43.5 -140.5t102.5 -58.5q90 0 90 116q0 75 -40.5 134t-98.5 59q-41 0 -69 -29t-28 -81zM397 156
q0 85 58.5 135t132.5 50q69 0 121.5 -43.5t52.5 -116.5q0 -92 -58.5 -141.5t-129.5 -49.5q-69 0 -123 44t-54 122zM461 212q0 -82 43.5 -140.5t102.5 -58.5q90 0 90 116q0 75 -40.5 134t-98.5 59q-41 0 -69 -29t-28 -81z" />
    <glyph glyph-name="ampersand" unicode="&#x26;" horiz-adv-x="860" 
d="M638 -7q-76 0 -211 130q-34 -61 -85 -97t-113 -36q-91 0 -145 62t-54 138q0 136 179 203q-47 83 -47 145q0 25 11 52t35 54.5t69.5 45t105.5 17.5q91 0 147 -32l11 -127l-11 -2q-61 142 -172 142q-56 0 -82 -31.5t-26 -66.5q0 -101 168 -296q89 -101 178 -174t130 -73
q50 0 50 147q0 52 -17 107.5t-41 55.5h-224l4 16h370l-4 -16h-116q44 -19 72.5 -59.5t28.5 -87.5q0 -68 -67.5 -142.5t-143.5 -74.5zM117 232q0 -69 44.5 -124t118.5 -55q86 0 136 81q-42 42 -77 84q-83 97 -123 163q-99 -42 -99 -149z" />
    <glyph glyph-name="quotesingle" unicode="'" horiz-adv-x="154" 
d="M38 633q-6 32 5 53t35 21t35 -21t5 -53l-36 -183h-8z" />
    <glyph glyph-name="parenleft" unicode="(" horiz-adv-x="400" 
d="M357 -271q-123 81 -202 231t-79 298q0 149 81 297t219 245l7 -9q-118 -85 -171.5 -227.5t-53.5 -305.5q0 -161 49 -301t157 -220z" />
    <glyph glyph-name="parenright" unicode=")" horiz-adv-x="400" 
d="M45 -263q108 80 157 220t49 301q0 163 -53.5 305.5t-171.5 227.5l7 9q138 -97 219 -245t81 -297q0 -148 -79 -298t-202 -231z" />
    <glyph glyph-name="asterisk" unicode="*" horiz-adv-x="351" 
d="M173 373q-19 0 -29 16.5t-3 41.5l28 105l-77 -77q-19 -18 -38 -18t-29 17q-9 16 0.5 32.5t34.5 23.5l105 29l-105 29q-25 7 -34.5 23.5t-0.5 32.5q10 17 29 17t38 -18l77 -77l-28 105q-7 25 3 41.5t29 16.5t29 -16.5t3 -41.5l-28 -105l77 77q19 18 38 18t29 -17
q9 -16 -0.5 -32.5t-34.5 -23.5l-105 -29l105 -29q25 -7 34.5 -23.5t0.5 -32.5q-10 -17 -29 -17t-38 18l-77 77l28 -105q7 -25 -3 -41.5t-29 -16.5z" />
    <glyph glyph-name="plus" unicode="+" horiz-adv-x="558" 
d="M270 156v169h-171l7 16h164v163l16 7v-170h168l-7 -16h-161v-162z" />
    <glyph glyph-name="comma" unicode="," horiz-adv-x="241" 
d="M50 -138q37 18 58.5 55t24.5 79q-16 -4 -25 -4q-24 0 -40 16t-16 40q0 29 17 47.5t45 18.5q33 0 52.5 -21t19.5 -63q0 -57 -41.5 -109t-89.5 -69z" />
    <glyph glyph-name="hyphen" unicode="-" horiz-adv-x="365" 
d="M52 241v16h261v-16h-261z" />
    <glyph glyph-name="period" unicode="." horiz-adv-x="227" 
d="M114 -7q-24 0 -41.5 18t-17.5 43t17.5 42.5t41.5 17.5t41 -17.5t17 -42.5t-17 -43t-41 -18z" />
    <glyph glyph-name="slash" unicode="/" horiz-adv-x="391" 
d="M-21 -273l-15 6l448 1070l15 -6z" />
    <glyph glyph-name="zero" unicode="0" horiz-adv-x="688" 
d="M345 -10q-54 0 -107.5 22.5t-99.5 65.5t-74.5 114.5t-28.5 160.5q0 81 27 149t71 112t98.5 68.5t111.5 24.5q54 0 107.5 -22.5t99.5 -65.5t74.5 -114.5t28.5 -160.5q0 -81 -27 -149t-71 -112t-98.5 -68.5t-111.5 -24.5zM138 413q0 -99 29 -190t87 -151.5t132 -60.5
q77 0 120.5 74t43.5 198q0 100 -28.5 191t-86.5 151.5t-133 60.5q-76 0 -120 -74.5t-44 -198.5z" />
    <glyph glyph-name="one" unicode="1" horiz-adv-x="319" 
d="M62 0v14q29 8 38.5 32.5t9.5 80.5v477l-88 -37l-2 7l188 131h8v-578q0 -56 9.5 -80.5t38.5 -32.5v-14h-202z" />
    <glyph glyph-name="two" unicode="2" horiz-adv-x="507" 
d="M1 14q63 61 111 113t102 121t83.5 137.5t29.5 129.5q0 55 -29 91.5t-90 36.5q-77 0 -137 -66l-9 9q96 121 217 121q70 0 116 -44t47 -122q0 -34 -11.5 -71t-28 -68t-45.5 -68t-53 -63t-61.5 -61.5t-60 -54.5t-59.5 -51q-18 -16 -27 -23h220q73 0 98 10.5t39 44.5l11 -1
l-15 -135h-448v14z" />
    <glyph glyph-name="three" unicode="3" horiz-adv-x="466" 
d="M19 -130q140 72 219.5 182t79.5 201q0 142 -114 142q-30 0 -63 -18l-5 11q139 69 139 169q0 41 -27 64.5t-74 23.5q-79 0 -141 -68l-9 9q50 60 101 90.5t114 30.5q60 0 96.5 -34t36.5 -81q0 -62 -41.5 -103t-125.5 -80q26 7 57 7q38 0 74 -12t65.5 -46.5t29.5 -87.5
q0 -49 -22 -96.5t-57.5 -88t-89.5 -82.5t-109.5 -75.5t-126.5 -71.5z" />
    <glyph glyph-name="four" unicode="4" horiz-adv-x="512" 
d="M15 177l-5 10l375 520h19v-460h94l1 -2l-7 -53q-1 -14 -24 -14h-64v-51q0 -56 8 -80.5t32 -32.5v-14h-184v14q24 8 32 32.5t8 80.5v50h-285zM74 247h226v315z" />
    <glyph glyph-name="five" unicode="5" horiz-adv-x="481" 
d="M17 -128q126 82 210.5 185.5t84.5 209.5q0 63 -40 95t-110 31q-34 -1 -105 -15l-10 7l54 315h154q63 0 93.5 16t44.5 49l13 -6q-12 -28 -22.5 -46t-31 -42.5t-52.5 -37t-73 -12.5h-124l-26 -161q57 17 132 17q109 0 161 -52.5t52 -121.5q0 -112 -99 -218.5t-296 -225.5z
" />
    <glyph glyph-name="six" unicode="6" horiz-adv-x="538" 
d="M272 -10q-105 0 -171 73.5t-66 197.5q0 126 94 274t271 259l9 -13q-204 -131 -249 -375q72 52 153 52q88 0 141.5 -58t53.5 -159q0 -63 -22.5 -113.5t-58.5 -79.5t-76 -43.5t-79 -14.5zM149 289q0 -76 15 -138t49.5 -102t82.5 -40q56 0 83.5 45t27.5 124q0 114 -37 176
t-111 62q-54 0 -103 -30q-7 -46 -7 -97z" />
    <glyph glyph-name="seven" unicode="7" horiz-adv-x="409" 
d="M81 0q0 91 66 236q23 51 57 113t83.5 147t70.5 123l-222 3q-41 2 -63.5 1t-34.5 -11t-24 -38l-12 1l19 125h397v-8q-66 -117 -116.5 -246t-75.5 -217q-38 -136 -21 -229h-124z" />
    <glyph glyph-name="eight" unicode="8" horiz-adv-x="527" 
d="M256 -10q-54 0 -103 17t-83.5 56t-34.5 92q0 113 135 204q-98 69 -98 171q0 66 55.5 121.5t145.5 55.5q79 0 127.5 -40.5t48.5 -97.5q0 -93 -118 -176q38 -22 61 -37t49 -38.5t38.5 -51t12.5 -59.5q0 -97 -67.5 -157t-168.5 -60zM136 200q0 -96 45 -142t106 -46
q62 0 93 37t31 85q0 32 -13 58.5t-39.5 48t-51 36.5t-63 36.5t-60.5 35.5q-48 -48 -48 -149zM148 585q0 -25 9.5 -47.5t22.5 -39t37.5 -35t43 -29.5t49.5 -29q43 70 43 147q0 56 -23 96.5t-81 40.5q-49 0 -75 -30t-26 -74z" />
    <glyph glyph-name="nine" unicode="9" horiz-adv-x="538" 
d="M266 707q105 0 171 -73.5t66 -197.5q0 -126 -94 -274t-271 -259l-9 13q204 131 249 375q-72 -52 -153 -52q-88 0 -141.5 58t-53.5 159q0 63 22.5 113.5t58.5 79.5t76 43.5t79 14.5zM131 519q0 -114 37 -176t111 -62q54 0 103 30q7 46 7 97q0 76 -15 138t-49.5 102
t-82.5 40q-56 0 -83.5 -45t-27.5 -124z" />
    <glyph glyph-name="colon" unicode=":" horiz-adv-x="173" 
d="M114 -7q-24 0 -41.5 18t-17.5 43t17.5 42.5t41.5 17.5t41 -17.5t17 -42.5t-17 -43t-41 -18zM55 384q0 25 17.5 42.5t41.5 17.5t41 -17.5t17 -42.5t-17 -43t-41 -18t-41.5 18t-17.5 43z" />
    <glyph glyph-name="semicolon" unicode=";" horiz-adv-x="173" 
d="M61 -138q37 18 58.5 55t24.5 79q-16 -4 -25 -4q-24 0 -40 16t-16 40q0 29 17 47.5t45 18.5q33 0 52.5 -21t19.5 -63q0 -57 -41.5 -109t-89.5 -69zM55 384q0 25 17.5 42.5t41.5 17.5t41 -17.5t17 -42.5t-17 -43t-41 -18t-41.5 18t-17.5 43z" />
    <glyph glyph-name="less" unicode="&#x3c;" horiz-adv-x="558" 
d="M433 194l-294 131v20l294 131l6 -14l-281 -127l281 -127z" />
    <glyph glyph-name="equal" unicode="=" horiz-adv-x="558" 
d="M99 403l7 16h348l-7 -16h-348zM99 243l7 16h348l-7 -16h-348z" />
    <glyph glyph-name="greater" unicode="&#x3e;" horiz-adv-x="558" 
d="M145 194l-6 14l281 127l-281 127l6 14l294 -131v-20z" />
    <glyph glyph-name="question" unicode="?" horiz-adv-x="392" 
d="M143 152l-6 3l-1 200q72 36 104.5 87t32.5 104q0 52 -29 82t-76 30q-44 0 -82 -26.5t-62 -74.5l-14 7q30 62 84 102.5t126 40.5q65 0 108.5 -35.5t43.5 -100.5q0 -118 -151 -190l6 -194zM121 54q0 25 17.5 42.5t41.5 17.5t41 -17.5t17 -42.5t-17 -43t-41 -18t-41.5 18
t-17.5 43z" />
    <glyph glyph-name="at" unicode="@" horiz-adv-x="964" 
d="M336 -198q-58 0 -108.5 12.5t-97 40t-73.5 81.5t-27 128q0 95 53 198t136.5 184.5t193.5 135t215 53.5q80 0 141 -20t96 -53.5t52 -71.5t17 -79q0 -80 -41 -160t-100.5 -136t-126 -91t-119.5 -35q-29 0 -44 17t-15 41q0 63 78 237q-193 -291 -283 -291q-29 0 -49.5 30
t-20.5 67q0 77 54.5 175.5t138.5 170t158 71.5q24 0 51 -14t48 -44l46 57l10 -5q-22 -39 -41 -77v-1l-1 -1q-32 -62 -71 -158q-64 -153 -64 -203q0 -45 40 -45q57 0 108 37.5t84 94.5t52 121.5t19 120.5q0 44 -9 78.5t-32.5 69t-74 54t-123.5 19.5q-104 0 -199 -49.5
t-159 -126t-102 -170t-38 -181.5q0 -64 19 -112t46 -74t64.5 -41.5t66.5 -20t60 -4.5q92 0 187 37.5t166 95.5l6 -9q-70 -58 -174.5 -106t-212.5 -48zM310 102q0 -60 29 -60q32 0 111.5 105t156.5 225l1 3q-46 98 -107 97q-47 -1 -93 -69.5t-72 -154t-26 -146.5z" />
    <glyph glyph-name="A" unicode="A" horiz-adv-x="643" 
d="M-21 0v14q49 18 84 104l187 464q11 28 -2 54l-13 28l98 44l248 -591q35 -83 77 -103v-14h-182v14q15 5 18 15.5t-2.5 27.5t-18.5 47l-2 4t-2 4.5t-2 4.5l-60 144h-267l-58 -143q-20 -50 -16.5 -74t29.5 -30v-14h-116zM146 277h254l-129 309z" />
    <glyph glyph-name="B" unicode="B" horiz-adv-x="632" 
d="M47 0v14q24 8 32 32.5t8 80.5v446q0 56 -8 80.5t-32 32.5v14h247q224 0 224 -132q0 -122 -169 -152q120 -4 184.5 -53.5t65.5 -127.5q2 -98 -80.5 -166.5t-254.5 -68.5h-217zM193 103q0 -54 10 -70.5t42 -16.5h28q104 0 155.5 49.5t51.5 132.5q0 94 -54 149.5t-162 55.5
h-71v-300zM193 419h89q53 0 85 36t32 90q0 66 -44 102.5t-121 36.5h-41v-265z" />
    <glyph glyph-name="C" unicode="C" horiz-adv-x="751" 
d="M440 -10q-181 0 -283.5 91t-102.5 257q0 155 112.5 262t292.5 107q63 0 128 -12.5t101 -36.5l4 -132l-12 -3q-30 76 -99 120.5t-148 44.5q-123 0 -198 -79.5t-75 -225.5q0 -152 84.5 -262t224.5 -110q82 0 139.5 46t85.5 126l13 -2l-16 -143q-106 -48 -251 -48z" />
    <glyph glyph-name="D" unicode="D" horiz-adv-x="731" 
d="M47 0v14q24 8 32 32.5t8 80.5v446q0 56 -8 80.5t-32 32.5v14h250q83 0 150 -21t109.5 -54.5t71 -78.5t40.5 -90t12 -92q1 -163 -98 -263.5t-263 -100.5h-272zM193 89q0 -38 13 -55.5t52 -17.5h54q124 0 187 71t63 228q0 162 -84.5 265.5t-244.5 103.5h-40v-595z" />
    <glyph glyph-name="E" unicode="E" horiz-adv-x="595" 
d="M47 0v14q24 8 32 32.5t8 80.5v446q0 56 -8 80.5t-32 32.5v14h480l11 -141l-13 -3q-29 72 -78.5 100t-136.5 28h-117v-300h96q88 0 124 17.5t49 58.5h14v-168h-14q-13 41 -49 58.5t-124 17.5h-96v-302q0 -50 50 -50h96q80 0 130.5 29.5t77.5 102.5l13 -2l-7 -146h-506z
" />
    <glyph glyph-name="F" unicode="F" horiz-adv-x="561" 
d="M47 0v14q24 8 32 32.5t8 80.5v446q0 56 -8 80.5t-32 32.5v14h483l7 -111l-13 -3q-28 53 -68 74.5t-113 21.5h-150v-290h81q88 0 124 17.5t49 58.5h14v-170h-14q-13 41 -49 58.5t-124 17.5h-81v-247q0 -56 8 -80.5t32 -32.5v-14h-186z" />
    <glyph glyph-name="G" unicode="G" horiz-adv-x="754" 
d="M431 -10q-172 0 -274.5 99t-102.5 264q0 148 105.5 251t270.5 103q54 0 117.5 -12.5t99.5 -36.5l4 -132l-12 -3q-30 75 -99.5 120t-146.5 45q-103 0 -168 -69t-66 -200q-1 -57 12 -114.5t39.5 -109.5t62.5 -92.5t85.5 -64.5t105.5 -24q49 0 88 19.5t57 56.5v91
q0 60 -10.5 84.5t-41.5 33.5v14h155v-184q-52 -68 -131.5 -103.5t-149.5 -35.5z" />
    <glyph glyph-name="H" unicode="H" horiz-adv-x="734" 
d="M47 0v14q24 8 32 32.5t8 80.5v446q0 56 -8 80.5t-32 32.5v14h186v-14q-24 -8 -32 -32.5t-8 -80.5v-193h348v193q0 56 -8 80.5t-32 32.5v14h186v-14q-24 -8 -32 -32.5t-8 -80.5v-446q0 -56 8 -80.5t32 -32.5v-14h-186v14q24 8 32 32.5t8 80.5v235h-348v-235q0 -56 8 -80.5
t32 -32.5v-14h-186z" />
    <glyph glyph-name="I" unicode="I" horiz-adv-x="280" 
d="M47 0v14q24 8 32 32.5t8 80.5v446q0 56 -8 80.5t-32 32.5v14h186v-14q-24 -8 -32 -32.5t-8 -80.5v-446q0 -56 8 -80.5t32 -32.5v-14h-186z" />
    <glyph glyph-name="J" unicode="J" horiz-adv-x="284" 
d="M-79 -120q-26 0 -37 5t-11 22q0 20 17.5 37t45.5 17q20 0 112 -19q44 30 44 131v500q0 56 -8 80.5t-32 32.5v14h185v-14q-24 -8 -32 -32.5t-8 -80.5v-330q0 -154 -82.5 -258.5t-193.5 -104.5z" />
    <glyph glyph-name="K" unicode="K" horiz-adv-x="645" 
d="M47 0v14q24 8 32 32.5t8 80.5v446q0 56 -8 80.5t-32 32.5v14h186v-14q-24 -8 -32 -32.5t-8 -80.5v-235l243 249q91 92 24 103v10h157v-14q-84 -23 -137 -77l-213 -218l25 1q57 3 92 -4.5t62 -35.5t43.5 -61t43.5 -101q44 -114 62.5 -145t42.5 -31q9 0 15 1v-15
q-27 -7 -68 -7q-60 0 -83.5 27.5t-70.5 143.5q-7 18 -19 47.5t-17 42t-14 33.5t-14.5 29t-14 21t-16 17.5t-18.5 10.5t-23 7.5t-27 1.5h-18l-57 -59v-188q0 -56 8 -80.5t32 -32.5v-14h-186z" />
    <glyph glyph-name="L" unicode="L" horiz-adv-x="549" 
d="M47 0v14q24 8 32 32.5t8 80.5v446q0 56 -8 80.5t-32 32.5v14h186v-14q-24 -8 -32 -32.5t-8 -80.5v-505q0 -50 50 -50h82q78 0 121 23.5t72 86.5l13 -2l-8 -126h-476z" />
    <glyph glyph-name="M" unicode="M" horiz-adv-x="835" 
d="M42 0v14q24 8 32 32.5t8 80.5v386q0 88 -15.5 124t-52.5 49v14h150l247 -410l235 410h142v-14q-37 -13 -52.5 -49t-15.5 -124v-386q0 -56 8 -80.5t32 -32.5v-14h-186v14q24 8 32 32.5t8 80.5v484l-240 -421h-23l-251 412v-415q0 -88 17.5 -124t58.5 -49v-14h-134z" />
    <glyph glyph-name="N" unicode="N" horiz-adv-x="662" 
d="M574 -8l-469 592v-397q0 -88 17.5 -124t58.5 -49v-14h-134v14q24 8 32 32.5t8 80.5v446q0 56 -10.5 80.5t-41.5 32.5v14h113l420 -526v339q0 88 -17.5 124t-58.5 49v14h135v-14q-24 -8 -32 -32.5t-8 -80.5v-581h-13z" />
    <glyph glyph-name="O" unicode="O" horiz-adv-x="820" 
d="M412 -10q-52 0 -102.5 13.5t-97 42.5t-81.5 70.5t-56 102.5t-21 134q0 151 100.5 253t257.5 102q65 0 127.5 -22.5t114.5 -65.5t83.5 -114t31.5 -159t-32 -158t-84 -112.5t-114 -64.5t-127 -22zM158 414q11 -156 99.5 -274.5t211.5 -118.5q108 0 157 70t42 177
q-8 108 -47.5 201.5t-108.5 153t-152 59.5q-101 0 -155.5 -73t-46.5 -195z" />
    <glyph glyph-name="P" unicode="P" horiz-adv-x="559" 
d="M47 0v14q24 8 32 32.5t8 80.5v446q0 56 -8 80.5t-32 32.5v14h210q81 0 139 -18.5t87 -49t41.5 -61.5t12.5 -65q0 -101 -74.5 -166t-220.5 -65h-49v-148q0 -56 8 -80.5t32 -32.5v-14h-186zM193 291h44q95 0 141 50.5t46 138.5q0 28 -5.5 54.5t-19.5 54.5t-36 48.5
t-58 33.5t-81 13q-17 0 -31 -2v-391z" />
    <glyph glyph-name="Q" unicode="Q" horiz-adv-x="820" 
d="M694 -189q-59 0 -113.5 51t-110.5 132q-27 -4 -58 -4q-52 0 -102.5 13.5t-97 42.5t-81.5 70.5t-56 102.5t-21 134q0 151 100.5 253t257.5 102q65 0 127.5 -22.5t114.5 -65.5t83.5 -114t31.5 -159q0 -145 -80.5 -234.5t-198.5 -114.5q68 -53 124.5 -79.5t114.5 -26.5
q70 0 107 39l9 -8q-35 -42 -50 -59t-43.5 -35t-57.5 -18zM158 414q11 -156 99.5 -274.5t211.5 -118.5q108 0 157 70t42 177q-8 108 -47.5 201.5t-108.5 153t-152 59.5q-101 0 -155.5 -73t-46.5 -195z" />
    <glyph glyph-name="R" unicode="R" horiz-adv-x="618" 
d="M556 -7q-21 0 -36.5 3.5t-29.5 16t-22 21t-21.5 35.5t-19 40.5t-22.5 54.5q-8 20 -22 55.5t-19.5 48t-16 34t-17.5 27.5t-19.5 16t-26 12t-32.5 2h-59v-232q0 -56 8 -80.5t32 -32.5v-14h-186v14q24 8 32 32.5t8 80.5v446q0 56 -8 80.5t-32 32.5v14h210q78 0 132.5 -13
t81.5 -37t38 -50.5t11 -59.5q0 -71 -49.5 -118t-146.5 -59q42 -5 69 -15.5t48.5 -37.5t34.5 -54t36 -86q41 -104 57.5 -130.5t43.5 -26.5q10 0 15 1v-14q-27 -7 -72 -7zM193 375h64q81 0 119 39t38 102q0 68 -45 118t-132 50q-21 0 -44 -3v-306z" />
    <glyph glyph-name="S" unicode="S" horiz-adv-x="553" 
d="M286 -10q-74 0 -140 20.5t-107 50.5l-4 150l13 2q33 -91 101 -146.5t163 -55.5q55 0 94 33.5t39 92.5q0 27 -14.5 51.5t-30 39.5t-50.5 33.5t-49 24.5t-53 22q-8 3 -12 5q-42 18 -60.5 26t-49 26.5t-44 35.5t-24.5 44t-11 61q0 93 69.5 147t187.5 54q108 0 192 -42
l4 -130l-11 -4q-30 76 -89.5 117.5t-133.5 41.5q-62 0 -102.5 -34t-40.5 -92q0 -30 15 -54.5t42 -42.5t53 -30t60 -26q7 -3 11 -4q31 -12 45.5 -17.5t43 -18.5t43 -23t35 -26.5t31 -32.5t18 -38.5t7.5 -47.5q0 -97 -73.5 -155t-167.5 -58z" />
    <glyph glyph-name="T" unicode="T" horiz-adv-x="560" 
d="M188 0v14q24 8 32 32.5t8 80.5v555h-31q-68 0 -106 -23t-65 -82l-12 2l6 121h521l6 -121l-12 -2q-27 59 -65 82t-106 23h-29v-555q0 -56 8 -80.5t32 -32.5v-14h-187z" />
    <glyph glyph-name="U" unicode="U" horiz-adv-x="687" 
d="M369 -10q-57 0 -106.5 14.5t-92.5 45.5t-68 88t-25 134v301q0 56 -8 80.5t-32 32.5v14h186v-14q-24 -8 -32 -32.5t-8 -80.5v-309q0 -250 226 -250q34 0 66 13.5t61.5 41.5t47.5 80t18 121v243q0 88 -17.5 124t-58.5 49v14h134v-14q-24 -8 -32 -32.5t-8 -80.5v-301
q0 -144 -67.5 -213t-183.5 -69z" />
    <glyph glyph-name="V" unicode="V" horiz-adv-x="648" 
d="M71 582q-32 84 -75 104v14h184v-14q-21 -15 -19.5 -27.5t20.5 -62.5q3 -9 5 -14l184 -467l181 467q36 92 -15 104v14h116v-14q-49 -18 -82 -104l-226 -582h-38z" />
    <glyph glyph-name="W" unicode="W" horiz-adv-x="933" 
d="M365 582q-34 84 -76 104v14h181v-14q-25 -8 -17 -38q3 -11 25 -66l49 -119l44 118q35 93 -17 105v14h116v-14q-47 -17 -81 -105l-53 -142l128 -311l165 453q35 93 -17 105v14h116v-14q-48 -17 -79 -105l-211 -581h-36l-132 323l-131 -323h-38l-222 581q-31 85 -73 105v14
h181v-14q-15 -5 -18.5 -15.5t2 -28.5t16.5 -47q4 -9 6 -14l175 -455l92 223z" />
    <glyph glyph-name="X" unicode="X" horiz-adv-x="573" 
d="M404 0v14q10 3 13.5 9t2 13t-9 20t-16.5 28q-10 16 -16 25l-128 213l-144 -216q-29 -45 -27 -65.5t36 -26.5v-14h-129v14q49 17 99 92l155 233l-152 252q-47 76 -88 95v14h186v-14q-10 -3 -13.5 -9t-2 -13t9 -20t16.5 -28q10 -16 16 -25l108 -179l121 182q29 45 27 65.5
t-36 26.5v14h129v-14q-49 -17 -99 -92l-132 -199l172 -286q47 -76 88 -95v-14h-186z" />
    <glyph glyph-name="Y" unicode="Y" horiz-adv-x="563" 
d="M184 0v14q24 8 32 32.5t8 80.5l-1 194l-148 268q-40 73 -89 97v14h187v-14q-18 -12 -16 -23t24 -49q9 -16 14 -25l132 -238l135 238q26 47 23 69t-34 28v14h129v-14q-55 -20 -98 -97l-151 -269v-193q0 -56 8 -80.5t32 -32.5v-14h-187z" />
    <glyph glyph-name="Z" unicode="Z" horiz-adv-x="524" 
d="M16 0v15l354 667h-132q-78 0 -121.5 -29t-72.5 -107h-13l19 154h446v-15l-359 -667h159q78 0 121.5 29t72.5 107h13l-19 -154h-468z" />
    <glyph glyph-name="bracketleft" unicode="[" horiz-adv-x="370" 
d="M97 -269v1069h252v-12h-181v-1045h181v-12h-252z" />
    <glyph glyph-name="backslash" unicode="\" horiz-adv-x="356" 
d="M398 -273l-448 1070l15 6l448 -1070z" />
    <glyph glyph-name="bracketright" unicode="]" horiz-adv-x="369" 
d="M273 -269h-252v12h181v1045h-181v12h252v-1069z" />
    <glyph glyph-name="asciicircum" unicode="^" horiz-adv-x="396" 
d="M89 467l-14 8l111 225h18l111 -225l-14 -8l-106 215z" />
    <glyph glyph-name="underscore" unicode="_" horiz-adv-x="500" 
d="M-28 -95v16h561v-16h-561z" />
    <glyph glyph-name="a" unicode="a" horiz-adv-x="530" 
d="M410 0q-40 0 -40 40v165q-22 -93 -76 -154t-128 -61q-58 0 -97 35t-39 96q0 37 17 65.5t52 49.5t70.5 34.5t89.5 28.5l111 32q-3 137 -130 137q-91 0 -162 -85l-10 9q93 115 224 115q178 0 178 -187v-193q0 -56 8 -80.5t32 -32.5v-14h-100zM123 156q0 -46 27.5 -69.5
t65.5 -23.5q46 0 82.5 39t53.5 90t18 99v26l-107 -31q-140 -39 -140 -130z" />
    <glyph glyph-name="b" unicode="b" horiz-adv-x="602" 
d="M290 -9q-52 0 -98 20.5t-75 53.5l-41 -65h-11v657q0 41 -9 55.5t-31 24.5v14l132 58l10 -8v-353q92 59 166 59q102 0 165 -71.5t63 -169.5q0 -118 -74.5 -196.5t-196.5 -78.5zM167 176q0 -58 52.5 -111t109.5 -53q134 0 134 178q0 38 -9.5 82t-29.5 89.5t-60 75.5t-92 30
q-50 0 -105 -35v-256z" />
    <glyph glyph-name="c" unicode="c" horiz-adv-x="528" 
d="M268 -10q-98 0 -167.5 65t-69.5 176q0 122 80.5 199t189.5 77q77 0 128.5 -17.5t51.5 -39.5q0 -23 -22.5 -44t-45.5 -21q-41 0 -150 105q-64 -10 -103.5 -65.5t-39.5 -129.5q0 -99 56.5 -161.5t150.5 -62.5q102 0 173 79l9 -10q-99 -150 -241 -150z" />
    <glyph glyph-name="d" unicode="d" horiz-adv-x="577" 
d="M244 -12q-92 1 -152.5 74t-60.5 169q0 118 76 196.5t203 78.5q57 0 107 -25v176q0 41 -9 55.5t-31 24.5v14l132 58l10 -8v-674q0 -56 8 -80.5t32 -32.5v-14h-102q-40 0 -40 40v42q-83 -96 -173 -94zM129 312q0 -41 8 -82.5t26 -84.5t55 -70t88 -27q60 0 111 55v221
q0 58 -44.5 109.5t-104.5 51.5q-52 0 -84.5 -28t-43.5 -64.5t-11 -80.5z" />
    <glyph glyph-name="e" unicode="e" horiz-adv-x="534" 
d="M268 -10q-92 0 -164.5 64t-72.5 177q0 122 80 199t183 77q95 0 151 -54.5t56 -125.5h-379q-2 -22 -2 -32q0 -99 56.5 -161.5t150.5 -62.5q102 0 173 79l9 -10q-99 -150 -241 -150zM123 341h277q-10 63 -48 105t-89 43q-60 1 -95 -41.5t-45 -106.5z" />
    <glyph glyph-name="f" unicode="f" horiz-adv-x="315" 
d="M35 0v14q24 8 32 32.5t8 80.5v344h-58l5 16h53q5 112 104.5 203t223.5 91q71 0 71 -28q0 -19 -22 -43t-53 -24q-61 0 -157 37q-18 -10 -30 -21.5t-23.5 -43.5t-11.5 -80v-91h125l-5 -16h-120v-344q0 -56 8 -80.5t32 -32.5v-14h-182z" />
    <glyph glyph-name="g" unicode="g" horiz-adv-x="534" 
d="M174 -277q-58 0 -108 29t-50 92q0 79 123 153q-67 19 -67 77q0 49 80 96q-93 45 -93 146q0 78 61 134.5t143 56.5q39 0 73 -9q22 34 53 54q50 36 108 36t58 -27q0 -18 -17.5 -39.5t-45.5 -21.5q-27 0 -111 28q-14 -11 -30 -35q52 -17 83 -56t31 -100q0 -79 -67 -134.5
t-135 -55.5q-53 0 -97 17q-29 -19 -29 -38q0 -38 106 -44l134 -8q82 -5 117.5 -25t35.5 -71q0 -54 -49.5 -113.5t-134 -100.5t-172.5 -41zM98 -107q0 -56 41.5 -83t105.5 -27q101 0 169 42.5t68 97.5q0 26 -21.5 39t-78.5 16l-161 8q-28 1 -65 7q-58 -41 -58 -100zM152 371
q0 -45 13 -90.5t44.5 -81t74.5 -35.5q47 0 68 33t21 83q0 76 -40.5 147t-102.5 65q-78 -9 -78 -121z" />
    <glyph glyph-name="h" unicode="h" horiz-adv-x="581" 
d="M20 0v14q24 8 32 32.5t8 80.5v530q0 41 -9 55.5t-31 24.5v14l132 58l10 -8v-384q110 90 205 90q72 0 113 -40.5t41 -124.5v-215q0 -56 8 -80.5t32 -32.5v-14h-182v14q24 8 32 32.5t8 80.5v197q0 68 -29 105.5t-84 37.5q-62 0 -144 -67v-273q0 -56 8 -80.5t32 -32.5v-14
h-182z" />
    <glyph glyph-name="i" unicode="i" horiz-adv-x="240" 
d="M28 0v14q24 8 32 32.5t8 80.5v230q0 41 -9 55.5t-31 24.5v14l132 58l10 -8v-374q0 -56 8 -80.5t32 -32.5v-14h-182zM45 611q0 29 19.5 49t48.5 20q30 0 49 -19.5t19 -49.5q0 -29 -19.5 -48.5t-48.5 -19.5t-48.5 19.5t-19.5 48.5z" />
    <glyph glyph-name="j" unicode="j" horiz-adv-x="243" 
d="M-97 -278q-63 0 -63 28q0 18 19 39.5t44 21.5q26 0 131 -21q31 24 38 55t7 105v16v391q0 41 -9 55.5t-31 24.5v14l132 58l10 -8v-458q0 -67 -40 -142t-106 -127t-132 -52zM52 611q0 29 19.5 49t48.5 20q30 0 49 -19.5t19 -49.5q0 -29 -20 -48.5t-48 -19.5t-48 19.5
t-20 48.5z" />
    <glyph glyph-name="k" unicode="k" horiz-adv-x="540" 
d="M30 0v14q24 8 32 32.5t8 80.5v530q0 41 -9 55.5t-31 24.5v14l132 58l10 -8v-575l157 156q30 30 43.5 54.5t12 37.5t-12.5 17v9h127v-14q-67 -21 -122 -76l-64 -64l119 -215q34 -61 59.5 -89t58.5 -28v-14h-80q-79 0 -143 120l-83 158l-72 -72v-79q0 -56 8 -80.5t32 -32.5
v-14h-182z" />
    <glyph glyph-name="l" unicode="l" horiz-adv-x="246" 
d="M30 0v14q24 8 32 32.5t8 80.5v530q0 41 -9 55.5t-31 24.5v14l132 58l10 -8v-674q0 -56 8 -80.5t32 -32.5v-14h-182z" />
    <glyph glyph-name="m" unicode="m" horiz-adv-x="916" 
d="M28 0v14q24 8 32 32.5t8 80.5v230q0 41 -9 55.5t-31 24.5v14l132 58l10 -8v-84q110 90 205 90q108 0 135 -91q111 91 207 91q144 0 144 -165v-215q0 -56 8 -80.5t32 -32.5v-14h-182v14q24 8 32 32.5t8 80.5v197q0 143 -103 143q-61 0 -143 -65q6 -27 6 -60v-215
q0 -56 8 -80.5t32 -32.5v-14h-182v14q24 8 32 32.5t8 80.5v197q0 143 -103 143q-62 0 -144 -67v-273q0 -56 8 -80.5t32 -32.5v-14h-182z" />
    <glyph glyph-name="n" unicode="n" horiz-adv-x="589" 
d="M28 0v14q24 8 32 32.5t8 80.5v230q0 41 -9 55.5t-31 24.5v14l132 58l10 -8v-84q110 90 205 90q72 0 113 -40.5t41 -124.5v-215q0 -56 8 -80.5t32 -32.5v-14h-182v14q24 8 32 32.5t8 80.5v197q0 68 -29 105.5t-84 37.5q-62 0 -144 -67v-273q0 -56 8 -80.5t32 -32.5v-14
h-182z" />
    <glyph glyph-name="o" unicode="o" horiz-adv-x="605" 
d="M298 -10q-108 0 -187.5 64t-79.5 183q0 118 80 194t187 76q66 0 124.5 -24.5t100 -83t41.5 -141.5q0 -61 -25 -113.5t-64 -85t-85.5 -51t-91.5 -18.5zM131 312q0 -63 22 -130t70 -118.5t110 -51.5q68 0 99 49t31 121q0 66 -26 138t-77.5 122.5t-112.5 44.5t-88.5 -54.5
t-27.5 -120.5z" />
    <glyph glyph-name="p" unicode="p" horiz-adv-x="608" 
d="M300 -9q-65 0 -123 33v-167q0 -56 8 -80.5t32 -32.5v-14h-182v14q24 8 32 32.5t8 80.5v500q0 41 -9 55.5t-31 24.5v14l132 58l10 -8v-65q102 71 187 71q91 0 147 -68t56 -173q0 -118 -73.5 -196.5t-193.5 -78.5zM177 167q0 -52 54 -104.5t109 -52.5q133 0 133 180
q0 40 -7.5 82t-25.5 88.5t-56 76t-90 29.5q-56 0 -117 -47v-252z" />
    <glyph glyph-name="q" unicode="q" horiz-adv-x="570" 
d="M244 -12q-92 1 -152.5 74t-60.5 169q0 118 76 196.5t203 78.5q92 0 157 -60l46 54h7v-643q0 -56 8 -80.5t32 -32.5v-14h-182v14q24 8 32 32.5t8 80.5v226q-84 -97 -174 -95zM129 312q0 -41 8 -82.5t26 -84.5t55 -70t88 -27q60 0 112 56l-1 220q0 58 -45 109.5t-107 51.5
q-51 0 -83 -28t-42.5 -64t-10.5 -81z" />
    <glyph glyph-name="r" unicode="r" horiz-adv-x="451" 
d="M28 0v14q24 8 32 32.5t8 80.5v230q0 41 -9 55.5t-31 24.5v14l132 58l10 -8v-121q23 54 73 88q55 39 123 39q64 0 64 -30q0 -21 -18.5 -43t-49.5 -22q-34 0 -130 30q-22 -19 -41 -50.5t-21 -65.5v-199q0 -56 8 -80.5t32 -32.5v-14h-182z" />
    <glyph glyph-name="s" unicode="s" horiz-adv-x="448" 
d="M221 -8q-109 0 -180 47l-10 131l10 2q33 -75 86 -119t118 -45q45 -1 73.5 24.5t28.5 61.5q0 45 -32.5 69t-105.5 47q-90 27 -130 58t-40 93t49.5 104t145.5 42q91 0 152 -25l5 -110l-12 -2q-26 55 -71 89t-98 34q-47 0 -75.5 -21.5t-28.5 -54.5q0 -39 32.5 -62t107.5 -48
q87 -29 115 -49q53 -37 53 -104q0 -66 -46.5 -114t-146.5 -48z" />
    <glyph glyph-name="t" unicode="t" horiz-adv-x="356" 
d="M188 -10q-52 0 -78 36t-26 115v343h-64v16l150 132h16v-132h155l-4 -16h-151v-344q0 -89 67 -89q49 0 89 50l10 -10q-88 -101 -164 -101z" />
    <glyph glyph-name="u" unicode="u" horiz-adv-x="571" 
d="M210 -10q-78 0 -114 47t-36 140v180q0 41 -9 55.5t-31 24.5v14l132 58l10 -8v-311q0 -85 19.5 -122.5t74.5 -37.5q67 0 143 76v251q0 41 -9 55.5t-31 24.5v14l132 58l10 -8v-374q0 -56 8 -80.5t32 -32.5v-14h-102q-40 0 -40 40v45q-98 -95 -189 -95z" />
    <glyph glyph-name="v" unicode="v" horiz-adv-x="478" 
d="M59 383q-37 88 -71 103v14h171v-14q-25 -8 -16 -38q3 -13 26 -65l119 -281l108 279q18 51 14 75t-30 30v14h107v-14q-22 -8 -39 -31t-36 -74l-146 -381h-47z" />
    <glyph glyph-name="w" unicode="w" horiz-adv-x="708" 
d="M45 378q-27 95 -57 108v14h171v-14q-12 -4 -17.5 -10.5t-4.5 -22.5t4 -29.5t12 -45.5l76 -268l134 390h61l132 -386l79 264q28 96 -25 108v14h107v-14q-21 -7 -35.5 -31t-29.5 -77l-114 -378h-51l-139 409l-142 -409h-51z" />
    <glyph glyph-name="x" unicode="x" horiz-adv-x="461" 
d="M299 0v14q18 11 15 21t-26 43q-12 18 -19 28l-77 117l-88 -121q-37 -49 -38 -62t20 -20q10 -3 27 -6v-14h-132v14q52 18 104 88l98 134l-104 158q-48 72 -92 92v14h175v-14q-18 -11 -15 -21t26 -43l6 -9t6 -8.5t7 -10.5l61 -93l67 95q2 2 5 7q33 47 31 60q-5 16 -47 23
v14h131v-14q-52 -18 -102 -90l-76 -109l119 -181q48 -72 92 -92v-14h-174z" />
    <glyph glyph-name="y" unicode="y" horiz-adv-x="505" 
d="M36 -193q-31 -1 -52 8t-21 24q0 18 21 40.5t53 22.5t136 -18q35 38 70 111l-168 388q-34 82 -78 103v14h177v-14q-15 -5 -17.5 -15t2.5 -26t18 -44q5 -11 8 -17l114 -260l112 259q21 50 18 73.5t-29 29.5v14h114v-14q-50 -18 -87 -102l-153 -354q-54 -125 -109.5 -173
t-128.5 -50z" />
    <glyph glyph-name="z" unicode="z" horiz-adv-x="424" 
d="M22 0v11l251 473h-92q-50 0 -82 -25.5t-57 -90.5l-12 2l19 130h340v-11l-249 -473h109q122 0 139 141h11l-4 -157h-373z" />
    <glyph glyph-name="braceleft" unicode="{" horiz-adv-x="445" 
d="M353 -297q-88 0 -149 47t-61 130q0 47 30 136.5t30 123.5q0 46 -21 75t-60 29v13q39 0 60 29t21 75q0 36 -30 124t-30 136q0 54 37.5 96t86.5 60.5t96 18.5v-11q-72 -2 -113.5 -40t-41.5 -103q0 -48 30 -136t30 -132q0 -39 -33.5 -74t-79.5 -49q48 -15 80.5 -50t32.5 -74
q0 -45 -29.5 -133t-29.5 -135q0 -72 34.5 -106.5t110.5 -37.5z" />
    <glyph glyph-name="bar" unicode="|" horiz-adv-x="267" 
d="M129 -270v1070h18v-1070h-18z" />
    <glyph glyph-name="braceright" unicode="}" horiz-adv-x="445" 
d="M95 -285q76 3 110.5 37.5t34.5 106.5q0 47 -29.5 135t-29.5 133q0 39 32.5 74t80.5 50q-46 14 -79.5 49t-33.5 74q0 44 30 132t30 136q0 65 -41.5 103t-113.5 40v11q47 0 96 -18.5t86.5 -60.5t37.5 -96q0 -48 -30 -136t-30 -124q0 -46 21 -75t60 -29v-13q-39 0 -60 -29
t-21 -75q0 -34 30 -123.5t30 -136.5q0 -83 -61 -130t-149 -47z" />
    <glyph glyph-name="asciitilde" unicode="~" horiz-adv-x="466" 
d="M336 309q-25 0 -112.5 18.5t-118.5 18.5q-36 0 -53 -22l-7 4q4 7 16 26t17.5 26t15.5 18t19.5 15t20.5 4q24 0 109.5 -18.5t123.5 -18.5q33 0 48 27l8 -3q-22 -45 -42 -70t-45 -25z" />
    <glyph glyph-name="exclamdown" unicode="&#xa1;" horiz-adv-x="181" 
d="M63 351l63 -470l-115 -68l-6 4l44 534h14zM-1 456q0 25 17 43t41 18t41.5 -18t17.5 -43t-17.5 -42.5t-41.5 -17.5t-41 17.5t-17 42.5z" />
    <glyph glyph-name="cent" unicode="&#xa2;" horiz-adv-x="529" 
d="M273 -130v220q-59 2 -112.5 28t-91.5 83.5t-38 135.5q0 107 70.5 180.5t171.5 86.5v196h18v-194q7 1 21 1q84 0 134.5 -24t50.5 -57q0 -21 -15 -41t-34 -20q-15 0 -31 18t-29.5 40.5t-39 42.5t-57.5 23v-422q30 -4 48 -4q105 0 161 69l11 -8q-45 -60 -95 -95.5
t-125 -38.5v-220h-18zM129 395q0 -87 38.5 -145.5t105.5 -77.5v418q-70 -2 -107 -59.5t-37 -135.5z" />
    <glyph glyph-name="sterling" unicode="&#xa3;" horiz-adv-x="641" 
d="M439 -27q-42 0 -88.5 22.5t-92.5 53t-69 39.5q-11 -20 -29 -47q-31 -44 -71 -44q-28 0 -47.5 14.5t-19.5 43.5q0 27 20.5 46t60.5 19q20 0 67 -8q4 31 19 208h-143l8 16h136l4 47q13 147 80.5 235.5t176.5 88.5q52 0 94 -16.5t42 -49.5q0 -23 -12.5 -39.5t-27.5 -16.5
q-20 0 -36.5 15.5t-27.5 34t-31 34t-44 15.5q-14 0 -25 -4t-20 -13.5t-15.5 -19t-12 -27.5t-9.5 -32.5t-8.5 -40.5t-7 -44t-7 -50t-7.5 -53q-4 -32 -12 -64h188l-8 -16h-184q-27 -110 -80 -213q192 -31 256 -31q107 0 152 65l8 -4q-88 -164 -177 -164z" />
    <glyph glyph-name="yen" unicode="&#xa5;" horiz-adv-x="522" 
d="M62 310l8 16h150l-145 263q-40 73 -89 97v14h187v-14q-18 -12 -16 -23t24 -49q9 -16 14 -25l132 -238l135 238q26 47 23 69t-34 28v14h129v-14q-55 -20 -98 -97l-148 -263h144l-8 -16h-139v-121h147l-8 -16h-139v-46q0 -56 8 -80.5t32 -32.5v-14h-187v14q24 8 32 32.5
t8 80.5v46h-162l8 16h154l-1 121h-161z" />
    <glyph glyph-name="brokenbar" unicode="&#xa6;" horiz-adv-x="267" 
d="M129 330v470h18v-470h-18zM129 -270v470h18v-470h-18z" />
    <glyph glyph-name="section" unicode="&#xa7;" horiz-adv-x="563" 
d="M229 -187q-44 0 -91 23.5t-47 56.5q0 24 13 42t31 18t34.5 -18t28 -40t33 -40t48.5 -18q26 0 42 16t16 42q0 61 -120 192q-40 43 -60 66.5t-55 70.5t-52 89t-17 80q0 109 116 174q5 61 52.5 100t120.5 39q45 0 91 -21.5t46 -54.5q0 -24 -13 -42t-31 -18t-34 17.5
t-27.5 38.5t-33 38.5t-48.5 17.5q-26 0 -42 -17t-16 -43q0 -30 25 -73.5t48.5 -71.5t66.5 -76q35 -38 53.5 -59.5t52 -65t50 -82t16.5 -71.5q0 -110 -125 -183q-9 -56 -56 -91.5t-116 -35.5zM97 469q0 -37 31.5 -91.5t57 -86t67.5 -78.5q43 -49 66 -76.5t53.5 -80.5
t30.5 -90v-8q50 36 50 92q0 74 -140 236q-94 108 -123 154q-41 65 -42 111q-51 -31 -51 -82z" />
    <glyph glyph-name="copyright" unicode="&#xa9;" horiz-adv-x="816" 
d="M387 -13q-154 0 -252.5 94.5t-98.5 243.5q0 104 58.5 192t148 136.5t185.5 48.5q151 0 251 -93t100 -244q0 -111 -60 -199.5t-148.5 -133.5t-183.5 -45zM77 341q0 -141 96.5 -236.5t237.5 -95.5q140 0 233.5 97.5t93.5 244.5q0 143 -95.5 236.5t-235.5 93.5
q-139 0 -234.5 -97.5t-95.5 -242.5zM207 334q0 99 68.5 159t174.5 60q68 0 111 -26l9 -83l-7 -1q-48 91 -141 91q-62 0 -97 -47t-37 -120q-1 -80 45.5 -125.5t115.5 -45.5q96 0 146 80l8 -4q-61 -137 -192 -137q-91 0 -147.5 54.5t-56.5 144.5z" />
    <glyph glyph-name="ordfeminine" unicode="&#xaa;" horiz-adv-x="458" 
d="M325 347q-49 0 -49 58v18q-63 -77 -130 -77q-40 0 -68 25t-28 64q0 48 37.5 77.5t117.5 52.5l71 20q-3 90 -85 90q-52 0 -109 -47l-7 9q79 69 151 69q61 0 93.5 -33.5t32.5 -96.5v-153q0 -38 18 -38q13 0 31 16l7 -9q-50 -45 -83 -45zM52 245v16h337v-16h-337zM124 464
q0 -32 18 -51t50 -19q48 0 84 46v133l-69 -21q-83 -25 -83 -88z" />
    <glyph glyph-name="guillemotleft" unicode="&#xab;" horiz-adv-x="550" 
d="M320 24l-265 226l265 226l10 -12l-251 -214l251 -214zM225 250l265 226l10 -12l-251 -214l251 -214l-10 -12z" />
    <glyph glyph-name="registered" unicode="&#xae;" horiz-adv-x="804" 
d="M387 -13q-154 0 -252.5 94.5t-98.5 243.5q0 104 58.5 192t148 136.5t185.5 48.5q151 0 251 -93t100 -244q0 -111 -60 -199.5t-148.5 -133.5t-183.5 -45zM77 341q0 -141 96.5 -236.5t237.5 -95.5q140 0 233.5 97.5t93.5 244.5q0 143 -95.5 236.5t-235.5 93.5
q-139 0 -234.5 -97.5t-95.5 -242.5zM236 148v8q14 5 18.5 19t4.5 47v262q0 33 -4.5 47t-18.5 19v8h111q97 0 149 -30t52 -87q0 -49 -40 -87.5t-114 -49.5q81 -10 114 -70l14 -26q25 -47 56 -55v-5h-55q-31 0 -48 13t-33 41l-14 25q-5 9 -13.5 26t-12 22t-11.5 13t-18 10.5
t-25 2.5h-2h-10v-79q0 -33 4.5 -47t18.5 -19v-8h-123zM336 311h13q74 0 101.5 34t27.5 91q0 55 -30 83.5t-101 28.5h-11v-237z" />
    <glyph glyph-name="degree" unicode="&#xb0;" horiz-adv-x="363" 
d="M183 427q-58 0 -99 41t-41 99t41 99t99 41q57 0 98.5 -41t41.5 -99t-41 -99t-99 -41zM61 567q0 -53 35 -88.5t87 -35.5t87 35.5t35 88.5t-35 88.5t-87 35.5t-87 -35.5t-35 -88.5z" />
    <glyph glyph-name="plusminus" unicode="&#xb1;" horiz-adv-x="558" 
d="M101 453l7 16h164v137l16 7v-144h168l-7 -16h-161v-128l-16 -7v135h-171zM101 193l7 16h348l-7 -16h-348z" />
    <glyph glyph-name="uni00B2" unicode="&#xb2;" horiz-adv-x="358" 
d="M1 253q213 206 213 336q0 89 -70 89q-49 0 -93 -37l-7 10q37 30 67 44t69 14q47 0 83 -30t37 -81q0 -27 -9.5 -55t-33 -58t-40 -50.5t-53.5 -52.5t-49.5 -42.5t-49.5 -40.5l153 -1q48 0 62.5 8.5t24.5 40.5l10 -2l-11 -103h-303v11z" />
    <glyph glyph-name="uni00B3" unicode="&#xb3;" horiz-adv-x="334" 
d="M19 158q92 46 144 119t52 133q0 91 -69 91q-21 0 -45 -15l-5 12q50 23 68.5 50.5t18.5 63.5q0 29 -15 47.5t-42 19.5q-44 2 -88 -35l-8 10q67 55 133 55q45 0 71.5 -24t26.5 -58q0 -39 -23.5 -62.5t-72.5 -46.5q6 1 19 1q43 0 79 -23.5t36 -74.5q0 -76 -72.5 -142
t-200.5 -133z" />
    <glyph glyph-name="paragraph" unicode="&#xb6;" horiz-adv-x="644" 
d="M332 -160v513h-49q-91 0 -144 43.5t-53 117.5q0 77 49.5 117.5t143.5 40.5h279v-14q-24 -8 -32 -32.5t-8 -80.5v-705h-16v738q0 50 -6.5 65t-30.5 15h-117v-818h-16z" />
    <glyph glyph-name="periodcentered" unicode="&#xb7;" horiz-adv-x="217" 
d="M109 208q-24 0 -41.5 18t-17.5 43t17.5 42.5t41.5 17.5t41 -17.5t17 -42.5t-17 -43t-41 -18z" />
    <glyph glyph-name="uni00B9" unicode="&#xb9;" horiz-adv-x="240" 
d="M43 242v9q18 5 24.5 21.5t6.5 52.5v315l-49 -24l-5 11l121 81h13v-383q0 -36 6.5 -52.5t24.5 -21.5v-9h-142z" />
    <glyph glyph-name="ordmasculine" unicode="&#xba;" horiz-adv-x="470" 
d="M235 347q-75 0 -130 44.5t-55 127.5q0 81 55.5 134t129.5 53q73 0 129 -44t56 -129q0 -83 -58.5 -134.5t-126.5 -51.5zM76 245v16h337v-16h-337zM128 570q0 -44 13.5 -89t44.5 -80t73 -35q80 0 80 115q0 75 -39 144.5t-100 63.5q-72 -8 -72 -119z" />
    <glyph glyph-name="guillemotright" unicode="&#xbb;" horiz-adv-x="550" 
d="M236 24l-10 12l251 214l-251 214l10 12l265 -226zM56 36l251 214l-251 214l10 12l265 -226l-265 -226z" />
    <glyph glyph-name="questiondown" unicode="&#xbf;" horiz-adv-x="392" 
d="M239 348l6 -3l1 -200q-72 -36 -104.5 -87t-32.5 -104q0 -52 29 -82t76 -30q44 0 82 26.5t62 74.5l14 -7q-30 -62 -84 -102.5t-126 -40.5q-65 0 -108.5 35.5t-43.5 100.5q0 118 151 190l-6 194zM144 446q0 25 17 43t41 18t41.5 -18t17.5 -43t-17.5 -42.5t-41.5 -17.5
t-41 17.5t-17 42.5z" />
    <glyph glyph-name="Agrave" unicode="&#xc0;" horiz-adv-x="643" 
d="M-21 0v14q49 18 84 104l187 464q11 28 -2 54l-13 28l98 44l248 -591q35 -83 77 -103v-14h-182v14q15 5 18 15.5t-2.5 27.5t-18.5 47l-2 4t-2 4.5t-2 4.5l-60 144h-267l-58 -143q-20 -50 -16.5 -74t29.5 -30v-14h-116zM146 277h254l-129 309zM183 835q0 11 22 23.5
t41 12.5q18 0 50 -28l101 -87l-4 -7l-172 52q-38 11 -38 34z" />
    <glyph glyph-name="Aacute" unicode="&#xc1;" horiz-adv-x="643" 
d="M-21 0v14q49 18 84 104l187 464q11 28 -2 54l-13 28l98 44l248 -591q35 -83 77 -103v-14h-182v14q15 5 18 15.5t-2.5 27.5t-18.5 47l-2 4t-2 4.5t-2 4.5l-60 144h-267l-58 -143q-20 -50 -16.5 -74t29.5 -30v-14h-116zM146 277h254l-129 309zM183 756l101 87q32 28 50 28
q19 0 41 -12.5t22 -23.5q0 -23 -38 -34l-172 -52z" />
    <glyph glyph-name="Acircumflex" unicode="&#xc2;" horiz-adv-x="643" 
d="M-21 0v14q49 18 84 104l187 464q11 28 -2 54l-13 28l98 44l248 -591q35 -83 77 -103v-14h-182v14q15 5 18 15.5t-2.5 27.5t-18.5 47l-2 4t-2 4.5t-2 4.5l-60 144h-267l-58 -143q-20 -50 -16.5 -74t29.5 -30v-14h-116zM146 277h254l-129 309zM195 756l109 119h6l116 -117
l-9 -9l-110 46l-104 -46z" />
    <glyph glyph-name="Atilde" unicode="&#xc3;" horiz-adv-x="643" 
d="M-21 0v14q49 18 84 104l187 464q11 28 -2 54l-13 28l98 44l248 -591q35 -83 77 -103v-14h-182v14q15 5 18 15.5t-2.5 27.5t-18.5 47l-2 4t-2 4.5t-2 4.5l-60 144h-267l-58 -143q-20 -50 -16.5 -74t29.5 -30v-14h-116zM146 277h254l-129 309zM158 755q41 109 101 109
q21 0 76.5 -20t74.5 -20t30.5 11.5t23.5 43.5l10 -3q-37 -120 -103 -120q-33 0 -79.5 20.5t-72.5 20.5q-34 0 -51 -46z" />
    <glyph glyph-name="Adieresis" unicode="&#xc4;" horiz-adv-x="643" 
d="M-21 0v14q49 18 84 104l187 464q11 28 -2 54l-13 28l98 44l248 -591q35 -83 77 -103v-14h-182v14q15 5 18 15.5t-2.5 27.5t-18.5 47l-2 4t-2 4.5t-2 4.5l-60 144h-267l-58 -143q-20 -50 -16.5 -74t29.5 -30v-14h-116zM146 277h254l-129 309zM171 816q0 22 15.5 37
t37.5 15q24 0 39.5 -15.5t15.5 -38.5q0 -22 -16 -37.5t-39 -15.5t-38 15.5t-15 39.5zM341 816q0 22 16 37t39 15q22 0 37.5 -16t15.5 -38t-15.5 -37.5t-37.5 -15.5q-23 0 -39 15.5t-16 39.5z" />
    <glyph glyph-name="Aring" unicode="&#xc5;" horiz-adv-x="643" 
d="M-21 0v14q49 18 84 104l187 464q11 28 -2 54l-13 28l98 44l248 -591q35 -83 77 -103v-14h-182v14q15 5 18 15.5t-2.5 27.5t-18.5 47l-2 4t-2 4.5t-2 4.5l-60 144h-267l-58 -143q-20 -50 -16.5 -74t29.5 -30v-14h-116zM146 277h254l-129 309zM241 815q0 30 19 50t49 20
q33 0 51.5 -19t18.5 -49q0 -29 -20 -49t-50 -20t-49 19.5t-19 47.5zM253 815q0 -25 16 -41t40 -16q25 0 41.5 17t16.5 42t-16.5 41.5t-41.5 16.5q-24 0 -40 -16.5t-16 -43.5z" />
    <glyph glyph-name="AE" unicode="&#xc6;" horiz-adv-x="814" 
d="M-21 0v14q49 18 85 103l241 583h378l12 -112l-13 -3q-23 52 -68 74.5t-128 22.5h-112l85 -296h26q88 0 124 17.5t49 58.5h14v-170h-14q-13 41 -49 58.5t-124 17.5h-21l89 -308q12 -42 54 -42q59 0 94.5 23.5t64.5 86.5h13l-7 -128h-355v14q12 4 17.5 10.5t4.5 22.5
t-4 29.5t-12 45.5l-32 117h-258l-50 -122q-39 -91 12 -103v-14h-116zM140 255h246l-99 357z" />
    <glyph glyph-name="Ccedilla" unicode="&#xc7;" horiz-adv-x="751" 
d="M383 -235q-33 0 -54 12.5t-21 27.5q0 11 14 20.5t28 9.5t41 -20t50 -20t38 15.5t15 35.5q0 23 -23 39.5t-68 16.5q-8 0 -39 -7l-5 6l68 89q-175 4 -274 94.5t-99 253.5q0 155 112.5 262t292.5 107q63 0 128 -12.5t101 -36.5l4 -132l-12 -3q-30 76 -99 120.5t-148 44.5
q-123 0 -198 -79.5t-75 -225.5q0 -152 84.5 -262t224.5 -110q82 0 139.5 46t85.5 126l13 -2l-16 -143q-106 -48 -248 -48l-31 -42q59 11 89 -8.5t30 -53.5q0 -45 -45 -83t-103 -38z" />
    <glyph glyph-name="Egrave" unicode="&#xc8;" horiz-adv-x="595" 
d="M47 0v14q24 8 32 32.5t8 80.5v446q0 56 -8 80.5t-32 32.5v14h480l11 -141l-13 -3q-29 72 -78.5 100t-136.5 28h-117v-300h96q88 0 124 17.5t49 58.5h14v-168h-14q-13 41 -49 58.5t-124 17.5h-96v-302q0 -50 50 -50h96q80 0 130.5 29.5t77.5 102.5l13 -2l-7 -146h-506z
M167 835q0 11 22 23.5t41 12.5q18 0 50 -28l101 -87l-4 -7l-172 52q-38 11 -38 34z" />
    <glyph glyph-name="Eacute" unicode="&#xc9;" horiz-adv-x="595" 
d="M47 0v14q24 8 32 32.5t8 80.5v446q0 56 -8 80.5t-32 32.5v14h480l11 -141l-13 -3q-29 72 -78.5 100t-136.5 28h-117v-300h96q88 0 124 17.5t49 58.5h14v-168h-14q-13 41 -49 58.5t-124 17.5h-96v-302q0 -50 50 -50h96q80 0 130.5 29.5t77.5 102.5l13 -2l-7 -146h-506z
M167 756l101 87q31 28 50 28t41 -12.5t22 -23.5q0 -23 -38 -34l-172 -52z" />
    <glyph glyph-name="Ecircumflex" unicode="&#xca;" horiz-adv-x="595" 
d="M47 0v14q24 8 32 32.5t8 80.5v446q0 56 -8 80.5t-32 32.5v14h480l11 -141l-13 -3q-29 72 -78.5 100t-136.5 28h-117v-300h96q88 0 124 17.5t49 58.5h14v-168h-14q-13 41 -49 58.5t-124 17.5h-96v-302q0 -50 50 -50h96q80 0 130.5 29.5t77.5 102.5l13 -2l-7 -146h-506z
M179 756l109 119h6l116 -117l-9 -9l-110 46l-104 -46z" />
    <glyph glyph-name="Edieresis" unicode="&#xcb;" horiz-adv-x="595" 
d="M47 0v14q24 8 32 32.5t8 80.5v446q0 56 -8 80.5t-32 32.5v14h480l11 -141l-13 -3q-29 72 -78.5 100t-136.5 28h-117v-300h96q88 0 124 17.5t49 58.5h14v-168h-14q-13 41 -49 58.5t-124 17.5h-96v-302q0 -50 50 -50h96q80 0 130.5 29.5t77.5 102.5l13 -2l-7 -146h-506z
M155 816q0 22 15.5 37t37.5 15q24 0 39.5 -15.5t15.5 -38.5q0 -22 -16 -37.5t-39 -15.5t-38 15.5t-15 39.5zM325 816q0 22 16 37t39 15q22 0 37.5 -16t15.5 -38t-15.5 -37.5t-37.5 -15.5q-23 0 -39 15.5t-16 39.5z" />
    <glyph glyph-name="Igrave" unicode="&#xcc;" horiz-adv-x="280" 
d="M47 0v14q24 8 32 32.5t8 80.5v446q0 56 -8 80.5t-32 32.5v14h186v-14q-24 -8 -32 -32.5t-8 -80.5v-446q0 -56 8 -80.5t32 -32.5v-14h-186zM13 835q0 11 22 23.5t41 12.5q18 0 50 -28l101 -87l-4 -7l-172 52q-38 11 -38 34z" />
    <glyph glyph-name="Iacute" unicode="&#xcd;" horiz-adv-x="280" 
d="M47 0v14q24 8 32 32.5t8 80.5v446q0 56 -8 80.5t-32 32.5v14h186v-14q-24 -8 -32 -32.5t-8 -80.5v-446q0 -56 8 -80.5t32 -32.5v-14h-186zM13 756l101 87q32 28 50 28q19 0 41 -12.5t22 -23.5q0 -23 -38 -34l-172 -52z" />
    <glyph glyph-name="Icircumflex" unicode="&#xce;" horiz-adv-x="280" 
d="M47 0v14q24 8 32 32.5t8 80.5v446q0 56 -8 80.5t-32 32.5v14h186v-14q-24 -8 -32 -32.5t-8 -80.5v-446q0 -56 8 -80.5t32 -32.5v-14h-186zM25 756l109 119h6l116 -117l-9 -9l-110 46l-104 -46z" />
    <glyph glyph-name="Idieresis" unicode="&#xcf;" horiz-adv-x="280" 
d="M47 0v14q24 8 32 32.5t8 80.5v446q0 56 -8 80.5t-32 32.5v14h186v-14q-24 -8 -32 -32.5t-8 -80.5v-446q0 -56 8 -80.5t32 -32.5v-14h-186zM1 816q0 22 15.5 37t37.5 15q24 0 39.5 -15.5t15.5 -38.5q0 -22 -16 -37.5t-39 -15.5t-38 15.5t-15 39.5zM171 816q0 22 16 37
t39 15q22 0 37.5 -16t15.5 -38t-15.5 -37.5t-37.5 -15.5q-23 0 -39 15.5t-16 39.5z" />
    <glyph glyph-name="Eth" unicode="&#xd0;" horiz-adv-x="731" 
d="M47 0v14q24 8 32 32.5t8 80.5v254h-45v14h45v178q0 56 -8 80.5t-32 32.5v14h250q83 0 150 -21t109.5 -54.5t71 -78.5t40.5 -90t12 -92q1 -163 -98 -263.5t-263 -100.5h-272zM193 89q0 -38 13 -55.5t52 -17.5h54q124 0 187 71t63 228q0 162 -84.5 265.5t-244.5 103.5h-40
v-289h92v-14h-92v-292z" />
    <glyph glyph-name="Ntilde" unicode="&#xd1;" horiz-adv-x="662" 
d="M574 -8l-469 592v-397q0 -88 17.5 -124t58.5 -49v-14h-134v14q24 8 32 32.5t8 80.5v446q0 56 -10.5 80.5t-41.5 32.5v14h113l420 -526v339q0 88 -17.5 124t-58.5 49v14h135v-14q-24 -8 -32 -32.5t-8 -80.5v-581h-13zM185 755q41 109 101 109q21 0 76.5 -20t74.5 -20
t30.5 11.5t23.5 43.5l10 -3q-37 -120 -103 -120q-32 0 -79 20.5t-73 20.5q-34 0 -51 -46z" />
    <glyph glyph-name="Ograve" unicode="&#xd2;" horiz-adv-x="820" 
d="M412 -10q-52 0 -102.5 13.5t-97 42.5t-81.5 70.5t-56 102.5t-21 134q0 151 100.5 253t257.5 102q65 0 127.5 -22.5t114.5 -65.5t83.5 -114t31.5 -159t-32 -158t-84 -112.5t-114 -64.5t-127 -22zM158 414q11 -156 99.5 -274.5t211.5 -118.5q108 0 157 70t42 177
q-8 108 -47.5 201.5t-108.5 153t-152 59.5q-101 0 -155.5 -73t-46.5 -195zM274 835q0 11 22 23.5t41 12.5t50 -28l101 -87l-4 -7l-172 52q-38 11 -38 34z" />
    <glyph glyph-name="Oacute" unicode="&#xd3;" horiz-adv-x="820" 
d="M412 -10q-52 0 -102.5 13.5t-97 42.5t-81.5 70.5t-56 102.5t-21 134q0 151 100.5 253t257.5 102q65 0 127.5 -22.5t114.5 -65.5t83.5 -114t31.5 -159t-32 -158t-84 -112.5t-114 -64.5t-127 -22zM158 414q11 -156 99.5 -274.5t211.5 -118.5q108 0 157 70t42 177
q-8 108 -47.5 201.5t-108.5 153t-152 59.5q-101 0 -155.5 -73t-46.5 -195zM274 756l101 87q31 28 50 28t41 -12.5t22 -23.5q0 -23 -38 -34l-172 -52z" />
    <glyph glyph-name="Ocircumflex" unicode="&#xd4;" horiz-adv-x="820" 
d="M412 -10q-52 0 -102.5 13.5t-97 42.5t-81.5 70.5t-56 102.5t-21 134q0 151 100.5 253t257.5 102q65 0 127.5 -22.5t114.5 -65.5t83.5 -114t31.5 -159t-32 -158t-84 -112.5t-114 -64.5t-127 -22zM158 414q11 -156 99.5 -274.5t211.5 -118.5q108 0 157 70t42 177
q-8 108 -47.5 201.5t-108.5 153t-152 59.5q-101 0 -155.5 -73t-46.5 -195zM286 756l109 119h6l116 -117l-9 -9l-110 46l-104 -46z" />
    <glyph glyph-name="Otilde" unicode="&#xd5;" horiz-adv-x="820" 
d="M412 -10q-52 0 -102.5 13.5t-97 42.5t-81.5 70.5t-56 102.5t-21 134q0 151 100.5 253t257.5 102q65 0 127.5 -22.5t114.5 -65.5t83.5 -114t31.5 -159t-32 -158t-84 -112.5t-114 -64.5t-127 -22zM158 414q11 -156 99.5 -274.5t211.5 -118.5q108 0 157 70t42 177
q-8 108 -47.5 201.5t-108.5 153t-152 59.5q-101 0 -155.5 -73t-46.5 -195zM249 755q41 109 101 109q21 0 76.5 -20t74.5 -20t30.5 11.5t23.5 43.5l10 -3q-37 -120 -103 -120q-32 0 -79 20.5t-73 20.5q-34 0 -51 -46z" />
    <glyph glyph-name="Odieresis" unicode="&#xd6;" horiz-adv-x="820" 
d="M412 -10q-52 0 -102.5 13.5t-97 42.5t-81.5 70.5t-56 102.5t-21 134q0 151 100.5 253t257.5 102q65 0 127.5 -22.5t114.5 -65.5t83.5 -114t31.5 -159t-32 -158t-84 -112.5t-114 -64.5t-127 -22zM158 414q11 -156 99.5 -274.5t211.5 -118.5q108 0 157 70t42 177
q-8 108 -47.5 201.5t-108.5 153t-152 59.5q-101 0 -155.5 -73t-46.5 -195zM262 816q0 22 15.5 37t37.5 15q24 0 39.5 -15.5t15.5 -38.5q0 -22 -16 -37.5t-39 -15.5t-38 15.5t-15 39.5zM432 816q0 22 16 37t39 15q22 0 37.5 -16t15.5 -38t-15 -37.5t-38 -15.5t-39 15.5
t-16 39.5z" />
    <glyph glyph-name="multiply" unicode="&#xd7;" horiz-adv-x="558" 
d="M423 187l-138 137l-137 -137l-16 6l142 142l-140 140l16 7l135 -135l135 135l16 -6l-140 -140l143 -142z" />
    <glyph glyph-name="Oslash" unicode="&#xd8;" horiz-adv-x="820" 
d="M412 -10q-109 0 -198 55l-99 -157l-16 10l99 157q-144 101 -144 298q0 151 100.5 253t257.5 102q90 0 172 -41l87 138l16 -10l-87 -137q77 -45 123 -123.5t46 -187.5q0 -88 -32 -158t-84 -112.5t-114 -64.5t-127 -22zM158 414q11 -155 96 -270l286 453q-80 85 -180 85
q-101 0 -155.5 -73t-46.5 -195zM266 128q89 -107 203 -107q108 0 157 70t42 177q-13 190 -115 314z" />
    <glyph glyph-name="Ugrave" unicode="&#xd9;" horiz-adv-x="687" 
d="M369 -10q-57 0 -106.5 14.5t-92.5 45.5t-68 88t-25 134v301q0 56 -8 80.5t-32 32.5v14h186v-14q-24 -8 -32 -32.5t-8 -80.5v-309q0 -250 226 -250q34 0 66 13.5t61.5 41.5t47.5 80t18 121v243q0 88 -17.5 124t-58.5 49v14h134v-14q-24 -8 -32 -32.5t-8 -80.5v-301
q0 -144 -67.5 -213t-183.5 -69zM244 835q0 11 22 23.5t41 12.5t50 -28l101 -87l-4 -7l-172 52q-38 11 -38 34z" />
    <glyph glyph-name="Uacute" unicode="&#xda;" horiz-adv-x="687" 
d="M369 -10q-57 0 -106.5 14.5t-92.5 45.5t-68 88t-25 134v301q0 56 -8 80.5t-32 32.5v14h186v-14q-24 -8 -32 -32.5t-8 -80.5v-309q0 -250 226 -250q34 0 66 13.5t61.5 41.5t47.5 80t18 121v243q0 88 -17.5 124t-58.5 49v14h134v-14q-24 -8 -32 -32.5t-8 -80.5v-301
q0 -144 -67.5 -213t-183.5 -69zM244 756l101 87q31 28 50 28t41 -12.5t22 -23.5q0 -23 -38 -34l-172 -52z" />
    <glyph glyph-name="Ucircumflex" unicode="&#xdb;" horiz-adv-x="687" 
d="M369 -10q-57 0 -106.5 14.5t-92.5 45.5t-68 88t-25 134v301q0 56 -8 80.5t-32 32.5v14h186v-14q-24 -8 -32 -32.5t-8 -80.5v-309q0 -250 226 -250q34 0 66 13.5t61.5 41.5t47.5 80t18 121v243q0 88 -17.5 124t-58.5 49v14h134v-14q-24 -8 -32 -32.5t-8 -80.5v-301
q0 -144 -67.5 -213t-183.5 -69zM256 756l109 119h6l116 -117l-9 -9l-110 46l-104 -46z" />
    <glyph glyph-name="Udieresis" unicode="&#xdc;" horiz-adv-x="687" 
d="M369 -10q-57 0 -106.5 14.5t-92.5 45.5t-68 88t-25 134v301q0 56 -8 80.5t-32 32.5v14h186v-14q-24 -8 -32 -32.5t-8 -80.5v-309q0 -250 226 -250q34 0 66 13.5t61.5 41.5t47.5 80t18 121v243q0 88 -17.5 124t-58.5 49v14h134v-14q-24 -8 -32 -32.5t-8 -80.5v-301
q0 -144 -67.5 -213t-183.5 -69zM232 816q0 22 15.5 37t37.5 15q24 0 39.5 -15.5t15.5 -38.5q0 -22 -16 -37.5t-39 -15.5t-38 15.5t-15 39.5zM402 816q0 22 16 37t39 15q22 0 37.5 -16t15.5 -38t-15 -37.5t-38 -15.5t-39 15.5t-16 39.5z" />
    <glyph glyph-name="Yacute" unicode="&#xdd;" horiz-adv-x="563" 
d="M184 0v14q24 8 32 32.5t8 80.5l-1 194l-148 268q-40 73 -89 97v14h187v-14q-18 -12 -16 -23t24 -49q9 -16 14 -25l132 -238l135 238q26 47 23 69t-34 28v14h129v-14q-55 -20 -98 -97l-151 -269v-193q0 -56 8 -80.5t32 -32.5v-14h-187zM154 756l101 87q31 28 50 28
t41 -12.5t22 -23.5q0 -23 -38 -34l-172 -52z" />
    <glyph glyph-name="Thorn" unicode="&#xde;" horiz-adv-x="587" 
d="M47 0v14q24 8 32 32.5t8 80.5v446q0 56 -8 80.5t-32 32.5v14h186v-14q-22 -7 -30.5 -28.5t-9.5 -67.5h96q276 0 276 -189q0 -105 -79 -171.5t-239 -66.5h-54v-36q0 -56 8 -80.5t32 -32.5v-14h-186zM193 182h49q106 0 160 55.5t54 145.5q0 38 -10.5 70t-34.5 60
t-69.5 43.5t-109.5 15.5h-39v-390z" />
    <glyph glyph-name="germandbls" unicode="&#xdf;" horiz-adv-x="619" 
d="M424 -8q-103 0 -174 39l-7 118l13 2q68 -142 177 -142q50 0 76.5 27.5t26.5 64.5q0 40 -26.5 66.5t-64 42l-75 31t-64 43.5t-26.5 69t24.5 82t53.5 69t53.5 67.5t24.5 79.5q0 45 -29 70t-79 25q-73 0 -114 -49t-41 -168v-402q0 -56 8 -80.5t32 -32.5v-14h-182v14
q24 8 32 32.5t8 80.5v352v7h-45l6 14h40q6 80 58 145.5t118.5 98.5t128.5 34q66 1 103.5 -25.5t37.5 -69.5q0 -29 -13.5 -55.5t-33.5 -45t-43.5 -38t-43.5 -35.5t-33.5 -37.5t-13.5 -43.5q0 -32 27.5 -56t66.5 -40.5t78.5 -35.5t67 -52.5t27.5 -79.5q0 -72 -52.5 -122
t-127.5 -50z" />
    <glyph glyph-name="agrave" unicode="&#xe0;" horiz-adv-x="530" 
d="M410 0q-40 0 -40 40v165q-22 -93 -76 -154t-128 -61q-58 0 -97 35t-39 96q0 37 17 65.5t52 49.5t70.5 34.5t89.5 28.5l111 32q-3 137 -130 137q-91 0 -162 -85l-10 9q93 115 224 115q178 0 178 -187v-193q0 -56 8 -80.5t32 -32.5v-14h-100zM123 156q0 -46 27.5 -69.5
t65.5 -23.5q46 0 82.5 39t53.5 90t18 99v26l-107 -31q-140 -39 -140 -130zM165 685q0 11 22 23.5t41 12.5q23 0 50 -28l101 -107l-4 -7l-172 72q-23 10 -30.5 17t-7.5 17z" />
    <glyph glyph-name="aacute" unicode="&#xe1;" horiz-adv-x="530" 
d="M410 0q-40 0 -40 40v165q-22 -93 -76 -154t-128 -61q-58 0 -97 35t-39 96q0 37 17 65.5t52 49.5t70.5 34.5t89.5 28.5l111 32q-3 137 -130 137q-91 0 -162 -85l-10 9q93 115 224 115q178 0 178 -187v-193q0 -56 8 -80.5t32 -32.5v-14h-100zM123 156q0 -46 27.5 -69.5
t65.5 -23.5q46 0 82.5 39t53.5 90t18 99v26l-107 -31q-140 -39 -140 -130zM205 586l101 107q27 28 50 28q19 0 41 -12.5t22 -23.5q0 -10 -7.5 -17t-30.5 -17l-172 -72z" />
    <glyph glyph-name="acircumflex" unicode="&#xe2;" horiz-adv-x="530" 
d="M410 0q-40 0 -40 40v165q-22 -93 -76 -154t-128 -61q-58 0 -97 35t-39 96q0 37 17 65.5t52 49.5t70.5 34.5t89.5 28.5l111 32q-3 137 -130 137q-91 0 -162 -85l-10 9q93 115 224 115q178 0 178 -187v-193q0 -56 8 -80.5t32 -32.5v-14h-100zM123 156q0 -46 27.5 -69.5
t65.5 -23.5q46 0 82.5 39t53.5 90t18 99v26l-107 -31q-140 -39 -140 -130zM155 581l131 139h6l136 -137l-9 -9l-130 66l-126 -66z" />
    <glyph glyph-name="atilde" unicode="&#xe3;" horiz-adv-x="530" 
d="M410 0q-40 0 -40 40v165q-22 -93 -76 -154t-128 -61q-58 0 -97 35t-39 96q0 37 17 65.5t52 49.5t70.5 34.5t89.5 28.5l111 32q-3 137 -130 137q-91 0 -162 -85l-10 9q93 115 224 115q178 0 178 -187v-193q0 -56 8 -80.5t32 -32.5v-14h-100zM123 156q0 -46 27.5 -69.5
t65.5 -23.5q46 0 82.5 39t53.5 90t18 99v26l-107 -31q-140 -39 -140 -130zM140 555q41 109 101 109q21 0 76.5 -20t74.5 -20t30.5 11.5t23.5 43.5l10 -3q-38 -120 -103 -120q-32 0 -78.5 20.5t-73.5 20.5q-34 0 -51 -46z" />
    <glyph glyph-name="adieresis" unicode="&#xe4;" horiz-adv-x="530" 
d="M410 0q-40 0 -40 40v165q-22 -93 -76 -154t-128 -61q-58 0 -97 35t-39 96q0 37 17 65.5t52 49.5t70.5 34.5t89.5 28.5l111 32q-3 137 -130 137q-91 0 -162 -85l-10 9q93 115 224 115q178 0 178 -187v-193q0 -56 8 -80.5t32 -32.5v-14h-100zM123 156q0 -46 27.5 -69.5
t65.5 -23.5q46 0 82.5 39t53.5 90t18 99v26l-107 -31q-140 -39 -140 -130zM153 616q0 22 15.5 37t37.5 15q24 0 39.5 -15.5t15.5 -38.5q0 -22 -16 -37.5t-39 -15.5t-38 15.5t-15 39.5zM323 616q0 22 16 37t39 15q22 0 37.5 -16t15.5 -38t-15.5 -37.5t-37.5 -15.5
q-23 0 -39 15.5t-16 39.5z" />
    <glyph glyph-name="aring" unicode="&#xe5;" horiz-adv-x="530" 
d="M410 0q-40 0 -40 40v165q-22 -93 -76 -154t-128 -61q-58 0 -97 35t-39 96q0 37 17 65.5t52 49.5t70.5 34.5t89.5 28.5l111 32q-3 137 -130 137q-91 0 -162 -85l-10 9q93 115 224 115q178 0 178 -187v-193q0 -56 8 -80.5t32 -32.5v-14h-100zM123 156q0 -46 27.5 -69.5
t65.5 -23.5q46 0 82.5 39t53.5 90t18 99v26l-107 -31q-140 -39 -140 -130zM223 615q0 30 19 50t49 20q33 0 51.5 -19t18.5 -49q0 -29 -20 -49t-50 -20t-49 19.5t-19 47.5zM235 615q0 -25 16 -41t40 -16q25 0 41.5 17t16.5 42t-16.5 41.5t-41.5 16.5q-24 0 -40 -16.5
t-16 -43.5z" />
    <glyph glyph-name="ae" unicode="&#xe6;" horiz-adv-x="855" 
d="M166 -10q-58 0 -97 35t-39 96q0 37 17 65.5t52 49.5t70.5 34.5t89.5 28.5l109 31q1 71 -34 104.5t-94 33.5q-91 0 -162 -85l-10 9q93 115 224 115q115 0 144 -86q80 86 192 86q95 0 151 -54.5t56 -125.5h-379q-2 -22 -2 -32q0 -99 56.5 -161.5t150.5 -62.5q102 0 173 79
l9 -10q-99 -150 -241 -150q-83 0 -152 53t-82 148q-22 -83 -75 -142t-127 -59zM123 156q0 -46 27.5 -69.5t65.5 -23.5q43 0 78 34t51.5 75t19.5 76l1 7v3l2 58l-105 -30q-140 -39 -140 -130zM457 341h277q-10 63 -48 105t-89 43q-60 1 -95 -41.5t-45 -106.5z" />
    <glyph glyph-name="ccedilla" unicode="&#xe7;" horiz-adv-x="528" 
d="M268 -10h-9l-32 -42q59 11 89 -8.5t30 -53.5q0 -45 -45 -83t-103 -38q-33 0 -54 12.5t-21 27.5q0 11 14 20.5t28 9.5q15 0 41 -20t50 -20q23 0 38 15.5t15 35.5q0 23 -23 39.5t-68 16.5q-8 0 -39 -7l-5 6l69 90q-90 9 -151 73t-61 167q0 122 80.5 199t189.5 77
q77 0 128.5 -17.5t51.5 -39.5q0 -23 -22.5 -44t-45.5 -21q-41 0 -150 105q-64 -10 -103.5 -65.5t-39.5 -129.5q0 -99 56.5 -161.5t150.5 -62.5q102 0 173 79l9 -10q-99 -150 -241 -150z" />
    <glyph glyph-name="egrave" unicode="&#xe8;" horiz-adv-x="534" 
d="M268 -10q-92 0 -164.5 64t-72.5 177q0 122 80 199t183 77q95 0 151 -54.5t56 -125.5h-379q-2 -22 -2 -32q0 -99 56.5 -161.5t150.5 -62.5q102 0 173 79l9 -10q-99 -150 -241 -150zM123 341h277q-10 63 -48 105t-89 43q-60 1 -95 -41.5t-45 -106.5zM148 685q0 11 22 23.5
t41 12.5q23 0 50 -28l101 -107l-4 -7l-172 72q-23 10 -30.5 17t-7.5 17z" />
    <glyph glyph-name="eacute" unicode="&#xe9;" horiz-adv-x="534" 
d="M268 -10q-92 0 -164.5 64t-72.5 177q0 122 80 199t183 77q95 0 151 -54.5t56 -125.5h-379q-2 -22 -2 -32q0 -99 56.5 -161.5t150.5 -62.5q102 0 173 79l9 -10q-99 -150 -241 -150zM123 341h277q-10 63 -48 105t-89 43q-60 1 -95 -41.5t-45 -106.5zM188 586l101 107
q27 28 50 28q19 0 41 -12.5t22 -23.5q0 -10 -7.5 -17t-30.5 -17l-172 -72z" />
    <glyph glyph-name="ecircumflex" unicode="&#xea;" horiz-adv-x="534" 
d="M268 -10q-92 0 -164.5 64t-72.5 177q0 122 80 199t183 77q95 0 151 -54.5t56 -125.5h-379q-2 -22 -2 -32q0 -99 56.5 -161.5t150.5 -62.5q102 0 173 79l9 -10q-99 -150 -241 -150zM123 341h277q-10 63 -48 105t-89 43q-60 1 -95 -41.5t-45 -106.5zM138 581l131 139h6
l136 -137l-9 -9l-130 66l-126 -66z" />
    <glyph glyph-name="edieresis" unicode="&#xeb;" horiz-adv-x="534" 
d="M268 -10q-92 0 -164.5 64t-72.5 177q0 122 80 199t183 77q95 0 151 -54.5t56 -125.5h-379q-2 -22 -2 -32q0 -99 56.5 -161.5t150.5 -62.5q102 0 173 79l9 -10q-99 -150 -241 -150zM123 341h277q-10 63 -48 105t-89 43q-60 1 -95 -41.5t-45 -106.5zM136 616q0 22 15.5 37
t37.5 15q24 0 39.5 -15.5t15.5 -38.5q0 -22 -16 -37.5t-39 -15.5t-38 15.5t-15 39.5zM306 616q0 22 16 37t39 15q22 0 37.5 -16t15.5 -38t-15 -37.5t-38 -15.5t-39 15.5t-16 39.5z" />
    <glyph glyph-name="igrave" unicode="&#xec;" horiz-adv-x="240" 
d="M28 0v14q24 8 32 32.5t8 80.5v230q0 41 -9 55.5t-31 24.5v14l132 58l10 -8v-374q0 -56 8 -80.5t32 -32.5v-14h-182zM-14 685q0 11 22 23.5t41 12.5q23 0 50 -28l101 -107l-4 -7l-172 72q-23 10 -30.5 17t-7.5 17z" />
    <glyph glyph-name="iacute" unicode="&#xed;" horiz-adv-x="240" 
d="M28 0v14q24 8 32 32.5t8 80.5v230q0 41 -9 55.5t-31 24.5v14l132 58l10 -8v-374q0 -56 8 -80.5t32 -32.5v-14h-182zM26 586l101 107q27 28 50 28q19 0 41 -12.5t22 -23.5q0 -10 -7.5 -17t-30.5 -17l-172 -72z" />
    <glyph glyph-name="icircumflex" unicode="&#xee;" horiz-adv-x="240" 
d="M28 0v14q24 8 32 32.5t8 80.5v230q0 41 -9 55.5t-31 24.5v14l132 58l10 -8v-374q0 -56 8 -80.5t32 -32.5v-14h-182zM-24 581l131 139h6l136 -137l-9 -9l-130 66l-126 -66z" />
    <glyph glyph-name="idieresis" unicode="&#xef;" horiz-adv-x="240" 
d="M28 0v14q24 8 32 32.5t8 80.5v230q0 41 -9 55.5t-31 24.5v14l132 58l10 -8v-374q0 -56 8 -80.5t32 -32.5v-14h-182zM-26 616q0 22 15.5 37t37.5 15q24 0 39.5 -15.5t15.5 -38.5q0 -22 -16 -37.5t-39 -15.5t-38 15.5t-15 39.5zM144 616q0 22 16 37t39 15q22 0 37.5 -16
t15.5 -38t-15 -37.5t-38 -15.5t-39 15.5t-16 39.5z" />
    <glyph glyph-name="eth" unicode="&#xf0;" horiz-adv-x="600" 
d="M286 -10q-64 0 -122 26t-98.5 83t-40.5 135q0 64 24.5 117t64 86t85.5 51t91 18q72 0 125 -41q-27 92 -91 172l-109 -63l-1 1l1 12q2 11 9 15l87 50q-62 74 -156 127l8 9q108 -42 196 -108l76 44h2l-1 -13q0 -10 -9 -15l-50 -29q187 -149 187 -348q0 -87 -26 -153.5
t-68 -103t-89 -54.5t-95 -18zM116 321q0 -123 66 -212.5t153 -89.5q64 0 101 45t37 124q0 115 -62 205t-149 90q-61 0 -103.5 -44t-42.5 -118z" />
    <glyph glyph-name="ntilde" unicode="&#xf1;" horiz-adv-x="589" 
d="M28 0v14q24 8 32 32.5t8 80.5v230q0 41 -9 55.5t-31 24.5v14l132 58l10 -8v-84q110 90 205 90q72 0 113 -40.5t41 -124.5v-215q0 -56 8 -80.5t32 -32.5v-14h-182v14q24 8 32 32.5t8 80.5v197q0 68 -29 105.5t-84 37.5q-62 0 -144 -67v-273q0 -56 8 -80.5t32 -32.5v-14
h-182zM135 555q41 109 101 109q21 0 76.5 -20t74.5 -20t30.5 11.5t23.5 43.5l10 -3q-37 -120 -103 -120q-32 0 -79 20.5t-73 20.5q-34 0 -51 -46z" />
    <glyph glyph-name="ograve" unicode="&#xf2;" horiz-adv-x="605" 
d="M298 -10q-108 0 -187.5 64t-79.5 183q0 118 80 194t187 76q66 0 124.5 -24.5t100 -83t41.5 -141.5q0 -61 -25 -113.5t-64 -85t-85.5 -51t-91.5 -18.5zM131 312q0 -63 22 -130t70 -118.5t110 -51.5q68 0 99 49t31 121q0 66 -26 138t-77.5 122.5t-112.5 44.5t-88.5 -54.5
t-27.5 -120.5zM173 685q0 11 22 23.5t41 12.5q23 0 50 -28l101 -107l-4 -7l-172 72q-23 10 -30.5 17t-7.5 17z" />
    <glyph glyph-name="oacute" unicode="&#xf3;" horiz-adv-x="605" 
d="M298 -10q-108 0 -187.5 64t-79.5 183q0 118 80 194t187 76q66 0 124.5 -24.5t100 -83t41.5 -141.5q0 -61 -25 -113.5t-64 -85t-85.5 -51t-91.5 -18.5zM131 312q0 -63 22 -130t70 -118.5t110 -51.5q68 0 99 49t31 121q0 66 -26 138t-77.5 122.5t-112.5 44.5t-88.5 -54.5
t-27.5 -120.5zM213 586l101 107q27 28 50 28q19 0 41 -12.5t22 -23.5q0 -10 -7.5 -17t-30.5 -17l-172 -72z" />
    <glyph glyph-name="ocircumflex" unicode="&#xf4;" horiz-adv-x="605" 
d="M298 -10q-108 0 -187.5 64t-79.5 183q0 118 80 194t187 76q66 0 124.5 -24.5t100 -83t41.5 -141.5q0 -61 -25 -113.5t-64 -85t-85.5 -51t-91.5 -18.5zM131 312q0 -63 22 -130t70 -118.5t110 -51.5q68 0 99 49t31 121q0 66 -26 138t-77.5 122.5t-112.5 44.5t-88.5 -54.5
t-27.5 -120.5zM163 581l131 139h6l136 -137l-9 -9l-130 66l-126 -66z" />
    <glyph glyph-name="otilde" unicode="&#xf5;" horiz-adv-x="605" 
d="M298 -10q-108 0 -187.5 64t-79.5 183q0 118 80 194t187 76q66 0 124.5 -24.5t100 -83t41.5 -141.5q0 -61 -25 -113.5t-64 -85t-85.5 -51t-91.5 -18.5zM131 312q0 -63 22 -130t70 -118.5t110 -51.5q68 0 99 49t31 121q0 66 -26 138t-77.5 122.5t-112.5 44.5t-88.5 -54.5
t-27.5 -120.5zM148 555q41 109 101 109q21 0 76.5 -20t74.5 -20t30.5 11.5t23.5 43.5l10 -3q-37 -120 -103 -120q-33 0 -79 20.5t-73 20.5q-34 0 -51 -46z" />
    <glyph glyph-name="odieresis" unicode="&#xf6;" horiz-adv-x="605" 
d="M298 -10q-108 0 -187.5 64t-79.5 183q0 118 80 194t187 76q66 0 124.5 -24.5t100 -83t41.5 -141.5q0 -61 -25 -113.5t-64 -85t-85.5 -51t-91.5 -18.5zM131 312q0 -63 22 -130t70 -118.5t110 -51.5q68 0 99 49t31 121q0 66 -26 138t-77.5 122.5t-112.5 44.5t-88.5 -54.5
t-27.5 -120.5zM161 616q0 22 15.5 37t37.5 15q24 0 39.5 -15.5t15.5 -38.5q0 -22 -16 -37.5t-39 -15.5t-38 15.5t-15 39.5zM331 616q0 22 16 37t39 15q22 0 37.5 -16t15.5 -38t-15.5 -37.5t-37.5 -15.5q-23 0 -39 15.5t-16 39.5z" />
    <glyph glyph-name="divide" unicode="&#xf7;" horiz-adv-x="558" 
d="M101 327l7 16h348l-7 -16h-348zM255 203q0 25 17.5 42.5t41.5 17.5t41 -17.5t17 -42.5t-17 -43t-41 -18t-41.5 18t-17.5 43zM255 466q0 25 17.5 42.5t41.5 17.5t41 -17.5t17 -42.5t-17 -43t-41 -18t-41.5 18t-17.5 43z" />
    <glyph glyph-name="oslash" unicode="&#xf8;" horiz-adv-x="605" 
d="M298 -10q-72 0 -132 28l-82 -130l-16 10l82 129q-119 66 -119 210q0 118 80 194t187 76q73 0 136 -31l75 119l16 -10l-75 -118q114 -67 114 -209q0 -61 -25 -113.5t-64 -85t-85.5 -51t-91.5 -18.5zM131 312q0 -52 17 -110t47 -104l195 309q-64 88 -143 80
q-61 -6 -88.5 -54.5t-27.5 -120.5zM206 82q55 -70 127 -70q68 0 99 49t31 121q0 111 -61 208z" />
    <glyph glyph-name="ugrave" unicode="&#xf9;" horiz-adv-x="571" 
d="M210 -10q-78 0 -114 47t-36 140v180q0 41 -9 55.5t-31 24.5v14l132 58l10 -8v-311q0 -85 19.5 -122.5t74.5 -37.5q67 0 143 76v251q0 41 -9 55.5t-31 24.5v14l132 58l10 -8v-374q0 -56 8 -80.5t32 -32.5v-14h-102q-40 0 -40 40v45q-98 -95 -189 -95zM180 685
q0 11 22 23.5t41 12.5q23 0 50 -28l101 -107l-4 -7l-172 72q-23 10 -30.5 17t-7.5 17z" />
    <glyph glyph-name="uacute" unicode="&#xfa;" horiz-adv-x="571" 
d="M210 -10q-78 0 -114 47t-36 140v180q0 41 -9 55.5t-31 24.5v14l132 58l10 -8v-311q0 -85 19.5 -122.5t74.5 -37.5q67 0 143 76v251q0 41 -9 55.5t-31 24.5v14l132 58l10 -8v-374q0 -56 8 -80.5t32 -32.5v-14h-102q-40 0 -40 40v45q-98 -95 -189 -95zM220 586l101 107
q27 28 50 28q19 0 41 -12.5t22 -23.5q0 -10 -7.5 -17t-30.5 -17l-172 -72z" />
    <glyph glyph-name="ucircumflex" unicode="&#xfb;" horiz-adv-x="571" 
d="M210 -10q-78 0 -114 47t-36 140v180q0 41 -9 55.5t-31 24.5v14l132 58l10 -8v-311q0 -85 19.5 -122.5t74.5 -37.5q67 0 143 76v251q0 41 -9 55.5t-31 24.5v14l132 58l10 -8v-374q0 -56 8 -80.5t32 -32.5v-14h-102q-40 0 -40 40v45q-98 -95 -189 -95zM170 581l131 139h6
l136 -137l-9 -9l-130 66l-126 -66z" />
    <glyph glyph-name="udieresis" unicode="&#xfc;" horiz-adv-x="571" 
d="M210 -10q-78 0 -114 47t-36 140v180q0 41 -9 55.5t-31 24.5v14l132 58l10 -8v-311q0 -85 19.5 -122.5t74.5 -37.5q67 0 143 76v251q0 41 -9 55.5t-31 24.5v14l132 58l10 -8v-374q0 -56 8 -80.5t32 -32.5v-14h-102q-40 0 -40 40v45q-98 -95 -189 -95zM168 616
q0 22 15.5 37t37.5 15q24 0 39.5 -15.5t15.5 -38.5q0 -22 -16 -37.5t-39 -15.5t-38 15.5t-15 39.5zM338 616q0 22 16 37t39 15q22 0 37.5 -16t15.5 -38t-15 -37.5t-38 -15.5t-39 15.5t-16 39.5z" />
    <glyph glyph-name="yacute" unicode="&#xfd;" horiz-adv-x="505" 
d="M36 -193q-31 -1 -52 8t-21 24q0 18 21 40.5t53 22.5t136 -18q35 38 70 111l-168 388q-34 82 -78 103v14h177v-14q-15 -5 -17.5 -15t2.5 -26t18 -44q5 -11 8 -17l114 -260l112 259q21 50 18 73.5t-29 29.5v14h114v-14q-50 -18 -87 -102l-153 -354q-54 -125 -109.5 -173
t-128.5 -50zM150 586l101 107q27 28 50 28q19 0 41 -12.5t22 -23.5q0 -10 -7.5 -17t-30.5 -17l-172 -72z" />
    <glyph glyph-name="thorn" unicode="&#xfe;" horiz-adv-x="601" 
d="M284 -9q-66 0 -112 26v-160q0 -56 8 -80.5t32 -32.5v-14h-182v14q24 8 32 32.5t8 80.5v800q0 41 -9 55.5t-31 24.5v14l132 58l10 -8v-381q111 87 204 87q85 0 134.5 -58t49.5 -152q0 -129 -75 -217.5t-201 -88.5zM172 101q22 -36 63.5 -62.5t87.5 -26.5q146 0 146 201
q0 104 -37.5 179t-110.5 75q-68 0 -149 -64v-302z" />
    <glyph glyph-name="ydieresis" unicode="&#xff;" horiz-adv-x="505" 
d="M36 -193q-31 -1 -52 8t-21 24q0 18 21 40.5t53 22.5t136 -18q35 38 70 111l-168 388q-34 82 -78 103v14h177v-14q-15 -5 -17.5 -15t2.5 -26t18 -44q5 -11 8 -17l114 -260l112 259q21 50 18 73.5t-29 29.5v14h114v-14q-50 -18 -87 -102l-153 -354q-54 -125 -109.5 -173
t-128.5 -50zM98 616q0 22 15.5 37t37.5 15q24 0 39.5 -15.5t15.5 -38.5q0 -22 -16 -37.5t-39 -15.5t-38 15.5t-15 39.5zM268 616q0 22 16 37t39 15q22 0 37.5 -16t15.5 -38t-15 -37.5t-38 -15.5t-39 15.5t-16 39.5z" />
    <glyph glyph-name="Amacron" unicode="&#x100;" horiz-adv-x="643" 
d="M-21 0v14q49 18 84 104l187 464q11 28 -2 54l-13 28l98 44l248 -591q35 -83 77 -103v-14h-182v14q15 5 18 15.5t-2.5 27.5t-18.5 47l-2 4t-2 4.5t-2 4.5l-60 144h-267l-58 -143q-20 -50 -16.5 -74t29.5 -30v-14h-116zM146 277h254l-129 309zM169 787l24 31q10 14 30 14
h227l3 -4l-24 -31q-11 -14 -30 -14h-227z" />
    <glyph glyph-name="amacron" unicode="&#x101;" horiz-adv-x="530" 
d="M410 0q-40 0 -40 40v165q-22 -93 -76 -154t-128 -61q-58 0 -97 35t-39 96q0 37 17 65.5t52 49.5t70.5 34.5t89.5 28.5l111 32q-3 137 -130 137q-91 0 -162 -85l-10 9q93 115 224 115q178 0 178 -187v-193q0 -56 8 -80.5t32 -32.5v-14h-100zM123 156q0 -46 27.5 -69.5
t65.5 -23.5q46 0 82.5 39t53.5 90t18 99v26l-107 -31q-140 -39 -140 -130zM151 587l24 31q11 14 30 14h227l3 -4l-24 -31q-11 -14 -30 -14h-227z" />
    <glyph glyph-name="Abreve" unicode="&#x102;" horiz-adv-x="643" 
d="M-21 0v14q49 18 84 104l187 464q11 28 -2 54l-13 28l98 44l248 -591q35 -83 77 -103v-14h-182v14q15 5 18 15.5t-2.5 27.5t-18.5 47l-2 4t-2 4.5t-2 4.5l-60 144h-267l-58 -143q-20 -50 -16.5 -74t29.5 -30v-14h-116zM146 277h254l-129 309zM200 858l12 5
q13 -15 22.5 -23t29.5 -15.5t46 -7.5q38 0 58.5 11.5t39.5 34.5l11 -5q-27 -59 -50 -83t-59 -24q-37 0 -60 24t-50 83z" />
    <glyph glyph-name="abreve" unicode="&#x103;" horiz-adv-x="530" 
d="M410 0q-40 0 -40 40v165q-22 -93 -76 -154t-128 -61q-58 0 -97 35t-39 96q0 37 17 65.5t52 49.5t70.5 34.5t89.5 28.5l111 32q-3 137 -130 137q-91 0 -162 -85l-10 9q93 115 224 115q178 0 178 -187v-193q0 -56 8 -80.5t32 -32.5v-14h-100zM123 156q0 -46 27.5 -69.5
t65.5 -23.5q46 0 82.5 39t53.5 90t18 99v26l-107 -31q-140 -39 -140 -130zM172 686l12 5q19 -21 30 -30.5t31 -17.5t47 -8q38 0 59.5 13t48.5 43l11 -5q-35 -67 -59 -92t-60 -25q-37 0 -61 25t-59 92z" />
    <glyph glyph-name="Aogonek" unicode="&#x104;" horiz-adv-x="643" 
d="M-21 0v14q49 18 84 104l187 464q11 28 -2 54l-13 28l98 44l248 -591q35 -83 77 -103v-14h-84q-49 -48 -49 -84q0 -22 16.5 -34t41.5 -12q26 0 51 16l5 -4l-36 -63q-17 -12 -46 -12q-33 0 -56 19.5t-23 50.5q0 52 78 123h-80v14q15 5 18 15.5t-2.5 27.5t-18.5 47l-2 4
t-2 4.5t-2 4.5l-60 144h-267l-58 -143q-20 -50 -16.5 -74t29.5 -30v-14h-116zM146 277h254l-129 309z" />
    <glyph glyph-name="aogonek" unicode="&#x105;" horiz-adv-x="530" 
d="M410 0q-40 0 -40 40v165q-22 -93 -76 -154t-128 -61q-58 0 -97 35t-39 96q0 37 17 65.5t52 49.5t70.5 34.5t89.5 28.5l111 32q-3 137 -130 137q-91 0 -162 -85l-10 9q93 115 224 115q178 0 178 -187v-193q0 -56 8 -80.5t32 -32.5v-14h-35q-49 -48 -49 -84q0 -22 16.5 -34
t41.5 -12q26 0 51 16l5 -4l-36 -63q-17 -12 -46 -12q-33 0 -56 19.5t-23 50.5q0 52 78 123h-47zM123 156q0 -46 27.5 -69.5t65.5 -23.5q46 0 82.5 39t53.5 90t18 99v26l-107 -31q-140 -39 -140 -130z" />
    <glyph glyph-name="Cacute" unicode="&#x106;" horiz-adv-x="751" 
d="M440 -10q-181 0 -283.5 91t-102.5 257q0 155 112.5 262t292.5 107q63 0 128 -12.5t101 -36.5l4 -132l-12 -3q-30 76 -99 120.5t-148 44.5q-123 0 -198 -79.5t-75 -225.5q0 -152 84.5 -262t224.5 -110q82 0 139.5 46t85.5 126l13 -2l-16 -143q-106 -48 -251 -48zM314 756
l101 87q31 28 50 28t41 -12.5t22 -23.5q0 -23 -38 -34l-172 -52z" />
    <glyph glyph-name="cacute" unicode="&#x107;" horiz-adv-x="528" 
d="M268 -10q-98 0 -167.5 65t-69.5 176q0 122 80.5 199t189.5 77q77 0 128.5 -17.5t51.5 -39.5q0 -23 -22.5 -44t-45.5 -21q-41 0 -150 105q-64 -10 -103.5 -65.5t-39.5 -129.5q0 -99 56.5 -161.5t150.5 -62.5q102 0 173 79l9 -10q-99 -150 -241 -150zM189 586l101 107
q27 28 50 28q19 0 41 -12.5t22 -23.5q0 -10 -7.5 -17t-30.5 -17l-172 -72z" />
    <glyph glyph-name="Cdotaccent" unicode="&#x10a;" horiz-adv-x="751" 
d="M440 -10q-181 0 -283.5 91t-102.5 257q0 155 112.5 262t292.5 107q63 0 128 -12.5t101 -36.5l4 -132l-12 -3q-30 76 -99 120.5t-148 44.5q-123 0 -198 -79.5t-75 -225.5q0 -152 84.5 -262t224.5 -110q82 0 139.5 46t85.5 126l13 -2l-16 -143q-106 -48 -251 -48zM373 811
q0 29 19.5 49t48.5 20q30 0 49 -19.5t19 -49.5q0 -29 -19.5 -48.5t-48.5 -19.5t-48.5 19.5t-19.5 48.5z" />
    <glyph glyph-name="cdotaccent" unicode="&#x10b;" horiz-adv-x="528" 
d="M268 -10q-98 0 -167.5 65t-69.5 176q0 122 80.5 199t189.5 77q77 0 128.5 -17.5t51.5 -39.5q0 -23 -22.5 -44t-45.5 -21q-41 0 -150 105q-64 -10 -103.5 -65.5t-39.5 -129.5q0 -99 56.5 -161.5t150.5 -62.5q102 0 173 79l9 -10q-99 -150 -241 -150zM208 611q0 29 19.5 49
t48.5 20q30 0 49 -19.5t19 -49.5q0 -29 -20 -48.5t-48 -19.5t-48 19.5t-20 48.5z" />
    <glyph glyph-name="Ccaron" unicode="&#x10c;" horiz-adv-x="751" 
d="M440 -10q-181 0 -283.5 91t-102.5 257q0 155 112.5 262t292.5 107q63 0 128 -12.5t101 -36.5l4 -132l-12 -3q-30 76 -99 120.5t-148 44.5q-123 0 -198 -79.5t-75 -225.5q0 -152 84.5 -262t224.5 -110q82 0 139.5 46t85.5 126l13 -2l-16 -143q-106 -48 -251 -48zM326 868
l8 7l104 -46l110 46l9 -9l-116 -117h-6z" />
    <glyph glyph-name="ccaron" unicode="&#x10d;" horiz-adv-x="528" 
d="M268 -10q-98 0 -167.5 65t-69.5 176q0 122 80.5 199t189.5 77q77 0 128.5 -17.5t51.5 -39.5q0 -23 -22.5 -44t-45.5 -21q-41 0 -150 105q-64 -10 -103.5 -65.5t-39.5 -129.5q0 -99 56.5 -161.5t150.5 -62.5q102 0 173 79l9 -10q-99 -150 -241 -150zM139 713l8 7l126 -66
l130 66l9 -9l-136 -137h-6z" />
    <glyph glyph-name="Dcaron" unicode="&#x10e;" horiz-adv-x="731" 
d="M47 0v14q24 8 32 32.5t8 80.5v446q0 56 -8 80.5t-32 32.5v14h250q83 0 150 -21t109.5 -54.5t71 -78.5t40.5 -90t12 -92q1 -163 -98 -263.5t-263 -100.5h-272zM193 89q0 -38 13 -55.5t52 -17.5h54q124 0 187 71t63 228q0 162 -84.5 265.5t-244.5 103.5h-40v-595zM235 868
l8 7l104 -46l110 46l9 -9l-116 -117h-6z" />
    <glyph glyph-name="dcaron" unicode="&#x10f;" horiz-adv-x="577" 
d="M244 -12q-92 1 -152.5 74t-60.5 169q0 118 76 196.5t203 78.5q57 0 107 -25v176q0 41 -9 55.5t-31 24.5v14l132 58l10 -8v-674q0 -56 8 -80.5t32 -32.5v-14h-102q-40 0 -40 40v42q-83 -96 -173 -94zM129 312q0 -41 8 -82.5t26 -84.5t55 -70t88 -27q60 0 111 55v221
q0 58 -44.5 109.5t-104.5 51.5q-52 0 -84.5 -28t-43.5 -64.5t-11 -80.5zM589 756q0 21 11.5 36t34.5 15q47 0 47 -62q0 -50 -46 -168l-14 4q9 27 9 47q0 28 -21 67.5t-21 60.5z" />
    <glyph glyph-name="Dcroat" unicode="&#x110;" horiz-adv-x="731" 
d="M47 0v14q24 8 32 32.5t8 80.5v254h-45v14h45v178q0 56 -8 80.5t-32 32.5v14h250q83 0 150 -21t109.5 -54.5t71 -78.5t40.5 -90t12 -92q1 -163 -98 -263.5t-263 -100.5h-272zM193 89q0 -38 13 -55.5t52 -17.5h54q124 0 187 71t63 228q0 162 -84.5 265.5t-244.5 103.5h-40
v-289h92v-14h-92v-292z" />
    <glyph glyph-name="dcroat" unicode="&#x111;" horiz-adv-x="577" 
d="M244 -12q-92 1 -152.5 74t-60.5 169q0 118 76 196.5t203 78.5q57 0 107 -25v92h-130v14h130v70q0 41 -9 55.5t-31 24.5v14l132 58l10 -8v-214h41v-14h-41v-446q0 -56 8 -80.5t32 -32.5v-14h-102q-40 0 -40 40v42q-83 -96 -173 -94zM129 312q0 -41 8 -82.5t26 -84.5
t55 -70t88 -27q60 0 111 55v221q0 58 -44.5 109.5t-104.5 51.5q-52 0 -84.5 -28t-43.5 -64.5t-11 -80.5z" />
    <glyph glyph-name="Emacron" unicode="&#x112;" horiz-adv-x="595" 
d="M47 0v14q24 8 32 32.5t8 80.5v446q0 56 -8 80.5t-32 32.5v14h480l11 -141l-13 -3q-29 72 -78.5 100t-136.5 28h-117v-300h96q88 0 124 17.5t49 58.5h14v-168h-14q-13 41 -49 58.5t-124 17.5h-96v-302q0 -50 50 -50h96q80 0 130.5 29.5t77.5 102.5l13 -2l-7 -146h-506z
M153 787l24 31q11 14 30 14h227l3 -4l-24 -31q-11 -14 -30 -14h-227z" />
    <glyph glyph-name="emacron" unicode="&#x113;" horiz-adv-x="534" 
d="M268 -10q-92 0 -164.5 64t-72.5 177q0 122 80 199t183 77q95 0 151 -54.5t56 -125.5h-379q-2 -22 -2 -32q0 -99 56.5 -161.5t150.5 -62.5q102 0 173 79l9 -10q-99 -150 -241 -150zM123 341h277q-10 63 -48 105t-89 43q-60 1 -95 -41.5t-45 -106.5zM134 587l24 31
q10 14 30 14h227l3 -4l-24 -31q-11 -14 -30 -14h-227z" />
    <glyph glyph-name="Edotaccent" unicode="&#x116;" horiz-adv-x="595" 
d="M47 0v14q24 8 32 32.5t8 80.5v446q0 56 -8 80.5t-32 32.5v14h480l11 -141l-13 -3q-29 72 -78.5 100t-136.5 28h-117v-300h96q88 0 124 17.5t49 58.5h14v-168h-14q-13 41 -49 58.5t-124 17.5h-96v-302q0 -50 50 -50h96q80 0 130.5 29.5t77.5 102.5l13 -2l-7 -146h-506z
M226 811q0 29 19.5 49t48.5 20q30 0 49 -19.5t19 -49.5q0 -29 -20 -48.5t-48 -19.5t-48 19.5t-20 48.5z" />
    <glyph glyph-name="edotaccent" unicode="&#x117;" horiz-adv-x="534" 
d="M268 -10q-92 0 -164.5 64t-72.5 177q0 122 80 199t183 77q95 0 151 -54.5t56 -125.5h-379q-2 -22 -2 -32q0 -99 56.5 -161.5t150.5 -62.5q102 0 173 79l9 -10q-99 -150 -241 -150zM123 341h277q-10 63 -48 105t-89 43q-60 1 -95 -41.5t-45 -106.5zM207 611q0 29 19.5 49
t48.5 20q30 0 49 -19.5t19 -49.5q0 -29 -19.5 -48.5t-48.5 -19.5t-48.5 19.5t-19.5 48.5z" />
    <glyph glyph-name="Eogonek" unicode="&#x118;" horiz-adv-x="595" 
d="M47 0v14q24 8 32 32.5t8 80.5v446q0 56 -8 80.5t-32 32.5v14h480l11 -141l-13 -3q-29 72 -78.5 100t-136.5 28h-117v-300h96q88 0 124 17.5t49 58.5h14v-168h-14q-13 41 -49 58.5t-124 17.5h-96v-302q0 -50 50 -50h96q80 0 130.5 29.5t77.5 102.5l13 -2l-7 -146h-51
q-49 -48 -49 -84q0 -22 16.5 -34t41.5 -12q26 0 51 16l5 -4l-36 -63q-17 -12 -46 -12q-33 0 -56 19.5t-23 50.5q0 52 78 123h-437z" />
    <glyph glyph-name="eogonek" unicode="&#x119;" horiz-adv-x="534" 
d="M268 -10q-92 0 -164.5 64t-72.5 177q0 122 80 199t183 77q95 0 151 -54.5t56 -125.5h-379q-2 -22 -2 -32q0 -99 56.5 -161.5t150.5 -62.5q102 0 173 79l9 -10q-64 -95 -144 -130q-59 -55 -59 -94q0 -22 16.5 -34t41.5 -12q26 0 51 16l5 -4l-36 -63q-17 -12 -46 -12
q-33 0 -56 19.5t-23 50.5q0 52 78 123q-35 -10 -69 -10zM123 341h277q-10 63 -48 105t-89 43q-60 1 -95 -41.5t-45 -106.5z" />
    <glyph glyph-name="Ecaron" unicode="&#x11a;" horiz-adv-x="595" 
d="M47 0v14q24 8 32 32.5t8 80.5v446q0 56 -8 80.5t-32 32.5v14h480l11 -141l-13 -3q-29 72 -78.5 100t-136.5 28h-117v-300h96q88 0 124 17.5t49 58.5h14v-168h-14q-13 41 -49 58.5t-124 17.5h-96v-302q0 -50 50 -50h96q80 0 130.5 29.5t77.5 102.5l13 -2l-7 -146h-506z
M179 868l8 7l104 -46l110 46l9 -9l-116 -117h-6z" />
    <glyph glyph-name="ecaron" unicode="&#x11b;" horiz-adv-x="534" 
d="M268 -10q-92 0 -164.5 64t-72.5 177q0 122 80 199t183 77q95 0 151 -54.5t56 -125.5h-379q-2 -22 -2 -32q0 -99 56.5 -161.5t150.5 -62.5q102 0 173 79l9 -10q-99 -150 -241 -150zM123 341h277q-10 63 -48 105t-89 43q-60 1 -95 -41.5t-45 -106.5zM138 713l8 7l126 -66
l130 66l9 -9l-136 -137h-6z" />
    <glyph glyph-name="Gbreve" unicode="&#x11e;" horiz-adv-x="754" 
d="M431 -10q-172 0 -274.5 99t-102.5 264q0 148 105.5 251t270.5 103q54 0 117.5 -12.5t99.5 -36.5l4 -132l-12 -3q-30 75 -99.5 120t-146.5 45q-103 0 -168 -69t-66 -200q-1 -57 12 -114.5t39.5 -109.5t62.5 -92.5t85.5 -64.5t105.5 -24q49 0 88 19.5t57 56.5v91
q0 60 -10.5 84.5t-41.5 33.5v14h155v-184q-52 -68 -131.5 -103.5t-149.5 -35.5zM301 858l12 5q13 -15 22.5 -23t29.5 -15.5t46 -7.5q38 0 58.5 11.5t39.5 34.5l11 -5q-27 -59 -50 -83t-59 -24q-37 0 -60 24t-50 83z" />
    <glyph glyph-name="gbreve" unicode="&#x11f;" horiz-adv-x="534" 
d="M174 -277q-58 0 -108 29t-50 92q0 79 123 153q-67 19 -67 77q0 49 80 96q-93 45 -93 146q0 78 61 134.5t143 56.5q39 0 73 -9q22 34 53 54q50 36 108 36t58 -27q0 -18 -17.5 -39.5t-45.5 -21.5q-27 0 -111 28q-14 -11 -30 -35q52 -17 83 -56t31 -100q0 -79 -67 -134.5
t-135 -55.5q-53 0 -97 17q-29 -19 -29 -38q0 -38 106 -44l134 -8q82 -5 117.5 -25t35.5 -71q0 -54 -49.5 -113.5t-134 -100.5t-172.5 -41zM98 -107q0 -56 41.5 -83t105.5 -27q101 0 169 42.5t68 97.5q0 26 -21.5 39t-78.5 16l-161 8q-28 1 -65 7q-58 -41 -58 -100zM148 686
l12 5q19 -21 30 -30.5t31 -17.5t47 -8q38 0 59.5 13t48.5 43l11 -5q-35 -67 -59 -92t-60 -25q-37 0 -61 25t-59 92zM152 371q0 -45 13 -90.5t44.5 -81t74.5 -35.5q47 0 68 33t21 83q0 76 -40.5 147t-102.5 65q-78 -9 -78 -121z" />
    <glyph glyph-name="Gdotaccent" unicode="&#x120;" horiz-adv-x="754" 
d="M431 -10q-172 0 -274.5 99t-102.5 264q0 148 105.5 251t270.5 103q54 0 117.5 -12.5t99.5 -36.5l4 -132l-12 -3q-30 75 -99.5 120t-146.5 45q-103 0 -168 -69t-66 -200q-1 -57 12 -114.5t39.5 -109.5t62.5 -92.5t85.5 -64.5t105.5 -24q49 0 88 19.5t57 56.5v91
q0 60 -10.5 84.5t-41.5 33.5v14h155v-184q-52 -68 -131.5 -103.5t-149.5 -35.5zM343 811q0 29 19.5 49t48.5 20q30 0 49 -19.5t19 -49.5q0 -29 -19.5 -48.5t-48.5 -19.5t-48.5 19.5t-19.5 48.5z" />
    <glyph glyph-name="gdotaccent" unicode="&#x121;" horiz-adv-x="534" 
d="M174 -277q-58 0 -108 29t-50 92q0 79 123 153q-67 19 -67 77q0 49 80 96q-93 45 -93 146q0 78 61 134.5t143 56.5q39 0 73 -9q22 34 53 54q50 36 108 36t58 -27q0 -18 -17.5 -39.5t-45.5 -21.5q-27 0 -111 28q-14 -11 -30 -35q52 -17 83 -56t31 -100q0 -79 -67 -134.5
t-135 -55.5q-53 0 -97 17q-29 -19 -29 -38q0 -38 106 -44l134 -8q82 -5 117.5 -25t35.5 -71q0 -54 -49.5 -113.5t-134 -100.5t-172.5 -41zM98 -107q0 -56 41.5 -83t105.5 -27q101 0 169 42.5t68 97.5q0 26 -21.5 39t-78.5 16l-161 8q-28 1 -65 7q-58 -41 -58 -100zM152 371
q0 -45 13 -90.5t44.5 -81t74.5 -35.5q47 0 68 33t21 83q0 76 -40.5 147t-102.5 65q-78 -9 -78 -121zM200 611q0 29 19.5 49t48.5 20q30 0 49 -19.5t19 -49.5q0 -29 -20 -48.5t-48 -19.5t-48 19.5t-20 48.5z" />
    <glyph glyph-name="uni0122" unicode="&#x122;" horiz-adv-x="754" 
d="M431 -10q-172 0 -274.5 99t-102.5 264q0 148 105.5 251t270.5 103q54 0 117.5 -12.5t99.5 -36.5l4 -132l-12 -3q-30 75 -99.5 120t-146.5 45q-103 0 -168 -69t-66 -200q-1 -57 12 -114.5t39.5 -109.5t62.5 -92.5t85.5 -64.5t105.5 -24q49 0 88 19.5t57 56.5v91
q0 60 -10.5 84.5t-41.5 33.5v14h155v-184q-52 -68 -131.5 -103.5t-149.5 -35.5zM360 -255q65 36 70 109q-14 -4 -21 -4q-20 0 -33.5 13.5t-13.5 33.5q0 24 14 39.5t38 15.5q27 0 43.5 -17.5t16.5 -52.5q0 -47 -34.5 -90.5t-74.5 -57.5z" />
    <glyph glyph-name="uni0123" unicode="&#x123;" horiz-adv-x="534" 
d="M174 -277q-58 0 -108 29t-50 92q0 79 123 153q-67 19 -67 77q0 49 80 96q-93 45 -93 146q0 78 61 134.5t143 56.5q39 0 73 -9q22 34 53 54q50 36 108 36t58 -27q0 -18 -17.5 -39.5t-45.5 -21.5q-27 0 -111 28q-14 -11 -30 -35q52 -17 83 -56t31 -100q0 -79 -67 -134.5
t-135 -55.5q-53 0 -97 17q-29 -19 -29 -38q0 -38 106 -44l134 -8q82 -5 117.5 -25t35.5 -71q0 -54 -49.5 -113.5t-134 -100.5t-172.5 -41zM98 -107q0 -56 41.5 -83t105.5 -27q101 0 169 42.5t68 97.5q0 26 -21.5 39t-78.5 16l-161 8q-28 1 -65 7q-58 -41 -58 -100zM152 371
q0 -45 13 -90.5t44.5 -81t74.5 -35.5q47 0 68 33t21 83q0 76 -40.5 147t-102.5 65q-78 -9 -78 -121zM232 638q0 47 34.5 90.5t74.5 57.5l5 -11q-65 -36 -70 -109q14 4 21 4q20 0 33.5 -13.5t13.5 -33.5q0 -24 -14 -39.5t-38 -15.5q-27 0 -43.5 17.5t-16.5 52.5z" />
    <glyph glyph-name="Hbar" unicode="&#x126;" horiz-adv-x="734" 
d="M47 0v14q24 8 32 32.5t8 80.5v402h-51v14h51v30q0 56 -8 80.5t-32 32.5v14h186v-14q-24 -8 -32 -32.5t-8 -80.5v-30h348v30q0 56 -8 80.5t-32 32.5v14h186v-14q-24 -8 -32 -32.5t-8 -80.5v-30h42v-14h-42v-402q0 -56 8 -80.5t32 -32.5v-14h-186v14q24 8 32 32.5t8 80.5
v235h-348v-235q0 -56 8 -80.5t32 -32.5v-14h-186zM193 380h348v149h-348v-149z" />
    <glyph glyph-name="hbar" unicode="&#x127;" horiz-adv-x="581" 
d="M20 0v14q24 8 32 32.5t8 80.5v446h-35v14h35v70q0 41 -9 55.5t-31 24.5v14l132 58l10 -8v-214h136v-14h-136v-156q110 90 205 90q72 0 113 -40.5t41 -124.5v-215q0 -56 8 -80.5t32 -32.5v-14h-182v14q24 8 32 32.5t8 80.5v197q0 68 -29 105.5t-84 37.5q-62 0 -144 -67
v-273q0 -56 8 -80.5t32 -32.5v-14h-182z" />
    <glyph glyph-name="Imacron" unicode="&#x12a;" horiz-adv-x="280" 
d="M47 0v14q24 8 32 32.5t8 80.5v446q0 56 -8 80.5t-32 32.5v14h186v-14q-24 -8 -32 -32.5t-8 -80.5v-446q0 -56 8 -80.5t32 -32.5v-14h-186zM-1 787l24 31q10 14 30 14h227l3 -4l-24 -31q-11 -14 -30 -14h-227z" />
    <glyph glyph-name="imacron" unicode="&#x12b;" horiz-adv-x="240" 
d="M28 0v14q24 8 32 32.5t8 80.5v230q0 41 -9 55.5t-31 24.5v14l132 58l10 -8v-374q0 -56 8 -80.5t32 -32.5v-14h-182zM-28 587l24 31q10 14 30 14h227l3 -4l-24 -31q-10 -14 -30 -14h-227z" />
    <glyph glyph-name="Iogonek" unicode="&#x12e;" horiz-adv-x="280" 
d="M47 0v14q24 8 32 32.5t8 80.5v446q0 56 -8 80.5t-32 32.5v14h186v-14q-24 -8 -32 -32.5t-8 -80.5v-446q0 -56 8 -80.5t32 -32.5v-14h-95q-59 -55 -59 -94q0 -22 16.5 -34t41.5 -12q26 0 51 16l5 -4l-36 -63q-17 -12 -46 -12q-33 0 -56 19.5t-23 50.5q0 56 89 133h-74z
" />
    <glyph glyph-name="iogonek" unicode="&#x12f;" horiz-adv-x="240" 
d="M28 0v14q24 8 32 32.5t8 80.5v230q0 41 -9 55.5t-31 24.5v14l132 58l10 -8v-374q0 -56 8 -80.5t32 -32.5v-14h-21q-49 -48 -49 -84q0 -22 16.5 -34t41.5 -12q26 0 51 16l5 -4l-36 -63q-17 -12 -46 -12q-33 0 -56 19.5t-23 50.5q0 52 78 123h-143zM45 611q0 29 19.5 49
t48.5 20q30 0 49 -19.5t19 -49.5q0 -29 -19.5 -48.5t-48.5 -19.5t-48.5 19.5t-19.5 48.5z" />
    <glyph glyph-name="Idotaccent" unicode="&#x130;" horiz-adv-x="280" 
d="M47 0v14q24 8 32 32.5t8 80.5v446q0 56 -8 80.5t-32 32.5v14h186v-14q-24 -8 -32 -32.5t-8 -80.5v-446q0 -56 8 -80.5t32 -32.5v-14h-186zM72 811q0 29 19.5 49t48.5 20q30 0 49 -19.5t19 -49.5q0 -29 -20 -48.5t-48 -19.5t-48 19.5t-20 48.5z" />
    <glyph glyph-name="dotlessi" unicode="&#x131;" horiz-adv-x="240" 
d="M28 0v14q24 8 32 32.5t8 80.5v230q0 41 -9 55.5t-31 24.5v14l132 58l10 -8v-374q0 -56 8 -80.5t32 -32.5v-14h-182z" />
    <glyph glyph-name="IJ" unicode="&#x132;" horiz-adv-x="564" 
d="M47 0v14q24 8 32 32.5t8 80.5v446q0 56 -8 80.5t-32 32.5v14h186v-14q-24 -8 -32 -32.5t-8 -80.5v-446q0 -56 8 -80.5t32 -32.5v-14h-186zM153 -93q0 20 17.5 37t45.5 17q20 0 112 -19q44 30 44 131v500q0 56 -8 80.5t-32 32.5v14h185v-14q-24 -8 -32 -32.5t-8 -80.5
v-330q0 -154 -82.5 -258.5t-193.5 -104.5q-26 0 -37 5t-11 22z" />
    <glyph glyph-name="ij" unicode="&#x133;" horiz-adv-x="483" 
d="M28 0v14q24 8 32 32.5t8 80.5v230q0 41 -9 55.5t-31 24.5v14l132 58l10 -8v-374q0 -56 8 -80.5t32 -32.5v-14h-182zM45 611q0 29 19.5 49t48.5 20q30 0 49 -19.5t19 -49.5q0 -29 -19.5 -48.5t-48.5 -19.5t-48.5 19.5t-19.5 48.5zM80 -250q0 18 19 39.5t44 21.5
q26 0 131 -21q31 24 38 55t7 105v16v391q0 41 -9 55.5t-31 24.5v14l132 58l10 -8v-458q0 -67 -40 -142t-106 -127t-132 -52q-63 0 -63 28zM292 611q0 29 19.5 49t48.5 20q30 0 49 -19.5t19 -49.5q0 -29 -20 -48.5t-48 -19.5t-48 19.5t-20 48.5z" />
    <glyph glyph-name="uni0136" unicode="&#x136;" horiz-adv-x="645" 
d="M47 0v14q24 8 32 32.5t8 80.5v446q0 56 -8 80.5t-32 32.5v14h186v-14q-24 -8 -32 -32.5t-8 -80.5v-235l243 249q91 92 24 103v10h157v-14q-84 -23 -137 -77l-213 -218l25 1q57 3 92 -4.5t62 -35.5t43.5 -61t43.5 -101q44 -114 62.5 -145t42.5 -31q9 0 15 1v-15
q-27 -7 -68 -7q-60 0 -83.5 27.5t-70.5 143.5q-7 18 -19 47.5t-17 42t-14 33.5t-14.5 29t-14 21t-16 17.5t-18.5 10.5t-23 7.5t-27 1.5h-18l-57 -59v-188q0 -56 8 -80.5t32 -32.5v-14h-186zM239 -255q65 36 70 109q-14 -4 -21 -4q-20 0 -33.5 13.5t-13.5 33.5q0 24 14 39.5
t38 15.5q27 0 43.5 -17.5t16.5 -52.5q0 -47 -34.5 -90.5t-74.5 -57.5z" />
    <glyph glyph-name="uni0137" unicode="&#x137;" horiz-adv-x="540" 
d="M30 0v14q24 8 32 32.5t8 80.5v530q0 41 -9 55.5t-31 24.5v14l132 58l10 -8v-575l157 156q30 30 43.5 54.5t12 37.5t-12.5 17v9h127v-14q-67 -21 -122 -76l-64 -64l119 -215q34 -61 59.5 -89t58.5 -28v-14h-80q-79 0 -143 120l-83 158l-72 -72v-79q0 -56 8 -80.5t32 -32.5
v-14h-182zM215 -255q65 36 70 109q-14 -4 -21 -4q-20 0 -33.5 13.5t-13.5 33.5q0 24 14 39.5t38 15.5q27 0 43.5 -17.5t16.5 -52.5q0 -47 -34.5 -90.5t-74.5 -57.5z" />
    <glyph glyph-name="Lacute" unicode="&#x139;" horiz-adv-x="549" 
d="M47 0v14q24 8 32 32.5t8 80.5v446q0 56 -8 80.5t-32 32.5v14h186v-14q-24 -8 -32 -32.5t-8 -80.5v-505q0 -50 50 -50h82q78 0 121 23.5t72 86.5l13 -2l-8 -126h-476zM8 756l101 87q32 28 50 28q19 0 41 -12.5t22 -23.5q0 -23 -38 -34l-172 -52z" />
    <glyph glyph-name="lacute" unicode="&#x13a;" horiz-adv-x="246" 
d="M30 0v14q24 8 32 32.5t8 80.5v530q0 41 -9 55.5t-31 24.5v14l132 58l10 -8v-674q0 -56 8 -80.5t32 -32.5v-14h-182zM35 886l101 107q27 28 50 28q19 0 41 -12.5t22 -23.5q0 -10 -7.5 -17t-30.5 -17l-172 -72z" />
    <glyph glyph-name="uni013B" unicode="&#x13b;" horiz-adv-x="549" 
d="M47 0v14q24 8 32 32.5t8 80.5v446q0 56 -8 80.5t-32 32.5v14h186v-14q-24 -8 -32 -32.5t-8 -80.5v-505q0 -50 50 -50h82q78 0 121 23.5t72 86.5l13 -2l-8 -126h-476zM213 -255q65 36 70 109q-14 -4 -21 -4q-20 0 -33.5 13.5t-13.5 33.5q0 24 14 39.5t38 15.5
q27 0 43.5 -17.5t16.5 -52.5q0 -47 -34.5 -90.5t-74.5 -57.5z" />
    <glyph glyph-name="uni013C" unicode="&#x13c;" horiz-adv-x="246" 
d="M30 0v14q24 8 32 32.5t8 80.5v530q0 41 -9 55.5t-31 24.5v14l132 58l10 -8v-674q0 -56 8 -80.5t32 -32.5v-14h-182zM67 -255q65 36 70 109q-14 -4 -21 -4q-20 0 -33.5 13.5t-13.5 33.5q0 24 14 39.5t38 15.5q27 0 43.5 -17.5t16.5 -52.5q0 -47 -34.5 -90.5t-74.5 -57.5z
" />
    <glyph glyph-name="Lcaron" unicode="&#x13d;" horiz-adv-x="549" 
d="M47 0v14q24 8 32 32.5t8 80.5v446q0 56 -8 80.5t-32 32.5v14h186v-14q-24 -8 -32 -32.5t-8 -80.5v-505q0 -50 50 -50h82q78 0 121 23.5t72 86.5l13 -2l-8 -126h-476zM319 656q0 21 11.5 36t34.5 15q47 0 47 -62q0 -50 -46 -168l-14 4q9 27 9 47q0 28 -21 67.5t-21 60.5z
" />
    <glyph glyph-name="lcaron" unicode="&#x13e;" horiz-adv-x="246" 
d="M30 0v14q24 8 32 32.5t8 80.5v530q0 41 -9 55.5t-31 24.5v14l132 58l10 -8v-674q0 -56 8 -80.5t32 -32.5v-14h-182zM235 756q0 21 11.5 36t34.5 15q47 0 47 -62q0 -50 -46 -168l-14 4q9 27 9 47q0 28 -21 67.5t-21 60.5z" />
    <glyph glyph-name="Lslash" unicode="&#x141;" horiz-adv-x="549" 
d="M47 0v14q24 8 32 32.5t8 80.5v193l-51 -23l-6 14l57 26v236q0 56 -8 80.5t-32 32.5v14h186v-14q-24 -8 -32 -32.5t-8 -80.5v-189l89 40l6 -14l-95 -43v-299q0 -50 50 -50h82q78 0 121 23.5t72 86.5l13 -2l-8 -126h-476z" />
    <glyph glyph-name="lslash" unicode="&#x142;" horiz-adv-x="246" 
d="M30 0v14q24 8 32 32.5t8 80.5v214l-75 -34l-6 14l81 36v300q0 41 -9 55.5t-31 24.5v14l132 58l10 -8v-398l69 31l6 -14l-75 -34v-259q0 -56 8 -80.5t32 -32.5v-14h-182z" />
    <glyph glyph-name="Nacute" unicode="&#x143;" horiz-adv-x="662" 
d="M574 -8l-469 592v-397q0 -88 17.5 -124t58.5 -49v-14h-134v14q24 8 32 32.5t8 80.5v446q0 56 -10.5 80.5t-41.5 32.5v14h113l420 -526v339q0 88 -17.5 124t-58.5 49v14h135v-14q-24 -8 -32 -32.5t-8 -80.5v-581h-13zM210 756l101 87q32 28 50 28q19 0 41 -12.5t22 -23.5
q0 -23 -38 -34l-172 -52z" />
    <glyph glyph-name="nacute" unicode="&#x144;" horiz-adv-x="589" 
d="M28 0v14q24 8 32 32.5t8 80.5v230q0 41 -9 55.5t-31 24.5v14l132 58l10 -8v-84q110 90 205 90q72 0 113 -40.5t41 -124.5v-215q0 -56 8 -80.5t32 -32.5v-14h-182v14q24 8 32 32.5t8 80.5v197q0 68 -29 105.5t-84 37.5q-62 0 -144 -67v-273q0 -56 8 -80.5t32 -32.5v-14
h-182zM200 586l101 107q27 28 50 28q19 0 41 -12.5t22 -23.5q0 -10 -7.5 -17t-30.5 -17l-172 -72z" />
    <glyph glyph-name="uni0145" unicode="&#x145;" horiz-adv-x="662" 
d="M574 -8l-469 592v-397q0 -88 17.5 -124t58.5 -49v-14h-134v14q24 8 32 32.5t8 80.5v446q0 56 -10.5 80.5t-41.5 32.5v14h113l420 -526v339q0 88 -17.5 124t-58.5 49v14h135v-14q-24 -8 -32 -32.5t-8 -80.5v-581h-13zM254 -255q65 36 70 109q-14 -4 -21 -4
q-20 0 -33.5 13.5t-13.5 33.5q0 24 14 39.5t38 15.5q27 0 43.5 -17.5t16.5 -52.5q0 -47 -34.5 -90.5t-74.5 -57.5z" />
    <glyph glyph-name="uni0146" unicode="&#x146;" horiz-adv-x="589" 
d="M28 0v14q24 8 32 32.5t8 80.5v230q0 41 -9 55.5t-31 24.5v14l132 58l10 -8v-84q110 90 205 90q72 0 113 -40.5t41 -124.5v-215q0 -56 8 -80.5t32 -32.5v-14h-182v14q24 8 32 32.5t8 80.5v197q0 68 -29 105.5t-84 37.5q-62 0 -144 -67v-273q0 -56 8 -80.5t32 -32.5v-14
h-182zM232 -255q65 36 70 109q-14 -4 -21 -4q-20 0 -33.5 13.5t-13.5 33.5q0 24 14 39.5t38 15.5q27 0 43.5 -17.5t16.5 -52.5q0 -47 -34.5 -90.5t-74.5 -57.5z" />
    <glyph glyph-name="Ncaron" unicode="&#x147;" horiz-adv-x="662" 
d="M574 -8l-469 592v-397q0 -88 17.5 -124t58.5 -49v-14h-134v14q24 8 32 32.5t8 80.5v446q0 56 -10.5 80.5t-41.5 32.5v14h113l420 -526v339q0 88 -17.5 124t-58.5 49v14h135v-14q-24 -8 -32 -32.5t-8 -80.5v-581h-13zM222 868l8 7l104 -46l110 46l9 -9l-116 -117h-6z" />
    <glyph glyph-name="ncaron" unicode="&#x148;" horiz-adv-x="589" 
d="M28 0v14q24 8 32 32.5t8 80.5v230q0 41 -9 55.5t-31 24.5v14l132 58l10 -8v-84q110 90 205 90q72 0 113 -40.5t41 -124.5v-215q0 -56 8 -80.5t32 -32.5v-14h-182v14q24 8 32 32.5t8 80.5v197q0 68 -29 105.5t-84 37.5q-62 0 -144 -67v-273q0 -56 8 -80.5t32 -32.5v-14
h-182zM150 713l8 7l126 -66l130 66l9 -9l-136 -137h-6z" />
    <glyph glyph-name="Omacron" unicode="&#x14c;" horiz-adv-x="820" 
d="M412 -10q-52 0 -102.5 13.5t-97 42.5t-81.5 70.5t-56 102.5t-21 134q0 151 100.5 253t257.5 102q65 0 127.5 -22.5t114.5 -65.5t83.5 -114t31.5 -159t-32 -158t-84 -112.5t-114 -64.5t-127 -22zM158 414q11 -156 99.5 -274.5t211.5 -118.5q108 0 157 70t42 177
q-8 108 -47.5 201.5t-108.5 153t-152 59.5q-101 0 -155.5 -73t-46.5 -195zM260 787l24 31q10 14 30 14h227l3 -4l-24 -31q-11 -14 -30 -14h-227z" />
    <glyph glyph-name="omacron" unicode="&#x14d;" horiz-adv-x="605" 
d="M298 -10q-108 0 -187.5 64t-79.5 183q0 118 80 194t187 76q66 0 124.5 -24.5t100 -83t41.5 -141.5q0 -61 -25 -113.5t-64 -85t-85.5 -51t-91.5 -18.5zM131 312q0 -63 22 -130t70 -118.5t110 -51.5q68 0 99 49t31 121q0 66 -26 138t-77.5 122.5t-112.5 44.5t-88.5 -54.5
t-27.5 -120.5zM159 587l24 31q11 14 30 14h227l3 -4l-24 -31q-11 -14 -30 -14h-227z" />
    <glyph glyph-name="Ohungarumlaut" unicode="&#x150;" horiz-adv-x="820" 
d="M412 -10q-52 0 -102.5 13.5t-97 42.5t-81.5 70.5t-56 102.5t-21 134q0 151 100.5 253t257.5 102q65 0 127.5 -22.5t114.5 -65.5t83.5 -114t31.5 -159t-32 -158t-84 -112.5t-114 -64.5t-127 -22zM158 414q11 -156 99.5 -274.5t211.5 -118.5q108 0 157 70t42 177
q-8 108 -47.5 201.5t-108.5 153t-152 59.5q-101 0 -155.5 -73t-46.5 -195zM294 751l82 89q16 17 26 22.5t27 5.5q40 0 40 -18q0 -16 -38 -36l-132 -68zM434 751l82 89q16 17 25 22.5t25 5.5q43 0 43 -18q0 -16 -38 -36l-132 -68z" />
    <glyph glyph-name="ohungarumlaut" unicode="&#x151;" horiz-adv-x="605" 
d="M298 -10q-108 0 -187.5 64t-79.5 183q0 118 80 194t187 76q66 0 124.5 -24.5t100 -83t41.5 -141.5q0 -61 -25 -113.5t-64 -85t-85.5 -51t-91.5 -18.5zM131 312q0 -63 22 -130t70 -118.5t110 -51.5q68 0 99 49t31 121q0 66 -26 138t-77.5 122.5t-112.5 44.5t-88.5 -54.5
t-27.5 -120.5zM189 579l76 114q12 19 21 23.5t29 4.5q43 0 43 -18q0 -12 -38 -39l-122 -85h-9zM329 579l76 114q12 19 21 23.5t29 4.5q43 0 43 -18q0 -12 -38 -39l-122 -85h-9z" />
    <glyph glyph-name="OE" unicode="&#x152;" horiz-adv-x="1030" 
d="M411 -10q-68 0 -130.5 22t-114 64.5t-82 111.5t-30.5 155q0 87 33 158t87.5 115t121 67.5t138.5 23.5q81 0 145 -7h395l12 -112l-13 -3q-23 52 -68 74.5t-128 22.5h-139v-291h94q88 0 124 17.5t49 58.5h14v-170h-14q-13 41 -49 58.5t-124 17.5h-94v-305q0 -50 50 -50h101
q78 0 121 23.5t72 86.5h13l-7 -128h-452q-56 -10 -125 -10zM156 423q0 -69 18 -139t52 -132.5t91.5 -102t128.5 -39.5q38 0 64 21t26 50v505q0 46 -42 70.5t-98 24.5q-117 0 -178.5 -72.5t-61.5 -185.5z" />
    <glyph glyph-name="oe" unicode="&#x153;" horiz-adv-x="970" 
d="M292 -10q-64 0 -122 26t-98.5 83t-40.5 135q0 125 86 199t196 74q67 0 125 -30.5t90 -85.5q37 55 95 85.5t120 30.5q95 0 151 -54.5t56 -125.5h-379q-2 -22 -2 -32q0 -99 56.5 -161.5t150.5 -62.5q102 0 173 79l9 -10q-99 -150 -241 -150q-60 0 -116 29t-88 84
q-38 -56 -98 -84.5t-123 -28.5zM122 321q0 -123 66 -212.5t153 -89.5q64 0 101 45t37 124q0 115 -62 205t-149 90q-61 0 -103.5 -44t-42.5 -118zM572 341h277q-10 63 -48 105t-89 43q-60 1 -95 -41.5t-45 -106.5z" />
    <glyph glyph-name="Racute" unicode="&#x154;" horiz-adv-x="618" 
d="M556 -7q-21 0 -36.5 3.5t-29.5 16t-22 21t-21.5 35.5t-19 40.5t-22.5 54.5q-8 20 -22 55.5t-19.5 48t-16 34t-17.5 27.5t-19.5 16t-26 12t-32.5 2h-59v-232q0 -56 8 -80.5t32 -32.5v-14h-186v14q24 8 32 32.5t8 80.5v446q0 56 -8 80.5t-32 32.5v14h210q78 0 132.5 -13
t81.5 -37t38 -50.5t11 -59.5q0 -71 -49.5 -118t-146.5 -59q42 -5 69 -15.5t48.5 -37.5t34.5 -54t36 -86q41 -104 57.5 -130.5t43.5 -26.5q10 0 15 1v-14q-27 -7 -72 -7zM132 756l101 87q31 28 50 28t41 -12.5t22 -23.5q0 -23 -38 -34l-172 -52zM193 375h64q81 0 119 39
t38 102q0 68 -45 118t-132 50q-21 0 -44 -3v-306z" />
    <glyph glyph-name="racute" unicode="&#x155;" horiz-adv-x="451" 
d="M28 0v14q24 8 32 32.5t8 80.5v230q0 41 -9 55.5t-31 24.5v14l132 58l10 -8v-121q23 54 73 88q55 39 123 39q64 0 64 -30q0 -21 -18.5 -43t-49.5 -22q-34 0 -130 30q-22 -19 -41 -50.5t-21 -65.5v-199q0 -56 8 -80.5t32 -32.5v-14h-182zM106 586l101 107q27 28 50 28
q19 0 41 -12.5t22 -23.5q0 -10 -7.5 -17t-30.5 -17l-172 -72z" />
    <glyph glyph-name="uni0156" unicode="&#x156;" horiz-adv-x="618" 
d="M556 -7q-21 0 -36.5 3.5t-29.5 16t-22 21t-21.5 35.5t-19 40.5t-22.5 54.5q-8 20 -22 55.5t-19.5 48t-16 34t-17.5 27.5t-19.5 16t-26 12t-32.5 2h-59v-232q0 -56 8 -80.5t32 -32.5v-14h-186v14q24 8 32 32.5t8 80.5v446q0 56 -8 80.5t-32 32.5v14h210q78 0 132.5 -13
t81.5 -37t38 -50.5t11 -59.5q0 -71 -49.5 -118t-146.5 -59q42 -5 69 -15.5t48.5 -37.5t34.5 -54t36 -86q41 -104 57.5 -130.5t43.5 -26.5q10 0 15 1v-14q-27 -7 -72 -7zM193 375h64q81 0 119 39t38 102q0 68 -45 118t-132 50q-21 0 -44 -3v-306zM224 -255q65 36 70 109
q-14 -4 -21 -4q-20 0 -33.5 13.5t-13.5 33.5q0 24 14 39.5t38 15.5q27 0 43.5 -17.5t16.5 -52.5q0 -47 -34.5 -90.5t-74.5 -57.5z" />
    <glyph glyph-name="uni0157" unicode="&#x157;" horiz-adv-x="451" 
d="M28 0v14q24 8 32 32.5t8 80.5v230q0 41 -9 55.5t-31 24.5v14l132 58l10 -8v-121q23 54 73 88q55 39 123 39q64 0 64 -30q0 -21 -18.5 -43t-49.5 -22q-34 0 -130 30q-22 -19 -41 -50.5t-21 -65.5v-199q0 -56 8 -80.5t32 -32.5v-14h-182zM58 -255q65 36 70 109
q-14 -4 -21 -4q-20 0 -33.5 13.5t-13.5 33.5q0 24 14 39.5t38 15.5q27 0 43.5 -17.5t16.5 -52.5q0 -47 -34.5 -90.5t-74.5 -57.5z" />
    <glyph glyph-name="Rcaron" unicode="&#x158;" horiz-adv-x="618" 
d="M556 -7q-21 0 -36.5 3.5t-29.5 16t-22 21t-21.5 35.5t-19 40.5t-22.5 54.5q-8 20 -22 55.5t-19.5 48t-16 34t-17.5 27.5t-19.5 16t-26 12t-32.5 2h-59v-232q0 -56 8 -80.5t32 -32.5v-14h-186v14q24 8 32 32.5t8 80.5v446q0 56 -8 80.5t-32 32.5v14h210q78 0 132.5 -13
t81.5 -37t38 -50.5t11 -59.5q0 -71 -49.5 -118t-146.5 -59q42 -5 69 -15.5t48.5 -37.5t34.5 -54t36 -86q41 -104 57.5 -130.5t43.5 -26.5q10 0 15 1v-14q-27 -7 -72 -7zM144 868l8 7l104 -46l110 46l9 -9l-116 -117h-6zM193 375h64q81 0 119 39t38 102q0 68 -45 118t-132 50
q-21 0 -44 -3v-306z" />
    <glyph glyph-name="rcaron" unicode="&#x159;" horiz-adv-x="451" 
d="M28 0v14q24 8 32 32.5t8 80.5v230q0 41 -9 55.5t-31 24.5v14l132 58l10 -8v-121q23 54 73 88q55 39 123 39q64 0 64 -30q0 -21 -18.5 -43t-49.5 -22q-34 0 -130 30q-22 -19 -41 -50.5t-21 -65.5v-199q0 -56 8 -80.5t32 -32.5v-14h-182zM56 713l8 7l126 -66l130 66l9 -9
l-136 -137h-6z" />
    <glyph glyph-name="Sacute" unicode="&#x15a;" horiz-adv-x="553" 
d="M286 -10q-74 0 -140 20.5t-107 50.5l-4 150l13 2q33 -91 101 -146.5t163 -55.5q55 0 94 33.5t39 92.5q0 27 -14.5 51.5t-30 39.5t-50.5 33.5t-49 24.5t-53 22q-8 3 -12 5q-42 18 -60.5 26t-49 26.5t-44 35.5t-24.5 44t-11 61q0 93 69.5 147t187.5 54q108 0 192 -42
l4 -130l-11 -4q-30 76 -89.5 117.5t-133.5 41.5q-62 0 -102.5 -34t-40.5 -92q0 -30 15 -54.5t42 -42.5t53 -30t60 -26q7 -3 11 -4q31 -12 45.5 -17.5t43 -18.5t43 -23t35 -26.5t31 -32.5t18 -38.5t7.5 -47.5q0 -97 -73.5 -155t-167.5 -58zM184 746l101 87q31 28 50 28
t41 -12.5t22 -23.5q0 -23 -38 -34l-172 -52z" />
    <glyph glyph-name="sacute" unicode="&#x15b;" horiz-adv-x="448" 
d="M221 -8q-109 0 -180 47l-10 131l10 2q33 -75 86 -119t118 -45q45 -1 73.5 24.5t28.5 61.5q0 45 -32.5 69t-105.5 47q-90 27 -130 58t-40 93t49.5 104t145.5 42q91 0 152 -25l5 -110l-12 -2q-26 55 -71 89t-98 34q-47 0 -75.5 -21.5t-28.5 -54.5q0 -39 32.5 -62t107.5 -48
q87 -29 115 -49q53 -37 53 -104q0 -66 -46.5 -114t-146.5 -48zM95 586l101 107q27 28 50 28q19 0 41 -12.5t22 -23.5q0 -10 -7.5 -17t-30.5 -17l-172 -72z" />
    <glyph glyph-name="Scedilla" unicode="&#x15e;" horiz-adv-x="553" 
d="M286 -10h-5l-31 -42q59 11 89 -8.5t30 -53.5q0 -45 -45 -83t-103 -38q-33 0 -54 12.5t-21 27.5q0 11 14 20.5t28 9.5t40.5 -20t50.5 -20q23 0 38 15.5t15 35.5q0 23 -23 39.5t-68 16.5q-8 0 -39 -7l-5 6l68 89q-137 6 -226 71l-4 150l13 2q33 -91 101 -146.5t163 -55.5
q55 0 94 33.5t39 92.5q0 27 -14.5 51.5t-30 39.5t-50.5 33.5t-49 24.5t-53 22q-8 3 -12 5q-42 18 -60.5 26t-49 26.5t-44 35.5t-24.5 44t-11 61q0 93 69.5 147t187.5 54q108 0 192 -42l4 -130l-11 -4q-30 76 -89.5 117.5t-133.5 41.5q-62 0 -102.5 -34t-40.5 -92
q0 -30 15 -54.5t42 -42.5t53 -30t60 -26q7 -3 11 -4q31 -12 45.5 -17.5t43 -18.5t43 -23t35 -26.5t31 -32.5t18 -38.5t7.5 -47.5q0 -97 -73.5 -155t-167.5 -58z" />
    <glyph glyph-name="scedilla" unicode="&#x15f;" horiz-adv-x="448" 
d="M221 -8q-12 0 -34 2l-34 -46q59 11 89 -8.5t30 -53.5q0 -45 -45 -83t-103 -38q-33 0 -54 12.5t-21 27.5q0 11 14 20.5t28 9.5q15 0 41 -20t50 -20q23 0 38 15.5t15 35.5q0 23 -23 39.5t-68 16.5q-8 0 -39 -7l-5 6l72 94q-80 10 -131 44l-10 131l10 2q33 -75 86 -119
t118 -45q45 -1 73.5 24.5t28.5 61.5q0 45 -32.5 69t-105.5 47q-90 27 -130 58t-40 93t49.5 104t145.5 42q91 0 152 -25l5 -110l-12 -2q-26 55 -71 89t-98 34q-47 0 -75.5 -21.5t-28.5 -54.5q0 -39 32.5 -62t107.5 -48q87 -29 115 -49q53 -37 53 -104q0 -66 -46.5 -114
t-146.5 -48z" />
    <glyph glyph-name="Scaron" unicode="&#x160;" horiz-adv-x="553" 
d="M286 -10q-74 0 -140 20.5t-107 50.5l-4 150l13 2q33 -91 101 -146.5t163 -55.5q55 0 94 33.5t39 92.5q0 27 -14.5 51.5t-30 39.5t-50.5 33.5t-49 24.5t-53 22q-8 3 -12 5q-42 18 -60.5 26t-49 26.5t-44 35.5t-24.5 44t-11 61q0 93 69.5 147t187.5 54q108 0 192 -42
l4 -130l-11 -4q-30 76 -89.5 117.5t-133.5 41.5q-62 0 -102.5 -34t-40.5 -92q0 -30 15 -54.5t42 -42.5t53 -30t60 -26q7 -3 11 -4q31 -12 45.5 -17.5t43 -18.5t43 -23t35 -26.5t31 -32.5t18 -38.5t7.5 -47.5q0 -97 -73.5 -155t-167.5 -58zM156 858l8 7l104 -46l110 46l9 -9
l-116 -117h-6z" />
    <glyph glyph-name="scaron" unicode="&#x161;" horiz-adv-x="448" 
d="M221 -8q-109 0 -180 47l-10 131l10 2q33 -75 86 -119t118 -45q45 -1 73.5 24.5t28.5 61.5q0 45 -32.5 69t-105.5 47q-90 27 -130 58t-40 93t49.5 104t145.5 42q91 0 152 -25l5 -110l-12 -2q-26 55 -71 89t-98 34q-47 0 -75.5 -21.5t-28.5 -54.5q0 -39 32.5 -62t107.5 -48
q87 -29 115 -49q53 -37 53 -104q0 -66 -46.5 -114t-146.5 -48zM45 713l8 7l126 -66l130 66l9 -9l-136 -137h-6z" />
    <glyph glyph-name="uni0162" unicode="&#x162;" horiz-adv-x="560" 
d="M188 0v14q24 8 32 32.5t8 80.5v555h-31q-68 0 -106 -23t-65 -82l-12 2l6 121h521l6 -121l-12 -2q-27 59 -65 82t-106 23h-29v-555q0 -56 8 -80.5t32 -32.5v-14h-83l-39 -52q59 11 89 -8.5t30 -53.5q0 -45 -45 -83t-103 -38q-33 0 -54 12.5t-21 27.5q0 11 14 20.5t28 9.5
q15 0 41 -20t50 -20q23 0 38 15.5t15 35.5q0 23 -23 39.5t-68 16.5q-8 0 -39 -7l-5 6l76 99h-88z" />
    <glyph glyph-name="uni0163" unicode="&#x163;" horiz-adv-x="356" 
d="M188 -10q-9 0 -21 2l-33 -44q59 11 89 -8.5t30 -53.5q0 -45 -45 -83t-103 -38q-33 0 -54 12.5t-21 27.5q0 11 14 20.5t28 9.5q15 0 41.5 -20t49.5 -20t38 15.5t15 35.5q0 23 -23 39.5t-68 16.5q-8 0 -39 -7l-5 6l72 94q-69 21 -69 146v343h-64v16l150 132h16v-132h155
l-4 -16h-151v-344q0 -89 67 -89q49 0 89 50l10 -10q-88 -101 -164 -101z" />
    <glyph glyph-name="Tcaron" unicode="&#x164;" horiz-adv-x="560" 
d="M188 0v14q24 8 32 32.5t8 80.5v555h-31q-68 0 -106 -23t-65 -82l-12 2l6 121h521l6 -121l-12 -2q-27 59 -65 82t-106 23h-29v-555q0 -56 8 -80.5t32 -32.5v-14h-187zM167 868l8 7l104 -46l110 46l9 -9l-116 -117h-6z" />
    <glyph glyph-name="tcaron" unicode="&#x165;" horiz-adv-x="356" 
d="M188 -10q-52 0 -78 36t-26 115v343h-64v16l150 132h16v-132h155l-4 -16h-151v-344q0 -89 67 -89q49 0 89 50l10 -10q-88 -101 -164 -101zM377 756q0 21 11.5 36t34.5 15q47 0 47 -62q0 -50 -46 -168l-14 4q9 27 9 47q0 28 -21 67.5t-21 60.5z" />
    <glyph glyph-name="Umacron" unicode="&#x16a;" horiz-adv-x="687" 
d="M369 -10q-57 0 -106.5 14.5t-92.5 45.5t-68 88t-25 134v301q0 56 -8 80.5t-32 32.5v14h186v-14q-24 -8 -32 -32.5t-8 -80.5v-309q0 -250 226 -250q34 0 66 13.5t61.5 41.5t47.5 80t18 121v243q0 88 -17.5 124t-58.5 49v14h134v-14q-24 -8 -32 -32.5t-8 -80.5v-301
q0 -144 -67.5 -213t-183.5 -69zM230 787l24 31q10 14 30 14h227l3 -4l-24 -31q-11 -14 -30 -14h-227z" />
    <glyph glyph-name="umacron" unicode="&#x16b;" horiz-adv-x="571" 
d="M210 -10q-78 0 -114 47t-36 140v180q0 41 -9 55.5t-31 24.5v14l132 58l10 -8v-311q0 -85 19.5 -122.5t74.5 -37.5q67 0 143 76v251q0 41 -9 55.5t-31 24.5v14l132 58l10 -8v-374q0 -56 8 -80.5t32 -32.5v-14h-102q-40 0 -40 40v45q-98 -95 -189 -95zM166 587l24 31
q10 14 30 14h227l3 -4l-24 -31q-10 -14 -30 -14h-227z" />
    <glyph glyph-name="Uring" unicode="&#x16e;" horiz-adv-x="687" 
d="M369 -10q-57 0 -106.5 14.5t-92.5 45.5t-68 88t-25 134v301q0 56 -8 80.5t-32 32.5v14h186v-14q-24 -8 -32 -32.5t-8 -80.5v-309q0 -250 226 -250q34 0 66 13.5t61.5 41.5t47.5 80t18 121v243q0 88 -17.5 124t-58.5 49v14h134v-14q-24 -8 -32 -32.5t-8 -80.5v-301
q0 -144 -67.5 -213t-183.5 -69zM302 815q0 30 19 50t49 20q33 0 51.5 -19t18.5 -49q0 -29 -20 -49t-50 -20t-49 19.5t-19 47.5zM314 815q0 -25 16 -41t40 -16q25 0 41.5 17t16.5 42t-16 41.5t-42 16.5q-24 0 -40 -16.5t-16 -43.5z" />
    <glyph glyph-name="uring" unicode="&#x16f;" horiz-adv-x="571" 
d="M210 -10q-78 0 -114 47t-36 140v180q0 41 -9 55.5t-31 24.5v14l132 58l10 -8v-311q0 -85 19.5 -122.5t74.5 -37.5q67 0 143 76v251q0 41 -9 55.5t-31 24.5v14l132 58l10 -8v-374q0 -56 8 -80.5t32 -32.5v-14h-102q-40 0 -40 40v45q-98 -95 -189 -95zM238 615q0 30 19 50
t49 20q33 0 51.5 -19t18.5 -49q0 -29 -20 -49t-50 -20t-49 19.5t-19 47.5zM250 615q0 -25 16 -41t40 -16q25 0 41.5 17t16.5 42t-16 41.5t-42 16.5q-24 0 -40 -16.5t-16 -43.5z" />
    <glyph glyph-name="Uhungarumlaut" unicode="&#x170;" horiz-adv-x="687" 
d="M369 -10q-57 0 -106.5 14.5t-92.5 45.5t-68 88t-25 134v301q0 56 -8 80.5t-32 32.5v14h186v-14q-24 -8 -32 -32.5t-8 -80.5v-309q0 -250 226 -250q34 0 66 13.5t61.5 41.5t47.5 80t18 121v243q0 88 -17.5 124t-58.5 49v14h134v-14q-24 -8 -32 -32.5t-8 -80.5v-301
q0 -144 -67.5 -213t-183.5 -69zM264 751l82 89q16 17 26 22.5t27 5.5q40 0 40 -18q0 -16 -38 -36l-132 -68zM404 751l82 89q16 17 25 22.5t25 5.5q43 0 43 -18q0 -16 -38 -36l-132 -68z" />
    <glyph glyph-name="uhungarumlaut" unicode="&#x171;" horiz-adv-x="571" 
d="M210 -10q-78 0 -114 47t-36 140v180q0 41 -9 55.5t-31 24.5v14l132 58l10 -8v-311q0 -85 19.5 -122.5t74.5 -37.5q67 0 143 76v251q0 41 -9 55.5t-31 24.5v14l132 58l10 -8v-374q0 -56 8 -80.5t32 -32.5v-14h-102q-40 0 -40 40v45q-98 -95 -189 -95zM196 579l76 114
q12 19 21 23.5t29 4.5q43 0 43 -18q0 -12 -38 -39l-122 -85h-9zM336 579l76 114q12 19 21 23.5t29 4.5q43 0 43 -18q0 -12 -38 -39l-122 -85h-9z" />
    <glyph glyph-name="Uogonek" unicode="&#x172;" horiz-adv-x="687" 
d="M369 -10q-57 0 -106.5 14.5t-92.5 45.5t-68 88t-25 134v301q0 56 -8 80.5t-32 32.5v14h186v-14q-24 -8 -32 -32.5t-8 -80.5v-309q0 -250 226 -250q34 0 66 13.5t61.5 41.5t47.5 80t18 121v243q0 88 -17.5 124t-58.5 49v14h134v-14q-24 -8 -32 -32.5t-8 -80.5v-301
q0 -126 -52.5 -194.5t-144.5 -83.5q-43 -44 -43 -78q0 -22 16.5 -34t41.5 -12q26 0 51 16l5 -4l-36 -63q-17 -12 -46 -12q-33 0 -56 19.5t-23 50.5q0 50 69 114q-11 -1 -33 -1z" />
    <glyph glyph-name="uogonek" unicode="&#x173;" horiz-adv-x="571" 
d="M210 -10q-78 0 -114 47t-36 140v180q0 41 -9 55.5t-31 24.5v14l132 58l10 -8v-311q0 -85 19.5 -122.5t74.5 -37.5q67 0 143 76v251q0 41 -9 55.5t-31 24.5v14l132 58l10 -8v-374q0 -56 8 -80.5t32 -32.5v-14h-32q-49 -48 -49 -84q0 -22 16.5 -34t41.5 -12q26 0 51 16
l5 -4l-36 -63q-17 -12 -46 -12q-33 0 -56 19.5t-23 50.5q0 52 78 123h-52q-40 0 -40 40v45q-98 -95 -189 -95z" />
    <glyph glyph-name="Wcircumflex" unicode="&#x174;" horiz-adv-x="933" 
d="M365 582q-34 84 -76 104v14h181v-14q-25 -8 -17 -38q3 -11 25 -66l49 -119l44 118q35 93 -17 105v14h116v-14q-47 -17 -81 -105l-53 -142l128 -311l165 453q35 93 -17 105v14h116v-14q-48 -17 -79 -105l-211 -581h-36l-132 323l-131 -323h-38l-222 581q-31 85 -73 105v14
h181v-14q-15 -5 -18.5 -15.5t2 -28.5t16.5 -47q4 -9 6 -14l175 -455l92 223zM319 756l109 119h6l116 -117l-9 -9l-110 46l-104 -46z" />
    <glyph glyph-name="wcircumflex" unicode="&#x175;" horiz-adv-x="708" 
d="M45 378q-27 95 -57 108v14h171v-14q-12 -4 -17.5 -10.5t-4.5 -22.5t4 -29.5t12 -45.5l76 -268l134 390h61l132 -386l79 264q28 96 -25 108v14h107v-14q-21 -7 -35.5 -31t-29.5 -77l-114 -378h-51l-139 409l-142 -409h-51zM215 581l131 139h6l136 -137l-9 -9l-130 66
l-126 -66z" />
    <glyph glyph-name="Ycircumflex" unicode="&#x176;" horiz-adv-x="563" 
d="M184 0v14q24 8 32 32.5t8 80.5l-1 194l-148 268q-40 73 -89 97v14h187v-14q-18 -12 -16 -23t24 -49q9 -16 14 -25l132 -238l135 238q26 47 23 69t-34 28v14h129v-14q-55 -20 -98 -97l-151 -269v-193q0 -56 8 -80.5t32 -32.5v-14h-187zM166 756l109 119h6l116 -117l-9 -9
l-110 46l-104 -46z" />
    <glyph glyph-name="ycircumflex" unicode="&#x177;" horiz-adv-x="505" 
d="M36 -193q-31 -1 -52 8t-21 24q0 18 21 40.5t53 22.5t136 -18q35 38 70 111l-168 388q-34 82 -78 103v14h177v-14q-15 -5 -17.5 -15t2.5 -26t18 -44q5 -11 8 -17l114 -260l112 259q21 50 18 73.5t-29 29.5v14h114v-14q-50 -18 -87 -102l-153 -354q-54 -125 -109.5 -173
t-128.5 -50zM100 581l131 139h6l136 -137l-9 -9l-130 66l-126 -66z" />
    <glyph glyph-name="Ydieresis" unicode="&#x178;" horiz-adv-x="563" 
d="M184 0v14q24 8 32 32.5t8 80.5l-1 194l-148 268q-40 73 -89 97v14h187v-14q-18 -12 -16 -23t24 -49q9 -16 14 -25l132 -238l135 238q26 47 23 69t-34 28v14h129v-14q-55 -20 -98 -97l-151 -269v-193q0 -56 8 -80.5t32 -32.5v-14h-187zM142 816q0 22 15.5 37t37.5 15
q24 0 39.5 -15.5t15.5 -38.5q0 -22 -16 -37.5t-39 -15.5t-38 15.5t-15 39.5zM312 816q0 22 16 37t39 15q22 0 37.5 -16t15.5 -38t-15 -37.5t-38 -15.5t-39 15.5t-16 39.5z" />
    <glyph glyph-name="Zacute" unicode="&#x179;" horiz-adv-x="524" 
d="M16 0v15l354 667h-132q-78 0 -121.5 -29t-72.5 -107h-13l19 154h446v-15l-359 -667h159q78 0 121.5 29t72.5 107h13l-19 -154h-468zM135 756l101 87q32 28 50 28q19 0 41 -12.5t22 -23.5q0 -23 -38 -34l-172 -52z" />
    <glyph glyph-name="zacute" unicode="&#x17a;" horiz-adv-x="424" 
d="M22 0v11l251 473h-92q-50 0 -82 -25.5t-57 -90.5l-12 2l19 130h340v-11l-249 -473h109q122 0 139 141h11l-4 -157h-373zM124 586l101 107q27 28 50 28q19 0 41 -12.5t22 -23.5q0 -10 -7.5 -17t-30.5 -17l-172 -72z" />
    <glyph glyph-name="Zdotaccent" unicode="&#x17b;" horiz-adv-x="524" 
d="M16 0v15l354 667h-132q-78 0 -121.5 -29t-72.5 -107h-13l19 154h446v-15l-359 -667h159q78 0 121.5 29t72.5 107h13l-19 -154h-468zM194 811q0 29 19.5 49t48.5 20q30 0 49 -19.5t19 -49.5q0 -29 -20 -48.5t-48 -19.5t-48 19.5t-20 48.5z" />
    <glyph glyph-name="zdotaccent" unicode="&#x17c;" horiz-adv-x="424" 
d="M22 0v11l251 473h-92q-50 0 -82 -25.5t-57 -90.5l-12 2l19 130h340v-11l-249 -473h109q122 0 139 141h11l-4 -157h-373zM143 611q0 29 19.5 49t48.5 20q30 0 49 -19.5t19 -49.5q0 -29 -19.5 -48.5t-48.5 -19.5t-48.5 19.5t-19.5 48.5z" />
    <glyph glyph-name="Zcaron" unicode="&#x17d;" horiz-adv-x="524" 
d="M16 0v15l354 667h-132q-78 0 -121.5 -29t-72.5 -107h-13l19 154h446v-15l-359 -667h159q78 0 121.5 29t72.5 107h13l-19 -154h-468zM147 868l8 7l104 -46l110 46l9 -9l-116 -117h-6z" />
    <glyph glyph-name="zcaron" unicode="&#x17e;" horiz-adv-x="424" 
d="M22 0v11l251 473h-92q-50 0 -82 -25.5t-57 -90.5l-12 2l19 130h340v-11l-249 -473h109q122 0 139 141h11l-4 -157h-373zM74 713l8 7l126 -66l130 66l9 -9l-136 -137h-6z" />
    <glyph glyph-name="uni018F" unicode="&#x18f;" horiz-adv-x="771" 
d="M330 -7q-76 0 -131.5 24t-84.5 63.5t-42 80t-13 81.5h551q6 31 6 65q1 59 -16 114t-51.5 102t-93.5 75t-136 28q-27 0 -56 -5t-66.5 -17.5t-72 -41t-57.5 -68.5l-13 6q47 98 132 153t192 55q141 0 241.5 -94t100.5 -246q0 -83 -33.5 -155t-88.5 -119.5t-125 -74
t-143 -26.5zM170 227q18 -213 202 -213q95 0 155 59t80 154h-437z" />
    <glyph glyph-name="uni0218" unicode="&#x218;" horiz-adv-x="553" 
d="M286 -10q-74 0 -140 20.5t-107 50.5l-4 150l13 2q33 -91 101 -146.5t163 -55.5q55 0 94 33.5t39 92.5q0 27 -14.5 51.5t-30 39.5t-50.5 33.5t-49 24.5t-53 22q-8 3 -12 5q-42 18 -60.5 26t-49 26.5t-44 35.5t-24.5 44t-11 61q0 93 69.5 147t187.5 54q108 0 192 -42
l4 -130l-11 -4q-30 76 -89.5 117.5t-133.5 41.5q-62 0 -102.5 -34t-40.5 -92q0 -30 15 -54.5t42 -42.5t53 -30t60 -26q7 -3 11 -4q31 -12 45.5 -17.5t43 -18.5t43 -23t35 -26.5t31 -32.5t18 -38.5t7.5 -47.5q0 -97 -73.5 -155t-167.5 -58zM224 -255q65 36 70 109
q-14 -4 -21 -4q-20 0 -33.5 13.5t-13.5 33.5q0 24 14 39.5t38 15.5q27 0 43.5 -17.5t16.5 -52.5q0 -47 -34.5 -90.5t-74.5 -57.5z" />
    <glyph glyph-name="uni0219" unicode="&#x219;" horiz-adv-x="448" 
d="M221 -8q-109 0 -180 47l-10 131l10 2q33 -75 86 -119t118 -45q45 -1 73.5 24.5t28.5 61.5q0 45 -32.5 69t-105.5 47q-90 27 -130 58t-40 93t49.5 104t145.5 42q91 0 152 -25l5 -110l-12 -2q-26 55 -71 89t-98 34q-47 0 -75.5 -21.5t-28.5 -54.5q0 -39 32.5 -62t107.5 -48
q87 -29 115 -49q53 -37 53 -104q0 -66 -46.5 -114t-146.5 -48zM127 -255q65 36 70 109q-14 -4 -21 -4q-20 0 -33.5 13.5t-13.5 33.5q0 24 14 39.5t38 15.5q27 0 43.5 -17.5t16.5 -52.5q0 -47 -34.5 -90.5t-74.5 -57.5z" />
    <glyph glyph-name="uni021A" unicode="&#x21a;" horiz-adv-x="560" 
d="M188 0v14q24 8 32 32.5t8 80.5v555h-31q-68 0 -106 -23t-65 -82l-12 2l6 121h521l6 -121l-12 -2q-27 59 -65 82t-106 23h-29v-555q0 -56 8 -80.5t32 -32.5v-14h-187zM227 -255q65 36 70 109q-14 -4 -21 -4q-20 0 -33.5 13.5t-13.5 33.5q0 24 14 39.5t38 15.5
q27 0 43.5 -17.5t16.5 -52.5q0 -47 -34.5 -90.5t-74.5 -57.5z" />
    <glyph glyph-name="uni021B" unicode="&#x21b;" horiz-adv-x="356" 
d="M188 -10q-52 0 -78 36t-26 115v343h-64v16l150 132h16v-132h155l-4 -16h-151v-344q0 -89 67 -89q49 0 89 50l10 -10q-88 -101 -164 -101zM108 -255q65 36 70 109q-14 -4 -21 -4q-20 0 -33.5 13.5t-13.5 33.5q0 24 14 39.5t38 15.5q27 0 43.5 -17.5t16.5 -52.5
q0 -47 -34.5 -90.5t-74.5 -57.5z" />
    <glyph glyph-name="uni0237" unicode="&#x237;" horiz-adv-x="243" 
d="M-97 -278q-63 0 -63 28q0 18 19 39.5t44 21.5q26 0 131 -21q31 24 38 55t7 105v16v391q0 41 -9 55.5t-31 24.5v14l132 58l10 -8v-458q0 -67 -40 -142t-106 -127t-132 -52z" />
    <glyph glyph-name="uni0259" unicode="&#x259;" horiz-adv-x="554" 
d="M250 -9q-95 0 -151 54.5t-56 125.5h381q3 21 3 41q0 99 -54 159.5t-146 60.5q-108 0 -183 -84l-9 10q40 61 105.5 105.5t145.5 44.5q93 0 160 -63t67 -178q0 -122 -80 -199t-183 -77zM144 157q10 -63 48 -105t89 -43q58 -1 93.5 41.5t47.5 106.5h-278z" />
    <glyph glyph-name="gravecomb" unicode="&#x300;" 
d="M8 651q-23 10 -30.5 17t-7.5 17q0 11 22 23.5t41 12.5q23 0 50 -28l101 -107l-4 -7z" />
    <glyph glyph-name="acutecomb" unicode="&#x301;" 
d="M186 651l-172 -72l-4 7l101 107q27 28 50 28q19 0 41 -12.5t22 -23.5q0 -10 -7.5 -17t-30.5 -17z" />
    <glyph glyph-name="uni0302" unicode="&#x302;" 
d="M-11 574l-8 7l131 139h6l136 -137l-9 -9l-130 66z" />
    <glyph glyph-name="tildecomb" unicode="&#x303;" 
d="M26 555q41 109 101 109q21 0 76.5 -20t74.5 -20t30.5 11.5t23.5 43.5l10 -3q-38 -120 -103 -120q-33 0 -79.5 20.5t-72.5 20.5q-34 0 -51 -46z" />
    <glyph glyph-name="uni0304" unicode="&#x304;" 
d="M10 583l-3 4l24 31q11 14 30 14h227l3 -4l-24 -31q-11 -14 -30 -14h-227z" />
    <glyph glyph-name="uni0306" unicode="&#x306;" 
d="M140 569q-37 0 -61 25t-59 92l12 5q19 -21 30 -30.5t31 -17.5t47 -8q38 0 59.5 13t48.5 43l11 -5q-35 -67 -59 -92t-60 -25z" />
    <glyph glyph-name="uni0307" unicode="&#x307;" 
d="M81 543q-29 0 -48.5 19.5t-19.5 48.5t19.5 49t48.5 20q30 0 49 -19.5t19 -49.5q0 -29 -19.5 -48.5t-48.5 -19.5z" />
    <glyph glyph-name="uni0308" unicode="&#x308;" 
d="M235 561q-23 0 -39 15.5t-16 39.5q0 22 16 37t39 15q22 0 37.5 -16t15.5 -38t-15 -37.5t-38 -15.5zM10 616q0 22 15.5 37t37.5 15q24 0 39.5 -15.5t15.5 -38.5q0 -22 -16 -37.5t-39 -15.5t-38 15.5t-15 39.5z" />
    <glyph glyph-name="uni030A" unicode="&#x30a;" 
d="M88 548q-30 0 -49 19.5t-19 47.5q0 30 19 50t49 20q33 0 51.5 -19t18.5 -49q0 -29 -20 -49t-50 -20zM32 615q0 -25 16 -41t40 -16q25 0 41.5 17t16.5 42t-16 41.5t-42 16.5q-24 0 -40 -16.5t-16 -43.5z" />
    <glyph glyph-name="uni030B" unicode="&#x30b;" 
d="M218 693q12 19 21 23.5t29 4.5q43 0 43 -18q0 -12 -38 -39l-122 -85h-9zM2 579l76 114q12 19 21 23.5t29 4.5q43 0 43 -18q0 -12 -38 -39l-122 -85h-9z" />
    <glyph glyph-name="uni030C" unicode="&#x30c;" 
d="M-11 720l126 -66l130 66l9 -9l-136 -137h-6l-131 139z" />
    <glyph glyph-name="uni0312" unicode="&#x312;" 
d="M81 568q-27 0 -43.5 17.5t-16.5 52.5q0 47 34.5 90.5t74.5 57.5l5 -11q-65 -36 -70 -109q14 4 21 4q20 0 33.5 -13.5t13.5 -33.5q0 -24 -14 -39.5t-38 -15.5z" />
    <glyph glyph-name="uni0326" unicode="&#x326;" 
d="M6 -255q65 36 70 109q-14 -4 -21 -4q-20 0 -33.5 13.5t-13.5 33.5q0 24 14 39.5t38 15.5q27 0 43.5 -17.5t16.5 -52.5q0 -47 -34.5 -90.5t-74.5 -57.5z" />
    <glyph glyph-name="uni0327" unicode="&#x327;" 
d="M51 -235q-33 0 -54 12.5t-21 27.5q0 11 14 20.5t28 9.5t41 -20t50 -20t38 15.5t15 35.5q0 23 -23 39.5t-68 16.5q-8 0 -39 -7l-5 6l81 106l14 -3l-42 -56q59 11 89 -8.5t30 -53.5q0 -45 -45 -83t-103 -38z" />
    <glyph glyph-name="uni0328" unicode="&#x328;" 
d="M101 -200q-33 0 -56 19.5t-23 50.5q0 33 23.5 65t71.5 73l11 -5q-59 -55 -59 -94q0 -22 16.5 -34t41.5 -12q26 0 51 16l5 -4l-36 -63q-17 -12 -46 -12z" />
    <glyph glyph-name="uni0335" unicode="&#x335;" 
d="M598 587v-14h-273v14h273z" />
    <glyph glyph-name="uni0337" unicode="&#x337;" 
d="M270 457l6 -14l-252 -113l-6 14z" />
    <glyph glyph-name="uni0338" unicode="&#x338;" 
d="M504 595l16 -10l-441 -697l-16 10z" />
    <glyph glyph-name="Wgrave" unicode="&#x1e80;" horiz-adv-x="933" 
d="M365 582q-34 84 -76 104v14h181v-14q-25 -8 -17 -38q3 -11 25 -66l49 -119l44 118q35 93 -17 105v14h116v-14q-47 -17 -81 -105l-53 -142l128 -311l165 453q35 93 -17 105v14h116v-14q-48 -17 -79 -105l-211 -581h-36l-132 323l-131 -323h-38l-222 581q-31 85 -73 105v14
h181v-14q-15 -5 -18.5 -15.5t2 -28.5t16.5 -47q4 -9 6 -14l175 -455l92 223zM307 835q0 11 22 23.5t41 12.5q18 0 50 -28l101 -87l-4 -7l-172 52q-38 11 -38 34z" />
    <glyph glyph-name="wgrave" unicode="&#x1e81;" horiz-adv-x="708" 
d="M45 378q-27 95 -57 108v14h171v-14q-12 -4 -17.5 -10.5t-4.5 -22.5t4 -29.5t12 -45.5l76 -268l134 390h61l132 -386l79 264q28 96 -25 108v14h107v-14q-21 -7 -35.5 -31t-29.5 -77l-114 -378h-51l-139 409l-142 -409h-51zM225 685q0 11 22 23.5t41 12.5q23 0 50 -28
l101 -107l-4 -7l-172 72q-23 10 -30.5 17t-7.5 17z" />
    <glyph glyph-name="Wacute" unicode="&#x1e82;" horiz-adv-x="933" 
d="M365 582q-34 84 -76 104v14h181v-14q-25 -8 -17 -38q3 -11 25 -66l49 -119l44 118q35 93 -17 105v14h116v-14q-47 -17 -81 -105l-53 -142l128 -311l165 453q35 93 -17 105v14h116v-14q-48 -17 -79 -105l-211 -581h-36l-132 323l-131 -323h-38l-222 581q-31 85 -73 105v14
h181v-14q-15 -5 -18.5 -15.5t2 -28.5t16.5 -47q4 -9 6 -14l175 -455l92 223zM307 756l101 87q32 28 50 28q19 0 41 -12.5t22 -23.5q0 -23 -38 -34l-172 -52z" />
    <glyph glyph-name="wacute" unicode="&#x1e83;" horiz-adv-x="708" 
d="M45 378q-27 95 -57 108v14h171v-14q-12 -4 -17.5 -10.5t-4.5 -22.5t4 -29.5t12 -45.5l76 -268l134 390h61l132 -386l79 264q28 96 -25 108v14h107v-14q-21 -7 -35.5 -31t-29.5 -77l-114 -378h-51l-139 409l-142 -409h-51zM265 586l101 107q27 28 50 28q19 0 41 -12.5
t22 -23.5q0 -10 -7.5 -17t-30.5 -17l-172 -72z" />
    <glyph glyph-name="Wdieresis" unicode="&#x1e84;" horiz-adv-x="933" 
d="M365 582q-34 84 -76 104v14h181v-14q-25 -8 -17 -38q3 -11 25 -66l49 -119l44 118q35 93 -17 105v14h116v-14q-47 -17 -81 -105l-53 -142l128 -311l165 453q35 93 -17 105v14h116v-14q-48 -17 -79 -105l-211 -581h-36l-132 323l-131 -323h-38l-222 581q-31 85 -73 105v14
h181v-14q-15 -5 -18.5 -15.5t2 -28.5t16.5 -47q4 -9 6 -14l175 -455l92 223zM295 816q0 22 15.5 37t37.5 15q24 0 39.5 -15.5t15.5 -38.5q0 -22 -16 -37.5t-39 -15.5t-38 15.5t-15 39.5zM465 816q0 22 16 37t39 15q22 0 37.5 -16t15.5 -38t-15.5 -37.5t-37.5 -15.5
q-23 0 -39 15.5t-16 39.5z" />
    <glyph glyph-name="wdieresis" unicode="&#x1e85;" horiz-adv-x="708" 
d="M45 378q-27 95 -57 108v14h171v-14q-12 -4 -17.5 -10.5t-4.5 -22.5t4 -29.5t12 -45.5l76 -268l134 390h61l132 -386l79 264q28 96 -25 108v14h107v-14q-21 -7 -35.5 -31t-29.5 -77l-114 -378h-51l-139 409l-142 -409h-51zM241 616q0 22 15.5 37t37.5 15q24 0 39.5 -15.5
t15.5 -38.5q0 -22 -16 -37.5t-39 -15.5t-38 15.5t-15 39.5zM411 616q0 22 16 37t39 15q22 0 37.5 -16t15.5 -38t-15.5 -37.5t-37.5 -15.5q-23 0 -39 15.5t-16 39.5z" />
    <glyph glyph-name="uni1E9E" unicode="&#x1e9e;" horiz-adv-x="689" 
d="M441 -8q-122 0 -193 39l-7 154l13 2q65 -176 203 -176q53 0 84.5 34.5t31.5 88.5q0 145 -274 229l-12 4l-4 9l187 226q-24 28 -65.5 53t-88.5 25q-127 0 -127 -180v-373q0 -56 8 -80.5t32 -32.5v-14h-182v14q24 8 32 32.5t8 80.5v309q0 114 83.5 192.5t203.5 78.5
q58 0 104.5 -14.5t65.5 -30.5l-177 -211q43 -15 72 -26.5t74.5 -35t74 -48t50 -62t21.5 -79.5q0 -87 -69 -147.5t-149 -60.5z" />
    <glyph glyph-name="Ygrave" unicode="&#x1ef2;" horiz-adv-x="563" 
d="M184 0v14q24 8 32 32.5t8 80.5l-1 194l-148 268q-40 73 -89 97v14h187v-14q-18 -12 -16 -23t24 -49q9 -16 14 -25l132 -238l135 238q26 47 23 69t-34 28v14h129v-14q-55 -20 -98 -97l-151 -269v-193q0 -56 8 -80.5t32 -32.5v-14h-187zM154 835q0 11 22 23.5t41 12.5
t50 -28l101 -87l-4 -7l-172 52q-38 11 -38 34z" />
    <glyph glyph-name="ygrave" unicode="&#x1ef3;" horiz-adv-x="505" 
d="M36 -193q-31 -1 -52 8t-21 24q0 18 21 40.5t53 22.5t136 -18q35 38 70 111l-168 388q-34 82 -78 103v14h177v-14q-15 -5 -17.5 -15t2.5 -26t18 -44q5 -11 8 -17l114 -260l112 259q21 50 18 73.5t-29 29.5v14h114v-14q-50 -18 -87 -102l-153 -354q-54 -125 -109.5 -173
t-128.5 -50zM110 685q0 11 22 23.5t41 12.5q23 0 50 -28l101 -107l-4 -7l-172 72q-23 10 -30.5 17t-7.5 17z" />
    <glyph glyph-name="endash" unicode="&#x2013;" horiz-adv-x="565" 
d="M52 241v16h461v-16h-461z" />
    <glyph glyph-name="emdash" unicode="&#x2014;" horiz-adv-x="965" 
d="M52 241v16h861v-16h-861z" />
    <glyph glyph-name="quoteleft" unicode="&#x2018;" horiz-adv-x="216" 
d="M186 717q-37 -18 -58.5 -55t-24.5 -79q16 4 25 4q24 0 40 -16t16 -40q0 -29 -17 -47.5t-45 -18.5q-33 0 -52.5 21t-19.5 63q0 57 41.5 109t89.5 69z" />
    <glyph glyph-name="quoteright" unicode="&#x2019;" horiz-adv-x="216" 
d="M30 455q37 18 58.5 55t24.5 79q-16 -4 -25 -4q-24 0 -40 16t-16 40q0 29 17 47.5t45 18.5q33 0 52.5 -21t19.5 -63q0 -57 -41.5 -109t-89.5 -69z" />
    <glyph glyph-name="quotesinglbase" unicode="&#x201a;" horiz-adv-x="241" 
d="M50 -138q37 18 58.5 55t24.5 79q-16 -4 -25 -4q-24 0 -40 16t-16 40q0 29 17 47.5t45 18.5q33 0 52.5 -21t19.5 -63q0 -57 -41.5 -109t-89.5 -69z" />
    <glyph glyph-name="quotedblleft" unicode="&#x201c;" horiz-adv-x="384" 
d="M334 717q-37 -18 -58.5 -55t-24.5 -79q16 4 25 4q24 0 40 -16t16 -40q0 -29 -17 -47.5t-45 -18.5q-33 0 -52.5 21t-19.5 63q0 57 41.5 109t89.5 69zM30 549q0 57 41.5 109t89.5 69l5 -10q-37 -18 -58.5 -55t-24.5 -79q16 4 25 4q24 0 40 -16t16 -40q0 -29 -17 -47.5
t-45 -18.5q-33 0 -52.5 21t-19.5 63z" />
    <glyph glyph-name="quotedblright" unicode="&#x201d;" horiz-adv-x="384" 
d="M30 462q37 18 58.5 55t24.5 79q-16 -4 -25 -4q-24 0 -40 16t-16 40q0 29 17 47.5t45 18.5q33 0 52.5 -21t19.5 -63q0 -57 -41.5 -109t-89.5 -69zM198 462q37 18 58.5 55t24.5 79q-16 -4 -25 -4q-24 0 -40 16t-16 40q0 29 17 47.5t45 18.5q33 0 52.5 -21t19.5 -63
q0 -57 -41.5 -109t-89.5 -69z" />
    <glyph glyph-name="quotedblbase" unicode="&#x201e;" horiz-adv-x="384" 
d="M50 -138q37 18 58.5 55t24.5 79q-16 -4 -25 -4q-24 0 -40 16t-16 40q0 29 17 47.5t45 18.5q33 0 52.5 -21t19.5 -63q0 -57 -41.5 -109t-89.5 -69zM218 -138q37 18 58.5 55t24.5 79q-16 -4 -25 -4q-24 0 -40 16t-16 40q0 29 17 47.5t45 18.5q33 0 52.5 -21t19.5 -63
q0 -57 -41.5 -109t-89.5 -69z" />
    <glyph glyph-name="dagger" unicode="&#x2020;" horiz-adv-x="421" 
d="M112 389q-7 0 -14 2t-12 4t-11.5 8t-10.5 9.5t-11 12.5l-10.5 13.5t-11.5 16t-12 16.5l10 9q19 -20 60 -20q29 0 105 21l-46 148l115 78l6 -4l-47 -214q65 18 92 18q45 0 87 -87l-10 -7q-17 23 -51 23q-36 0 -120 -24l49 -335l-115 -78l-6 4l50 403q-62 -17 -86 -17z" />
    <glyph glyph-name="bullet" unicode="&#x2022;" horiz-adv-x="283" 
d="M142 196q-37 0 -64.5 28.5t-27.5 66.5q0 39 27 66.5t65 27.5t64.5 -27.5t26.5 -66.5q0 -38 -27 -66.5t-64 -28.5z" />
    <glyph glyph-name="ellipsis" unicode="&#x2026;" horiz-adv-x="573" 
d="M114 -7q-24 0 -41.5 18t-17.5 43t17.5 42.5t41.5 17.5t41 -17.5t17 -42.5t-17 -43t-41 -18zM255 54q0 25 17.5 42.5t41.5 17.5t41 -17.5t17 -42.5t-17 -43t-41 -18t-41.5 18t-17.5 43zM455 54q0 25 17.5 42.5t41.5 17.5t41 -17.5t17 -42.5t-17 -43t-41 -18t-41.5 18
t-17.5 43z" />
    <glyph glyph-name="perthousand" unicode="&#x2030;" horiz-adv-x="1190" 
d="M91 -5l-10 10l595 700l10 -10zM17 519q0 85 58.5 135t132.5 50q69 0 121.5 -43.5t52.5 -116.5q0 -92 -58.5 -141.5t-129.5 -49.5q-69 0 -123 44t-54 122zM81 575q0 -82 43.5 -140.5t102.5 -58.5q90 0 90 116q0 75 -40.5 134t-98.5 59q-41 0 -69 -29t-28 -81zM397 156
q0 85 58.5 135t132.5 50q69 0 121.5 -43.5t52.5 -116.5q0 -92 -58.5 -141.5t-129.5 -49.5q-69 0 -123 44t-54 122zM461 212q0 -82 43.5 -140.5t102.5 -58.5q90 0 90 116q0 75 -40.5 134t-98.5 59q-41 0 -69 -29t-28 -81zM797 156q0 85 58.5 135t132.5 50q69 0 121.5 -43.5
t52.5 -116.5q0 -92 -58.5 -141.5t-129.5 -49.5q-69 0 -123 44t-54 122zM861 212q0 -82 43.5 -140.5t102.5 -58.5q90 0 90 116q0 75 -40.5 134t-98.5 59q-41 0 -69 -29t-28 -81z" />
    <glyph glyph-name="guilsinglleft" unicode="&#x2039;" horiz-adv-x="403" 
d="M320 24l-265 226l265 226l10 -12l-251 -214l251 -214z" />
    <glyph glyph-name="guilsinglright" unicode="&#x203a;" horiz-adv-x="403" 
d="M66 24l-10 12l251 214l-251 214l10 12l265 -226z" />
    <glyph glyph-name="fraction" unicode="&#x2044;" horiz-adv-x="391" 
d="M-21 -273l-15 6l448 1070l15 -6z" />
    <glyph glyph-name="Euro" unicode="&#x20ac;" horiz-adv-x="693" 
d="M367 -8q-123 0 -217.5 72.5t-117.5 194.5h-55l7 17h45q-4 24 -4 56q0 52 12 97h-60l7 17h58q39 120 146.5 190.5t237.5 70.5q65 0 121 -13t83 -30l11 -131l-12 -4q-72 157 -234 157q-112 0 -179.5 -67.5t-83.5 -172.5h370l-7 -17h-365q-3 -21 -3 -41q0 -60 16 -112h299
l-7 -17h-287q31 -83 100.5 -134t177.5 -51q27 0 54.5 5t62 17.5t67.5 40.5t56 69l13 -6q-48 -99 -127 -153.5t-185 -54.5z" />
    <glyph glyph-name="trademark" unicode="&#x2122;" horiz-adv-x="842" 
d="M354 279v8q14 5 19 19.5t5 48.5v269q0 34 -5 48.5t-19 19.5v8h100l127 -283l126 283h97v-8q-14 -5 -19 -19.5t-5 -48.5v-269q0 -34 5 -48.5t19 -19.5v-8h-120v8q14 5 19 19.5t5 48.5v314l-153 -344h-10l-154 342v-276q0 -53 10.5 -74.5t35.5 -29.5v-8h-83zM12 620l9 80
h288l8 -80h-8q-27 68 -97 68h-10v-333q0 -34 5 -48.5t19 -19.5v-8h-122v8q14 5 19 19.5t5 48.5v333h-10q-70 0 -98 -68h-8z" />
    <glyph glyph-name="minus" unicode="&#x2212;" horiz-adv-x="558" 
d="M101 323l5 16h348l-5 -16h-348z" />
    <glyph glyph-name="approxequal" unicode="&#x2248;" horiz-adv-x="558" 
d="M365 353q-34 0 -95 27.5t-89 27.5q-39 0 -71 -43l-11 9q37 50 82 50q29 0 92 -27.5t92 -27.5q49 0 80 44l12 -8q-35 -52 -92 -52zM99 274q37 50 82 50q29 0 92 -27.5t92 -27.5q49 0 80 44l12 -8q-35 -52 -92 -52q-34 0 -95 27.5t-89 27.5q-39 0 -71 -43z" />
    <glyph glyph-name="notequal" unicode="&#x2260;" horiz-adv-x="558" 
d="M115 70l98 173h-114l7 16h116l81 144h-204l7 16h207l102 181h19l-102 -181h122l-7 -16h-125l-81 -144h213l-7 -16h-215l-98 -173h-19z" />
    <glyph glyph-name="uni004A0301" horiz-adv-x="284" 
d="M-79 -120q-26 0 -37 5t-11 22q0 20 17.5 37t45.5 17q20 0 112 -19q44 30 44 131v500q0 56 -8 80.5t-32 32.5v14h185v-14q-24 -8 -32 -32.5t-8 -80.5v-330q0 -154 -82.5 -258.5t-193.5 -104.5zM5 756l101 87q31 28 50 28t41 -12.5t22 -23.5q0 -23 -38 -34l-172 -52z" />
    <glyph glyph-name="K.ss01" horiz-adv-x="645" 
d="M47 0v14q24 8 32 32.5t8 80.5v446q0 56 -8 80.5t-32 32.5v14h186v-14q-24 -8 -32 -32.5t-8 -80.5v-235l243 249q91 92 24 103v10h157v-14q-84 -23 -137 -77l-128 -131l154 -288q63 -118 85.5 -147t46.5 -29q9 0 15 1v-15q-27 -7 -68 -7q-63 0 -94.5 28.5t-90.5 142.5
l-124 237l-83 -86v-188q0 -56 8 -80.5t32 -32.5v-14h-186z" />
    <glyph glyph-name="C.ss02" horiz-adv-x="723" 
d="M408 -10q-64 0 -126 21.5t-113.5 63t-83 109t-31.5 151.5q0 163 99.5 268t257.5 105q64 0 129.5 -16.5t104.5 -42.5l3 -126l-12 -4q-88 170 -256 169q-114 -1 -172 -82t-49 -218q10 -139 92 -226.5t212 -86.5q145 0 226 101l12 -10q-114 -176 -293 -176z" />
    <glyph glyph-name="Cacute.ss02" horiz-adv-x="723" 
d="M408 -10q-64 0 -126 21.5t-113.5 63t-83 109t-31.5 151.5q0 163 99.5 268t257.5 105q64 0 129.5 -16.5t104.5 -42.5l3 -126l-12 -4q-88 170 -256 169q-114 -1 -172 -82t-49 -218q10 -139 92 -226.5t212 -86.5q145 0 226 101l12 -10q-114 -176 -293 -176zM263 756l101 87
q32 28 50 28q19 0 41 -12.5t22 -23.5q0 -23 -38 -34l-172 -52z" />
    <glyph glyph-name="Ccaron.ss02" horiz-adv-x="723" 
d="M408 -10q-64 0 -126 21.5t-113.5 63t-83 109t-31.5 151.5q0 163 99.5 268t257.5 105q64 0 129.5 -16.5t104.5 -42.5l3 -126l-12 -4q-88 170 -256 169q-114 -1 -172 -82t-49 -218q10 -139 92 -226.5t212 -86.5q145 0 226 101l12 -10q-114 -176 -293 -176zM275 868l8 7
l104 -46l110 46l9 -9l-116 -117h-6z" />
    <glyph glyph-name="Ccedilla.ss02" horiz-adv-x="723" 
d="M408 -10h-15l-32 -42q59 11 89 -8.5t30 -53.5q0 -45 -45 -83t-103 -38q-33 0 -54 12.5t-21 27.5q0 11 14 20.5t28 9.5q15 0 41 -20t50 -20q23 0 38 15.5t15 35.5q0 23 -23 39.5t-68 16.5q-8 0 -39 -7l-5 6l69 90q-61 5 -117.5 29t-103 65t-74.5 106t-28 144
q0 163 99.5 268t257.5 105q64 0 129.5 -16.5t104.5 -42.5l3 -126l-12 -4q-88 170 -256 169q-114 -1 -172 -82t-49 -218q10 -139 92 -226.5t212 -86.5q145 0 226 101l12 -10q-114 -176 -293 -176z" />
    <glyph glyph-name="Cdotaccent.ss02" horiz-adv-x="723" 
d="M408 -10q-64 0 -126 21.5t-113.5 63t-83 109t-31.5 151.5q0 163 99.5 268t257.5 105q64 0 129.5 -16.5t104.5 -42.5l3 -126l-12 -4q-88 170 -256 169q-114 -1 -172 -82t-49 -218q10 -139 92 -226.5t212 -86.5q145 0 226 101l12 -10q-114 -176 -293 -176zM322 811
q0 29 19.5 49t48.5 20q30 0 49 -19.5t19 -49.5q0 -29 -20 -48.5t-48 -19.5t-48 19.5t-20 48.5z" />
    <glyph glyph-name="E.ss02" horiz-adv-x="747" 
d="M410 -8q-148 0 -252 93.5t-104 246.5q0 166 112 270.5t264 104.5q59 0 108.5 -17.5t80.5 -44t53 -59.5t31 -63t9 -56h-547q-7 -42 -7 -74q-1 -47 9.5 -92.5t34.5 -89t59 -76t88 -52t118 -19.5q145 0 232 112l11 -9q-109 -175 -300 -175zM169 483h432q-1 27 -12.5 58.5
t-34.5 65.5t-65 56t-95 22q-89 0 -146.5 -56t-78.5 -146z" />
    <glyph glyph-name="Eacute.ss02" horiz-adv-x="747" 
d="M410 -8q-148 0 -252 93.5t-104 246.5q0 166 112 270.5t264 104.5q59 0 108.5 -17.5t80.5 -44t53 -59.5t31 -63t9 -56h-547q-7 -42 -7 -74q-1 -47 9.5 -92.5t34.5 -89t59 -76t88 -52t118 -19.5q145 0 232 112l11 -9q-109 -175 -300 -175zM169 483h432q-1 27 -12.5 58.5
t-34.5 65.5t-65 56t-95 22q-89 0 -146.5 -56t-78.5 -146zM258 756l101 87q31 28 50 28t41 -12.5t22 -23.5q0 -23 -38 -34l-172 -52z" />
    <glyph glyph-name="Ecaron.ss02" horiz-adv-x="747" 
d="M410 -8q-148 0 -252 93.5t-104 246.5q0 166 112 270.5t264 104.5q59 0 108.5 -17.5t80.5 -44t53 -59.5t31 -63t9 -56h-547q-7 -42 -7 -74q-1 -47 9.5 -92.5t34.5 -89t59 -76t88 -52t118 -19.5q145 0 232 112l11 -9q-109 -175 -300 -175zM169 483h432q-1 27 -12.5 58.5
t-34.5 65.5t-65 56t-95 22q-89 0 -146.5 -56t-78.5 -146zM270 868l8 7l104 -46l110 46l9 -9l-116 -117h-6z" />
    <glyph glyph-name="Ecircumflex.ss02" horiz-adv-x="747" 
d="M410 -8q-148 0 -252 93.5t-104 246.5q0 166 112 270.5t264 104.5q59 0 108.5 -17.5t80.5 -44t53 -59.5t31 -63t9 -56h-547q-7 -42 -7 -74q-1 -47 9.5 -92.5t34.5 -89t59 -76t88 -52t118 -19.5q145 0 232 112l11 -9q-109 -175 -300 -175zM169 483h432q-1 27 -12.5 58.5
t-34.5 65.5t-65 56t-95 22q-89 0 -146.5 -56t-78.5 -146zM270 756l109 119h6l116 -117l-9 -9l-110 46l-104 -46z" />
    <glyph glyph-name="Edieresis.ss02" horiz-adv-x="747" 
d="M410 -8q-148 0 -252 93.5t-104 246.5q0 166 112 270.5t264 104.5q59 0 108.5 -17.5t80.5 -44t53 -59.5t31 -63t9 -56h-547q-7 -42 -7 -74q-1 -47 9.5 -92.5t34.5 -89t59 -76t88 -52t118 -19.5q145 0 232 112l11 -9q-109 -175 -300 -175zM169 483h432q-1 27 -12.5 58.5
t-34.5 65.5t-65 56t-95 22q-89 0 -146.5 -56t-78.5 -146zM246 816q0 22 15.5 37t37.5 15q24 0 39.5 -15.5t15.5 -38.5q0 -22 -16 -37.5t-39 -15.5t-38 15.5t-15 39.5zM416 816q0 22 16 37t39 15q22 0 37.5 -16t15.5 -38t-15 -37.5t-38 -15.5t-39 15.5t-16 39.5z" />
    <glyph glyph-name="Edotaccent.ss02" horiz-adv-x="747" 
d="M410 -8q-148 0 -252 93.5t-104 246.5q0 166 112 270.5t264 104.5q59 0 108.5 -17.5t80.5 -44t53 -59.5t31 -63t9 -56h-547q-7 -42 -7 -74q-1 -47 9.5 -92.5t34.5 -89t59 -76t88 -52t118 -19.5q145 0 232 112l11 -9q-109 -175 -300 -175zM169 483h432q-1 27 -12.5 58.5
t-34.5 65.5t-65 56t-95 22q-89 0 -146.5 -56t-78.5 -146zM317 811q0 29 19.5 49t48.5 20q30 0 49 -19.5t19 -49.5q0 -29 -19.5 -48.5t-48.5 -19.5t-48.5 19.5t-19.5 48.5z" />
    <glyph glyph-name="Egrave.ss02" horiz-adv-x="747" 
d="M410 -8q-148 0 -252 93.5t-104 246.5q0 166 112 270.5t264 104.5q59 0 108.5 -17.5t80.5 -44t53 -59.5t31 -63t9 -56h-547q-7 -42 -7 -74q-1 -47 9.5 -92.5t34.5 -89t59 -76t88 -52t118 -19.5q145 0 232 112l11 -9q-109 -175 -300 -175zM169 483h432q-1 27 -12.5 58.5
t-34.5 65.5t-65 56t-95 22q-89 0 -146.5 -56t-78.5 -146zM258 835q0 11 22 23.5t41 12.5t50 -28l101 -87l-4 -7l-172 52q-38 11 -38 34z" />
    <glyph glyph-name="Emacron.ss02" horiz-adv-x="747" 
d="M410 -8q-148 0 -252 93.5t-104 246.5q0 166 112 270.5t264 104.5q59 0 108.5 -17.5t80.5 -44t53 -59.5t31 -63t9 -56h-547q-7 -42 -7 -74q-1 -47 9.5 -92.5t34.5 -89t59 -76t88 -52t118 -19.5q145 0 232 112l11 -9q-109 -175 -300 -175zM169 483h432q-1 27 -12.5 58.5
t-34.5 65.5t-65 56t-95 22q-89 0 -146.5 -56t-78.5 -146zM244 787l24 31q10 14 30 14h227l3 -4l-24 -31q-10 -14 -30 -14h-227z" />
    <glyph glyph-name="Eogonek.ss02" horiz-adv-x="747" 
d="M410 -8q-148 0 -252 93.5t-104 246.5q0 166 112 270.5t264 104.5q59 0 108.5 -17.5t80.5 -44t53 -59.5t31 -63t9 -56h-547q-7 -42 -7 -74q-1 -47 9.5 -92.5t34.5 -89t59 -76t88 -52t118 -19.5q145 0 232 112l11 -9q-60 -97 -150 -141q-18 -26 -18 -50q0 -22 16.5 -34
t41.5 -12q26 0 51 16l5 -4l-36 -63q-17 -12 -46 -12q-33 0 -56 19.5t-23 50.5q0 37 31 74q-55 -19 -116 -19zM169 483h432q-1 27 -12.5 58.5t-34.5 65.5t-65 56t-95 22q-89 0 -146.5 -56t-78.5 -146z" />
    <glyph glyph-name="A.ss04" horiz-adv-x="643" 
d="M-21 0v14q49 18 84 104l187 464q11 28 -2 54l-13 28l98 44l248 -591q35 -83 77 -103v-14h-182v14q15 5 18 15.5t-2.5 27.5t-18.5 47l-2 4t-2 4.5t-2 4.5l-196 469l-189 -468q-20 -50 -16.5 -74t29.5 -30v-14h-116zM197 260v12q36 0 55 24.5t19 55.5h12q0 -31 18.5 -55.5
t52.5 -24.5v-12q-34 0 -52.5 -22.5t-18.5 -54.5h-12q0 32 -18.5 54.5t-55.5 22.5z" />
    <glyph glyph-name="Aacute.ss04" horiz-adv-x="643" 
d="M-21 0v14q49 18 84 104l187 464q11 28 -2 54l-13 28l98 44l248 -591q35 -83 77 -103v-14h-182v14q15 5 18 15.5t-2.5 27.5t-18.5 47l-2 4t-2 4.5t-2 4.5l-196 469l-189 -468q-20 -50 -16.5 -74t29.5 -30v-14h-116zM170 756l101 87q32 28 50 28q19 0 41 -12.5t22 -23.5
q0 -23 -38 -34l-172 -52zM197 260v12q36 0 55 24.5t19 55.5h12q0 -31 18.5 -55.5t52.5 -24.5v-12q-34 0 -52.5 -22.5t-18.5 -54.5h-12q0 32 -18.5 54.5t-55.5 22.5z" />
    <glyph glyph-name="Abreve.ss04" horiz-adv-x="643" 
d="M-21 0v14q49 18 84 104l187 464q11 28 -2 54l-13 28l98 44l248 -591q35 -83 77 -103v-14h-182v14q15 5 18 15.5t-2.5 27.5t-18.5 47l-2 4t-2 4.5t-2 4.5l-196 469l-189 -468q-20 -50 -16.5 -74t29.5 -30v-14h-116zM187 858l12 5q13 -15 22.5 -23t29.5 -15.5t46 -7.5
q38 0 58.5 11.5t39.5 34.5l11 -5q-27 -59 -50 -83t-59 -24q-37 0 -60 24t-50 83zM197 260v12q36 0 55 24.5t19 55.5h12q0 -31 18.5 -55.5t52.5 -24.5v-12q-34 0 -52.5 -22.5t-18.5 -54.5h-12q0 32 -18.5 54.5t-55.5 22.5z" />
    <glyph glyph-name="Acircumflex.ss04" horiz-adv-x="643" 
d="M-21 0v14q49 18 84 104l187 464q11 28 -2 54l-13 28l98 44l248 -591q35 -83 77 -103v-14h-182v14q15 5 18 15.5t-2.5 27.5t-18.5 47l-2 4t-2 4.5t-2 4.5l-196 469l-189 -468q-20 -50 -16.5 -74t29.5 -30v-14h-116zM182 756l109 119h6l116 -117l-9 -9l-110 46l-104 -46z
M197 260v12q36 0 55 24.5t19 55.5h12q0 -31 18.5 -55.5t52.5 -24.5v-12q-34 0 -52.5 -22.5t-18.5 -54.5h-12q0 32 -18.5 54.5t-55.5 22.5z" />
    <glyph glyph-name="Adieresis.ss04" horiz-adv-x="643" 
d="M-21 0v14q49 18 84 104l187 464q11 28 -2 54l-13 28l98 44l248 -591q35 -83 77 -103v-14h-182v14q15 5 18 15.5t-2.5 27.5t-18.5 47l-2 4t-2 4.5t-2 4.5l-196 469l-189 -468q-20 -50 -16.5 -74t29.5 -30v-14h-116zM158 816q0 22 15.5 37t37.5 15q24 0 39.5 -15.5
t15.5 -38.5q0 -22 -16 -37.5t-39 -15.5t-38 15.5t-15 39.5zM197 260v12q36 0 55 24.5t19 55.5h12q0 -31 18.5 -55.5t52.5 -24.5v-12q-34 0 -52.5 -22.5t-18.5 -54.5h-12q0 32 -18.5 54.5t-55.5 22.5zM328 816q0 22 16 37t39 15q22 0 37.5 -16t15.5 -38t-15 -37.5t-38 -15.5
t-39 15.5t-16 39.5z" />
    <glyph glyph-name="Agrave.ss04" horiz-adv-x="643" 
d="M-21 0v14q49 18 84 104l187 464q11 28 -2 54l-13 28l98 44l248 -591q35 -83 77 -103v-14h-182v14q15 5 18 15.5t-2.5 27.5t-18.5 47l-2 4t-2 4.5t-2 4.5l-196 469l-189 -468q-20 -50 -16.5 -74t29.5 -30v-14h-116zM170 835q0 11 22 23.5t41 12.5t50 -28l101 -87l-4 -7
l-172 52q-38 11 -38 34zM197 260v12q36 0 55 24.5t19 55.5h12q0 -31 18.5 -55.5t52.5 -24.5v-12q-34 0 -52.5 -22.5t-18.5 -54.5h-12q0 32 -18.5 54.5t-55.5 22.5z" />
    <glyph glyph-name="Amacron.ss04" horiz-adv-x="643" 
d="M-21 0v14q49 18 84 104l187 464q11 28 -2 54l-13 28l98 44l248 -591q35 -83 77 -103v-14h-182v14q15 5 18 15.5t-2.5 27.5t-18.5 47l-2 4t-2 4.5t-2 4.5l-196 469l-189 -468q-20 -50 -16.5 -74t29.5 -30v-14h-116zM156 787l24 31q10 14 30 14h227l3 -4l-24 -31
q-10 -14 -30 -14h-227zM197 260v12q36 0 55 24.5t19 55.5h12q0 -31 18.5 -55.5t52.5 -24.5v-12q-34 0 -52.5 -22.5t-18.5 -54.5h-12q0 32 -18.5 54.5t-55.5 22.5z" />
    <glyph glyph-name="Aogonek.ss04" horiz-adv-x="643" 
d="M-21 0v14q49 18 84 104l187 464q11 28 -2 54l-13 28l98 44l248 -591q35 -83 77 -103v-14h-151q-49 -48 -49 -84q0 -22 16.5 -34t41.5 -12q26 0 51 16l5 -4l-36 -63q-17 -12 -46 -12q-33 0 -56 19.5t-23 50.5q0 52 78 123h-13v14q15 5 18 15.5t-2.5 27.5t-18.5 47l-2 4
t-2 4.5t-2 4.5l-196 469l-189 -468q-20 -50 -16.5 -74t29.5 -30v-14h-116zM197 260v12q36 0 55 24.5t19 55.5h12q0 -31 18.5 -55.5t52.5 -24.5v-12q-34 0 -52.5 -22.5t-18.5 -54.5h-12q0 32 -18.5 54.5t-55.5 22.5z" />
    <glyph glyph-name="Aring.ss04" horiz-adv-x="643" 
d="M-21 0v14q49 18 84 104l187 464q11 28 -2 54l-13 28l98 44l248 -591q35 -83 77 -103v-14h-182v14q15 5 18 15.5t-2.5 27.5t-18.5 47l-2 4t-2 4.5t-2 4.5l-196 469l-189 -468q-20 -50 -16.5 -74t29.5 -30v-14h-116zM197 260v12q36 0 55 24.5t19 55.5h12q0 -31 18.5 -55.5
t52.5 -24.5v-12q-34 0 -52.5 -22.5t-18.5 -54.5h-12q0 32 -18.5 54.5t-55.5 22.5zM228 815q0 30 19 50t49 20q33 0 51.5 -19t18.5 -49q0 -29 -20 -49t-50 -20t-49 19.5t-19 47.5zM240 815q0 -25 16 -41t40 -16q25 0 41.5 17t16.5 42t-16 41.5t-42 16.5q-24 0 -40 -16.5
t-16 -43.5z" />
    <glyph glyph-name="Atilde.ss04" horiz-adv-x="643" 
d="M-21 0v14q49 18 84 104l187 464q11 28 -2 54l-13 28l98 44l248 -591q35 -83 77 -103v-14h-182v14q15 5 18 15.5t-2.5 27.5t-18.5 47l-2 4t-2 4.5t-2 4.5l-196 469l-189 -468q-20 -50 -16.5 -74t29.5 -30v-14h-116zM145 755q41 109 101 109q21 0 76.5 -20t74.5 -20
t30.5 11.5t23.5 43.5l10 -3q-37 -120 -103 -120q-32 0 -79 20.5t-73 20.5q-34 0 -51 -46zM197 260v12q36 0 55 24.5t19 55.5h12q0 -31 18.5 -55.5t52.5 -24.5v-12q-34 0 -52.5 -22.5t-18.5 -54.5h-12q0 32 -18.5 54.5t-55.5 22.5z" />
    <glyph glyph-name="AE.ss04" horiz-adv-x="814" 
d="M-21 0v14q49 18 85 103l241 583h378l12 -112l-13 -3q-23 52 -68 74.5t-128 22.5h-112l85 -296h26q88 0 124 17.5t49 58.5h14v-170h-14q-13 41 -49 58.5t-124 17.5h-21l89 -308q12 -42 54 -42q59 0 94.5 23.5t64.5 86.5h13l-7 -128h-315l-170 612l-204 -495
q-39 -91 12 -103v-14h-116zM182 238v12q36 0 55 24.5t19 55.5h12q0 -31 18.5 -55.5t52.5 -24.5v-12q-34 0 -52.5 -22.5t-18.5 -54.5h-12q0 32 -18.5 54.5t-55.5 22.5z" />
    <glyph glyph-name="E.ss04" horiz-adv-x="585" 
d="M47 0v14q24 8 32 32.5t8 80.5v446q0 56 -8 80.5t-32 32.5v14h480l11 -121l-13 -3q-22 59 -66.5 83.5t-128.5 24.5h-137v-618q0 -50 50 -50h101q77 0 120.5 24.5t72.5 87.5l13 -2l-7 -126h-496zM310 368v12q36 0 55 24.5t19 55.5h12q0 -31 18.5 -55.5t52.5 -24.5v-12
q-34 0 -52.5 -22.5t-18.5 -54.5h-12q0 32 -18.5 54.5t-55.5 22.5z" />
    <glyph glyph-name="Eacute.ss04" horiz-adv-x="585" 
d="M47 0v14q24 8 32 32.5t8 80.5v446q0 56 -8 80.5t-32 32.5v14h480l11 -121l-13 -3q-22 59 -66.5 83.5t-128.5 24.5h-137v-618q0 -50 50 -50h101q77 0 120.5 24.5t72.5 87.5l13 -2l-7 -126h-496zM155 756l101 87q32 28 50 28q19 0 41 -12.5t22 -23.5q0 -23 -38 -34
l-172 -52zM310 368v12q36 0 55 24.5t19 55.5h12q0 -31 18.5 -55.5t52.5 -24.5v-12q-34 0 -52.5 -22.5t-18.5 -54.5h-12q0 32 -18.5 54.5t-55.5 22.5z" />
    <glyph glyph-name="Ecaron.ss04" horiz-adv-x="585" 
d="M47 0v14q24 8 32 32.5t8 80.5v446q0 56 -8 80.5t-32 32.5v14h480l11 -121l-13 -3q-22 59 -66.5 83.5t-128.5 24.5h-137v-618q0 -50 50 -50h101q77 0 120.5 24.5t72.5 87.5l13 -2l-7 -126h-496zM167 868l8 7l104 -46l110 46l9 -9l-116 -117h-6zM310 368v12q36 0 55 24.5
t19 55.5h12q0 -31 18.5 -55.5t52.5 -24.5v-12q-34 0 -52.5 -22.5t-18.5 -54.5h-12q0 32 -18.5 54.5t-55.5 22.5z" />
    <glyph glyph-name="Ecircumflex.ss04" horiz-adv-x="585" 
d="M47 0v14q24 8 32 32.5t8 80.5v446q0 56 -8 80.5t-32 32.5v14h480l11 -121l-13 -3q-22 59 -66.5 83.5t-128.5 24.5h-137v-618q0 -50 50 -50h101q77 0 120.5 24.5t72.5 87.5l13 -2l-7 -126h-496zM167 756l109 119h6l116 -117l-9 -9l-110 46l-104 -46zM310 368v12
q36 0 55 24.5t19 55.5h12q0 -31 18.5 -55.5t52.5 -24.5v-12q-34 0 -52.5 -22.5t-18.5 -54.5h-12q0 32 -18.5 54.5t-55.5 22.5z" />
    <glyph glyph-name="Edieresis.ss04" horiz-adv-x="585" 
d="M47 0v14q24 8 32 32.5t8 80.5v446q0 56 -8 80.5t-32 32.5v14h480l11 -121l-13 -3q-22 59 -66.5 83.5t-128.5 24.5h-137v-618q0 -50 50 -50h101q77 0 120.5 24.5t72.5 87.5l13 -2l-7 -126h-496zM143 816q0 22 15.5 37t37.5 15q24 0 39.5 -15.5t15.5 -38.5q0 -22 -16 -37.5
t-39 -15.5t-38 15.5t-15 39.5zM310 368v12q36 0 55 24.5t19 55.5h12q0 -31 18.5 -55.5t52.5 -24.5v-12q-34 0 -52.5 -22.5t-18.5 -54.5h-12q0 32 -18.5 54.5t-55.5 22.5zM313 816q0 22 16 37t39 15q22 0 37.5 -16t15.5 -38t-15.5 -37.5t-37.5 -15.5q-23 0 -39 15.5t-16 39.5
z" />
    <glyph glyph-name="Edotaccent.ss04" horiz-adv-x="585" 
d="M47 0v14q24 8 32 32.5t8 80.5v446q0 56 -8 80.5t-32 32.5v14h480l11 -121l-13 -3q-22 59 -66.5 83.5t-128.5 24.5h-137v-618q0 -50 50 -50h101q77 0 120.5 24.5t72.5 87.5l13 -2l-7 -126h-496zM214 811q0 29 19.5 49t48.5 20q30 0 49 -19.5t19 -49.5q0 -29 -20 -48.5
t-48 -19.5t-48 19.5t-20 48.5zM310 368v12q36 0 55 24.5t19 55.5h12q0 -31 18.5 -55.5t52.5 -24.5v-12q-34 0 -52.5 -22.5t-18.5 -54.5h-12q0 32 -18.5 54.5t-55.5 22.5z" />
    <glyph glyph-name="Egrave.ss04" horiz-adv-x="585" 
d="M47 0v14q24 8 32 32.5t8 80.5v446q0 56 -8 80.5t-32 32.5v14h480l11 -121l-13 -3q-22 59 -66.5 83.5t-128.5 24.5h-137v-618q0 -50 50 -50h101q77 0 120.5 24.5t72.5 87.5l13 -2l-7 -126h-496zM155 835q0 11 22 23.5t41 12.5q18 0 50 -28l101 -87l-4 -7l-172 52
q-38 11 -38 34zM310 368v12q36 0 55 24.5t19 55.5h12q0 -31 18.5 -55.5t52.5 -24.5v-12q-34 0 -52.5 -22.5t-18.5 -54.5h-12q0 32 -18.5 54.5t-55.5 22.5z" />
    <glyph glyph-name="Emacron.ss04" horiz-adv-x="585" 
d="M47 0v14q24 8 32 32.5t8 80.5v446q0 56 -8 80.5t-32 32.5v14h480l11 -121l-13 -3q-22 59 -66.5 83.5t-128.5 24.5h-137v-618q0 -50 50 -50h101q77 0 120.5 24.5t72.5 87.5l13 -2l-7 -126h-496zM141 787l24 31q11 14 30 14h227l3 -4l-24 -31q-11 -14 -30 -14h-227z
M310 368v12q36 0 55 24.5t19 55.5h12q0 -31 18.5 -55.5t52.5 -24.5v-12q-34 0 -52.5 -22.5t-18.5 -54.5h-12q0 32 -18.5 54.5t-55.5 22.5z" />
    <glyph glyph-name="Eogonek.ss04" horiz-adv-x="585" 
d="M47 0v14q24 8 32 32.5t8 80.5v446q0 56 -8 80.5t-32 32.5v14h480l11 -121l-13 -3q-22 59 -66.5 83.5t-128.5 24.5h-137v-618q0 -50 50 -50h101q77 0 120.5 24.5t72.5 87.5l13 -2l-7 -126h-53q-49 -48 -49 -84q0 -22 16.5 -34t41.5 -12q26 0 51 16l5 -4l-36 -63
q-17 -12 -46 -12q-33 0 -56 19.5t-23 50.5q0 52 78 123h-425zM310 368v12q36 0 55 24.5t19 55.5h12q0 -31 18.5 -55.5t52.5 -24.5v-12q-34 0 -52.5 -22.5t-18.5 -54.5h-12q0 32 -18.5 54.5t-55.5 22.5z" />
    <glyph glyph-name="F.ss04" horiz-adv-x="531" 
d="M47 0v14q24 8 32 32.5t8 80.5v446q0 56 -8 80.5t-32 32.5v14h453l7 -111l-13 -3q-28 53 -68 74.5t-113 21.5h-120v-555q0 -56 8 -80.5t32 -32.5v-14h-186zM272 400v12q36 0 55 24.5t19 55.5h12q0 -31 18.5 -55.5t52.5 -24.5v-12q-34 0 -52.5 -22.5t-18.5 -54.5h-12
q0 32 -18.5 54.5t-55.5 22.5z" />
    <glyph glyph-name="H.ss04" horiz-adv-x="734" 
d="M47 0v14q24 8 32 32.5t8 80.5v446q0 56 -8 80.5t-32 32.5v14h186v-14q-24 -8 -32 -32.5t-8 -80.5v-446q0 -56 8 -80.5t32 -32.5v-14h-186zM289 360v12q36 0 55 24.5t19 55.5h12q0 -31 18.5 -55.5t52.5 -24.5v-12q-34 0 -52.5 -22.5t-18.5 -54.5h-12q0 32 -18.5 54.5
t-55.5 22.5zM501 0v14q24 8 32 32.5t8 80.5v446q0 56 -8 80.5t-32 32.5v14h186v-14q-24 -8 -32 -32.5t-8 -80.5v-446q0 -56 8 -80.5t32 -32.5v-14h-186z" />
    <glyph glyph-name="O.ss04" horiz-adv-x="820" 
d="M412 -10q-52 0 -102.5 13.5t-97 42.5t-81.5 70.5t-56 102.5t-21 134q0 151 100.5 253t257.5 102q65 0 127.5 -22.5t114.5 -65.5t83.5 -114t31.5 -159t-32 -158t-84 -112.5t-114 -64.5t-127 -22zM158 414q11 -156 99.5 -274.5t211.5 -118.5q108 0 157 70t42 177
q-8 108 -47.5 201.5t-108.5 153t-152 59.5q-101 0 -155.5 -73t-46.5 -195zM335 354v12q36 0 55 24.5t19 55.5h12q0 -31 18.5 -55.5t52.5 -24.5v-12q-34 0 -52.5 -22.5t-18.5 -54.5h-12q0 32 -18.5 54.5t-55.5 22.5z" />
    <glyph glyph-name="Oacute.ss04" horiz-adv-x="820" 
d="M412 -10q-52 0 -102.5 13.5t-97 42.5t-81.5 70.5t-56 102.5t-21 134q0 151 100.5 253t257.5 102q65 0 127.5 -22.5t114.5 -65.5t83.5 -114t31.5 -159t-32 -158t-84 -112.5t-114 -64.5t-127 -22zM158 414q11 -156 99.5 -274.5t211.5 -118.5q108 0 157 70t42 177
q-8 108 -47.5 201.5t-108.5 153t-152 59.5q-101 0 -155.5 -73t-46.5 -195zM274 756l101 87q31 28 50 28t41 -12.5t22 -23.5q0 -23 -38 -34l-172 -52zM335 354v12q36 0 55 24.5t19 55.5h12q0 -31 18.5 -55.5t52.5 -24.5v-12q-34 0 -52.5 -22.5t-18.5 -54.5h-12
q0 32 -18.5 54.5t-55.5 22.5z" />
    <glyph glyph-name="Ocircumflex.ss04" horiz-adv-x="820" 
d="M412 -10q-52 0 -102.5 13.5t-97 42.5t-81.5 70.5t-56 102.5t-21 134q0 151 100.5 253t257.5 102q65 0 127.5 -22.5t114.5 -65.5t83.5 -114t31.5 -159t-32 -158t-84 -112.5t-114 -64.5t-127 -22zM158 414q11 -156 99.5 -274.5t211.5 -118.5q108 0 157 70t42 177
q-8 108 -47.5 201.5t-108.5 153t-152 59.5q-101 0 -155.5 -73t-46.5 -195zM286 756l109 119h6l116 -117l-9 -9l-110 46l-104 -46zM335 354v12q36 0 55 24.5t19 55.5h12q0 -31 18.5 -55.5t52.5 -24.5v-12q-34 0 -52.5 -22.5t-18.5 -54.5h-12q0 32 -18.5 54.5t-55.5 22.5z" />
    <glyph glyph-name="Odieresis.ss04" horiz-adv-x="820" 
d="M412 -10q-52 0 -102.5 13.5t-97 42.5t-81.5 70.5t-56 102.5t-21 134q0 151 100.5 253t257.5 102q65 0 127.5 -22.5t114.5 -65.5t83.5 -114t31.5 -159t-32 -158t-84 -112.5t-114 -64.5t-127 -22zM158 414q11 -156 99.5 -274.5t211.5 -118.5q108 0 157 70t42 177
q-8 108 -47.5 201.5t-108.5 153t-152 59.5q-101 0 -155.5 -73t-46.5 -195zM262 816q0 22 15.5 37t37.5 15q24 0 39.5 -15.5t15.5 -38.5q0 -22 -16 -37.5t-39 -15.5t-38 15.5t-15 39.5zM335 354v12q36 0 55 24.5t19 55.5h12q0 -31 18.5 -55.5t52.5 -24.5v-12
q-34 0 -52.5 -22.5t-18.5 -54.5h-12q0 32 -18.5 54.5t-55.5 22.5zM432 816q0 22 16 37t39 15q22 0 37.5 -16t15.5 -38t-15 -37.5t-38 -15.5t-39 15.5t-16 39.5z" />
    <glyph glyph-name="Ograve.ss04" horiz-adv-x="820" 
d="M412 -10q-52 0 -102.5 13.5t-97 42.5t-81.5 70.5t-56 102.5t-21 134q0 151 100.5 253t257.5 102q65 0 127.5 -22.5t114.5 -65.5t83.5 -114t31.5 -159t-32 -158t-84 -112.5t-114 -64.5t-127 -22zM158 414q11 -156 99.5 -274.5t211.5 -118.5q108 0 157 70t42 177
q-8 108 -47.5 201.5t-108.5 153t-152 59.5q-101 0 -155.5 -73t-46.5 -195zM274 835q0 11 22 23.5t41 12.5t50 -28l101 -87l-4 -7l-172 52q-38 11 -38 34zM335 354v12q36 0 55 24.5t19 55.5h12q0 -31 18.5 -55.5t52.5 -24.5v-12q-34 0 -52.5 -22.5t-18.5 -54.5h-12
q0 32 -18.5 54.5t-55.5 22.5z" />
    <glyph glyph-name="Ohungarumlaut.ss04" horiz-adv-x="820" 
d="M412 -10q-52 0 -102.5 13.5t-97 42.5t-81.5 70.5t-56 102.5t-21 134q0 151 100.5 253t257.5 102q65 0 127.5 -22.5t114.5 -65.5t83.5 -114t31.5 -159t-32 -158t-84 -112.5t-114 -64.5t-127 -22zM158 414q11 -156 99.5 -274.5t211.5 -118.5q108 0 157 70t42 177
q-8 108 -47.5 201.5t-108.5 153t-152 59.5q-101 0 -155.5 -73t-46.5 -195zM294 751l82 89q16 17 26 22.5t27 5.5q40 0 40 -18q0 -16 -38 -36l-132 -68zM335 354v12q36 0 55 24.5t19 55.5h12q0 -31 18.5 -55.5t52.5 -24.5v-12q-34 0 -52.5 -22.5t-18.5 -54.5h-12
q0 32 -18.5 54.5t-55.5 22.5zM434 751l82 89q16 17 25 22.5t25 5.5q43 0 43 -18q0 -16 -38 -36l-132 -68z" />
    <glyph glyph-name="Omacron.ss04" horiz-adv-x="820" 
d="M412 -10q-52 0 -102.5 13.5t-97 42.5t-81.5 70.5t-56 102.5t-21 134q0 151 100.5 253t257.5 102q65 0 127.5 -22.5t114.5 -65.5t83.5 -114t31.5 -159t-32 -158t-84 -112.5t-114 -64.5t-127 -22zM158 414q11 -156 99.5 -274.5t211.5 -118.5q108 0 157 70t42 177
q-8 108 -47.5 201.5t-108.5 153t-152 59.5q-101 0 -155.5 -73t-46.5 -195zM260 787l24 31q10 14 30 14h227l3 -4l-24 -31q-11 -14 -30 -14h-227zM335 354v12q36 0 55 24.5t19 55.5h12q0 -31 18.5 -55.5t52.5 -24.5v-12q-34 0 -52.5 -22.5t-18.5 -54.5h-12q0 32 -18.5 54.5
t-55.5 22.5z" />
    <glyph glyph-name="Otilde.ss04" horiz-adv-x="820" 
d="M412 -10q-52 0 -102.5 13.5t-97 42.5t-81.5 70.5t-56 102.5t-21 134q0 151 100.5 253t257.5 102q65 0 127.5 -22.5t114.5 -65.5t83.5 -114t31.5 -159t-32 -158t-84 -112.5t-114 -64.5t-127 -22zM158 414q11 -156 99.5 -274.5t211.5 -118.5q108 0 157 70t42 177
q-8 108 -47.5 201.5t-108.5 153t-152 59.5q-101 0 -155.5 -73t-46.5 -195zM249 755q41 109 101 109q21 0 76.5 -20t74.5 -20t30.5 11.5t23.5 43.5l10 -3q-37 -120 -103 -120q-32 0 -79 20.5t-73 20.5q-34 0 -51 -46zM335 354v12q36 0 55 24.5t19 55.5h12q0 -31 18.5 -55.5
t52.5 -24.5v-12q-34 0 -52.5 -22.5t-18.5 -54.5h-12q0 32 -18.5 54.5t-55.5 22.5z" />
    <glyph glyph-name="OE.ss04" horiz-adv-x="1030" 
d="M411 -10q-68 0 -130.5 22t-114 64.5t-82 111.5t-30.5 155q0 87 33 158t87.5 115t121 67.5t138.5 23.5q81 0 145 -7h378l12 -112l-13 -3q-23 52 -68 74.5t-128 22.5h-122v-614q0 -50 50 -50h101q78 0 121 23.5t72 86.5h13l-7 -128h-452q-56 -10 -125 -10zM156 423
q0 -69 18 -139t52 -132.5t91.5 -102t128.5 -39.5q90 0 90 71v505q0 50 -32.5 72.5t-107.5 22.5q-117 0 -178.5 -72.5t-61.5 -185.5zM729 398v12q36 0 55 24.5t19 55.5h12q0 -31 18.5 -55.5t52.5 -24.5v-12q-34 0 -52.5 -22.5t-18.5 -54.5h-12q0 32 -18.5 54.5t-55.5 22.5z
" />
    <glyph glyph-name="K_E" horiz-adv-x="1121" 
d="M725 -10q-57 0 -102.5 21t-76 55t-56 75t-48 82t-46 75t-56 55t-72.5 21h-18l-57 -59v-188q0 -56 8 -80.5t32 -32.5v-14h-186v14q24 8 32 32.5t8 80.5v446q0 56 -8 80.5t-32 32.5v14h186v-14q-24 -8 -32 -32.5t-8 -80.5v-235l243 249q91 92 24 103v10h157v-14
q-84 -23 -137 -77l-214 -219l26 2q63 5 113.5 -12.5t83 -50t59.5 -72.5t51 -81.5t49.5 -76t62 -56t82.5 -21.5q37 0 70 20.5t52 52.5l10 -8q-62 -97 -200 -97zM680 190v14q24 8 32 32.5t8 80.5v256q0 56 -8 80.5t-32 32.5v14h385l9 -98l-13 -2q-23 50 -54.5 67.5t-99.5 17.5
h-81v-210h22q79 0 111.5 15.5t43.5 52.5h13v-151h-13q-11 37 -43.5 52.5t-111.5 15.5h-22v-205q0 -50 50 -50h48q57 0 89.5 20t59.5 69l13 -2l-8 -102h-398z" />
    <glyph glyph-name="K_Eacute" horiz-adv-x="1121" 
d="M725 -10q-57 0 -102.5 21t-76 55t-56 75t-48 82t-46 75t-56 55t-72.5 21h-18l-57 -59v-188q0 -56 8 -80.5t32 -32.5v-14h-186v14q24 8 32 32.5t8 80.5v446q0 56 -8 80.5t-32 32.5v14h186v-14q-24 -8 -32 -32.5t-8 -80.5v-235l243 249q91 92 24 103v10h157v-14
q-84 -23 -137 -77l-214 -219l26 2q63 5 113.5 -12.5t83 -50t59.5 -72.5t51 -81.5t49.5 -76t62 -56t82.5 -21.5q37 0 70 20.5t52 52.5l10 -8q-62 -97 -200 -97zM680 190v14q24 8 32 32.5t8 80.5v256q0 56 -8 80.5t-32 32.5v14h385l9 -98l-13 -2q-23 50 -54.5 67.5t-99.5 17.5
h-81v-210h22q79 0 111.5 15.5t43.5 52.5h13v-151h-13q-11 37 -43.5 52.5t-111.5 15.5h-22v-205q0 -50 50 -50h48q57 0 89.5 20t59.5 69l13 -2l-8 -102h-398zM710 752l101 87q31 28 50 28t41 -12.5t22 -23.5q0 -23 -38 -34l-172 -52z" />
    <glyph glyph-name="K_Ecaron" horiz-adv-x="1121" 
d="M725 -10q-57 0 -102.5 21t-76 55t-56 75t-48 82t-46 75t-56 55t-72.5 21h-18l-57 -59v-188q0 -56 8 -80.5t32 -32.5v-14h-186v14q24 8 32 32.5t8 80.5v446q0 56 -8 80.5t-32 32.5v14h186v-14q-24 -8 -32 -32.5t-8 -80.5v-235l243 249q91 92 24 103v10h157v-14
q-84 -23 -137 -77l-214 -219l26 2q63 5 113.5 -12.5t83 -50t59.5 -72.5t51 -81.5t49.5 -76t62 -56t82.5 -21.5q37 0 70 20.5t52 52.5l10 -8q-62 -97 -200 -97zM680 190v14q24 8 32 32.5t8 80.5v256q0 56 -8 80.5t-32 32.5v14h385l9 -98l-13 -2q-23 50 -54.5 67.5t-99.5 17.5
h-81v-210h22q79 0 111.5 15.5t43.5 52.5h13v-151h-13q-11 37 -43.5 52.5t-111.5 15.5h-22v-205q0 -50 50 -50h48q57 0 89.5 20t59.5 69l13 -2l-8 -102h-398zM683 859l8 7l104 -46l110 46l9 -9l-116 -117h-6z" />
    <glyph glyph-name="K_Edieresis" horiz-adv-x="1121" 
d="M725 -10q-57 0 -102.5 21t-76 55t-56 75t-48 82t-46 75t-56 55t-72.5 21h-18l-57 -59v-188q0 -56 8 -80.5t32 -32.5v-14h-186v14q24 8 32 32.5t8 80.5v446q0 56 -8 80.5t-32 32.5v14h186v-14q-24 -8 -32 -32.5t-8 -80.5v-235l243 249q91 92 24 103v10h157v-14
q-84 -23 -137 -77l-214 -219l26 2q63 5 113.5 -12.5t83 -50t59.5 -72.5t51 -81.5t49.5 -76t62 -56t82.5 -21.5q37 0 70 20.5t52 52.5l10 -8q-62 -97 -200 -97zM680 190v14q24 8 32 32.5t8 80.5v256q0 56 -8 80.5t-32 32.5v14h385l9 -98l-13 -2q-23 50 -54.5 67.5t-99.5 17.5
h-81v-210h22q79 0 111.5 15.5t43.5 52.5h13v-151h-13q-11 37 -43.5 52.5t-111.5 15.5h-22v-205q0 -50 50 -50h48q57 0 89.5 20t59.5 69l13 -2l-8 -102h-398zM700 815q0 22 15.5 37t37.5 15q24 0 39.5 -15.5t15.5 -38.5q0 -22 -16 -37.5t-39 -15.5t-38 15.5t-15 39.5z
M870 815q0 22 16 37t39 15q22 0 37.5 -16t15.5 -38q0 -23 -15 -38t-38 -15t-39 15.5t-16 39.5z" />
    <glyph glyph-name="K_Edotaccent" horiz-adv-x="1121" 
d="M725 -10q-57 0 -102.5 21t-76 55t-56 75t-48 82t-46 75t-56 55t-72.5 21h-18l-57 -59v-188q0 -56 8 -80.5t32 -32.5v-14h-186v14q24 8 32 32.5t8 80.5v446q0 56 -8 80.5t-32 32.5v14h186v-14q-24 -8 -32 -32.5t-8 -80.5v-235l243 249q91 92 24 103v10h157v-14
q-84 -23 -137 -77l-214 -219l26 2q63 5 113.5 -12.5t83 -50t59.5 -72.5t51 -81.5t49.5 -76t62 -56t82.5 -21.5q37 0 70 20.5t52 52.5l10 -8q-62 -97 -200 -97zM680 190v14q24 8 32 32.5t8 80.5v256q0 56 -8 80.5t-32 32.5v14h385l9 -98l-13 -2q-23 50 -54.5 67.5t-99.5 17.5
h-81v-210h22q79 0 111.5 15.5t43.5 52.5h13v-151h-13q-11 37 -43.5 52.5t-111.5 15.5h-22v-205q0 -50 50 -50h48q57 0 89.5 20t59.5 69l13 -2l-8 -102h-398zM802 803q0 29 19.5 49t48.5 20q30 0 49 -19.5t19 -49.5q0 -29 -20 -48.5t-48 -19.5t-48 19.5t-20 48.5z" />
    <glyph glyph-name="K_Egrave" horiz-adv-x="1121" 
d="M725 -10q-57 0 -102.5 21t-76 55t-56 75t-48 82t-46 75t-56 55t-72.5 21h-18l-57 -59v-188q0 -56 8 -80.5t32 -32.5v-14h-186v14q24 8 32 32.5t8 80.5v446q0 56 -8 80.5t-32 32.5v14h186v-14q-24 -8 -32 -32.5t-8 -80.5v-235l243 249q91 92 24 103v10h157v-14
q-84 -23 -137 -77l-214 -219l26 2q63 5 113.5 -12.5t83 -50t59.5 -72.5t51 -81.5t49.5 -76t62 -56t82.5 -21.5q37 0 70 20.5t52 52.5l10 -8q-62 -97 -200 -97zM680 190v14q24 8 32 32.5t8 80.5v256q0 56 -8 80.5t-32 32.5v14h385l9 -98l-13 -2q-23 50 -54.5 67.5t-99.5 17.5
h-81v-210h22q79 0 111.5 15.5t43.5 52.5h13v-151h-13q-11 37 -43.5 52.5t-111.5 15.5h-22v-205q0 -50 50 -50h48q57 0 89.5 20t59.5 69l13 -2l-8 -102h-398zM720 833q0 11 22 23.5t41 12.5t50 -28l101 -87l-4 -7l-172 52q-38 11 -38 34z" />
    <glyph glyph-name="K_O" horiz-adv-x="1213" 
d="M725 -10q-57 0 -102.5 21t-76 55t-56 75t-48 82t-46 75t-56 55t-72.5 21h-18l-57 -59v-188q0 -56 8 -80.5t32 -32.5v-14h-186v14q24 8 32 32.5t8 80.5v446q0 56 -8 80.5t-32 32.5v14h186v-14q-24 -8 -32 -32.5t-8 -80.5v-235l243 249q91 92 24 103v10h157v-14
q-84 -23 -137 -77l-214 -219l26 2q63 5 113.5 -12.5t83 -50t59.5 -72.5t51 -81.5t49.5 -76t62 -56t82.5 -21.5q37 0 70 20.5t52 52.5l10 -8q-62 -97 -200 -97zM629 437q0 118 80 194t187 76q66 0 124.5 -24.5t100 -83t41.5 -141.5q0 -61 -25 -113.5t-64 -85t-85.5 -51
t-91.5 -18.5q-108 0 -187.5 64t-79.5 183zM729 512q0 -63 22 -130t70 -118.5t110 -51.5q68 0 99 49t31 121q0 66 -26 138t-77.5 122.5t-112.5 44.5t-88.5 -54.5t-27.5 -120.5z" />
    <glyph glyph-name="K_Oacute" horiz-adv-x="1213" 
d="M725 -10q-57 0 -102.5 21t-76 55t-56 75t-48 82t-46 75t-56 55t-72.5 21h-18l-57 -59v-188q0 -56 8 -80.5t32 -32.5v-14h-186v14q24 8 32 32.5t8 80.5v446q0 56 -8 80.5t-32 32.5v14h186v-14q-24 -8 -32 -32.5t-8 -80.5v-235l243 249q91 92 24 103v10h157v-14
q-84 -23 -137 -77l-214 -219l26 2q63 5 113.5 -12.5t83 -50t59.5 -72.5t51 -81.5t49.5 -76t62 -56t82.5 -21.5q37 0 70 20.5t52 52.5l10 -8q-62 -97 -200 -97zM629 437q0 118 80 194t187 76q66 0 124.5 -24.5t100 -83t41.5 -141.5q0 -61 -25 -113.5t-64 -85t-85.5 -51
t-91.5 -18.5q-108 0 -187.5 64t-79.5 183zM729 512q0 -63 22 -130t70 -118.5t110 -51.5q68 0 99 49t31 121q0 66 -26 138t-77.5 122.5t-112.5 44.5t-88.5 -54.5t-27.5 -120.5zM850 754l101 87q31 28 50 28t41 -12.5t22 -23.5q0 -23 -38 -34l-172 -52z" />
    <glyph glyph-name="K_Ocircumflex" horiz-adv-x="1213" 
d="M725 -10q-57 0 -102.5 21t-76 55t-56 75t-48 82t-46 75t-56 55t-72.5 21h-18l-57 -59v-188q0 -56 8 -80.5t32 -32.5v-14h-186v14q24 8 32 32.5t8 80.5v446q0 56 -8 80.5t-32 32.5v14h186v-14q-24 -8 -32 -32.5t-8 -80.5v-235l243 249q91 92 24 103v10h157v-14
q-84 -23 -137 -77l-214 -219l26 2q63 5 113.5 -12.5t83 -50t59.5 -72.5t51 -81.5t49.5 -76t62 -56t82.5 -21.5q37 0 70 20.5t52 52.5l10 -8q-62 -97 -200 -97zM629 437q0 118 80 194t187 76q66 0 124.5 -24.5t100 -83t41.5 -141.5q0 -61 -25 -113.5t-64 -85t-85.5 -51
t-91.5 -18.5q-108 0 -187.5 64t-79.5 183zM729 512q0 -63 22 -130t70 -118.5t110 -51.5q68 0 99 49t31 121q0 66 -26 138t-77.5 122.5t-112.5 44.5t-88.5 -54.5t-27.5 -120.5zM813 764l109 119h6l116 -117l-9 -9l-110 46l-104 -46z" />
    <glyph glyph-name="K_Odieresis" horiz-adv-x="1213" 
d="M725 -10q-57 0 -102.5 21t-76 55t-56 75t-48 82t-46 75t-56 55t-72.5 21h-18l-57 -59v-188q0 -56 8 -80.5t32 -32.5v-14h-186v14q24 8 32 32.5t8 80.5v446q0 56 -8 80.5t-32 32.5v14h186v-14q-24 -8 -32 -32.5t-8 -80.5v-235l243 249q91 92 24 103v10h157v-14
q-84 -23 -137 -77l-214 -219l26 2q63 5 113.5 -12.5t83 -50t59.5 -72.5t51 -81.5t49.5 -76t62 -56t82.5 -21.5q37 0 70 20.5t52 52.5l10 -8q-62 -97 -200 -97zM629 437q0 118 80 194t187 76q66 0 124.5 -24.5t100 -83t41.5 -141.5q0 -61 -25 -113.5t-64 -85t-85.5 -51
t-91.5 -18.5q-108 0 -187.5 64t-79.5 183zM729 512q0 -63 22 -130t70 -118.5t110 -51.5q68 0 99 49t31 121q0 66 -26 138t-77.5 122.5t-112.5 44.5t-88.5 -54.5t-27.5 -120.5zM810 804q0 22 15.5 37t37.5 15q24 0 39.5 -15.5t15.5 -38.5q0 -22 -16 -37.5t-39 -15.5t-38 15.5
t-15 39.5zM980 804q0 22 16 37t39 15q22 0 37.5 -16t15.5 -38t-15 -37.5t-38 -15.5t-39 15.5t-16 39.5z" />
    <glyph glyph-name="K_Ohungarumlaut" horiz-adv-x="1213" 
d="M725 -10q-57 0 -102.5 21t-76 55t-56 75t-48 82t-46 75t-56 55t-72.5 21h-18l-57 -59v-188q0 -56 8 -80.5t32 -32.5v-14h-186v14q24 8 32 32.5t8 80.5v446q0 56 -8 80.5t-32 32.5v14h186v-14q-24 -8 -32 -32.5t-8 -80.5v-235l243 249q91 92 24 103v10h157v-14
q-84 -23 -137 -77l-214 -219l26 2q63 5 113.5 -12.5t83 -50t59.5 -72.5t51 -81.5t49.5 -76t62 -56t82.5 -21.5q37 0 70 20.5t52 52.5l10 -8q-62 -97 -200 -97zM629 437q0 118 80 194t187 76q66 0 124.5 -24.5t100 -83t41.5 -141.5q0 -61 -25 -113.5t-64 -85t-85.5 -51
t-91.5 -18.5q-108 0 -187.5 64t-79.5 183zM729 512q0 -63 22 -130t70 -118.5t110 -51.5q68 0 99 49t31 121q0 66 -26 138t-77.5 122.5t-112.5 44.5t-88.5 -54.5t-27.5 -120.5zM806 746l82 89q16 17 26 22.5t27 5.5q40 0 40 -18q0 -16 -38 -36l-132 -68zM946 746l82 89
q16 17 25 22.5t25 5.5q43 0 43 -18q0 -16 -38 -36l-132 -68z" />
    <glyph glyph-name="K_Omacron" horiz-adv-x="1213" 
d="M725 -10q-57 0 -102.5 21t-76 55t-56 75t-48 82t-46 75t-56 55t-72.5 21h-18l-57 -59v-188q0 -56 8 -80.5t32 -32.5v-14h-186v14q24 8 32 32.5t8 80.5v446q0 56 -8 80.5t-32 32.5v14h186v-14q-24 -8 -32 -32.5t-8 -80.5v-235l243 249q91 92 24 103v10h157v-14
q-84 -23 -137 -77l-214 -219l26 2q63 5 113.5 -12.5t83 -50t59.5 -72.5t51 -81.5t49.5 -76t62 -56t82.5 -21.5q37 0 70 20.5t52 52.5l10 -8q-62 -97 -200 -97zM629 437q0 118 80 194t187 76q66 0 124.5 -24.5t100 -83t41.5 -141.5q0 -61 -25 -113.5t-64 -85t-85.5 -51
t-91.5 -18.5q-108 0 -187.5 64t-79.5 183zM729 512q0 -63 22 -130t70 -118.5t110 -51.5q68 0 99 49t31 121q0 66 -26 138t-77.5 122.5t-112.5 44.5t-88.5 -54.5t-27.5 -120.5zM787 762l24 31q11 14 30 14h227l3 -4l-24 -31q-11 -14 -30 -14h-227z" />
    <glyph glyph-name="K_Otilde" horiz-adv-x="1213" 
d="M725 -10q-57 0 -102.5 21t-76 55t-56 75t-48 82t-46 75t-56 55t-72.5 21h-18l-57 -59v-188q0 -56 8 -80.5t32 -32.5v-14h-186v14q24 8 32 32.5t8 80.5v446q0 56 -8 80.5t-32 32.5v14h186v-14q-24 -8 -32 -32.5t-8 -80.5v-235l243 249q91 92 24 103v10h157v-14
q-84 -23 -137 -77l-214 -219l26 2q63 5 113.5 -12.5t83 -50t59.5 -72.5t51 -81.5t49.5 -76t62 -56t82.5 -21.5q37 0 70 20.5t52 52.5l10 -8q-62 -97 -200 -97zM629 437q0 118 80 194t187 76q66 0 124.5 -24.5t100 -83t41.5 -141.5q0 -61 -25 -113.5t-64 -85t-85.5 -51
t-91.5 -18.5q-108 0 -187.5 64t-79.5 183zM729 512q0 -63 22 -130t70 -118.5t110 -51.5q68 0 99 49t31 121q0 66 -26 138t-77.5 122.5t-112.5 44.5t-88.5 -54.5t-27.5 -120.5zM796 740q41 109 101 109q21 0 76.5 -20t74.5 -20t30.5 11.5t23.5 43.5l10 -3q-38 -120 -103 -120
q-33 0 -79 20.5t-73 20.5q-34 0 -51 -46z" />
    <glyph glyph-name="uni004B018F" horiz-adv-x="1143" 
d="M858 181q-95 0 -151 54.5t-56 125.5h381q3 21 3 41q0 99 -54 159.5t-146 60.5q-108 0 -183 -84l-9 10q40 61 105.5 105.5t145.5 44.5q93 0 160 -63t67 -178q0 -122 -80 -199t-183 -77zM47 0v14q24 8 32 32.5t8 80.5v446q0 56 -8 80.5t-32 32.5v14h186v-14
q-24 -8 -32 -32.5t-8 -80.5v-235l243 249q91 92 24 103v10h157v-14q-84 -23 -137 -77l-214 -219l26 2q63 5 113.5 -12.5t83 -50t59.5 -72.5t51 -81.5t49.5 -76t62 -56t82.5 -21.5q37 0 70 20.5t52 52.5l10 -8q-62 -97 -200 -97q-57 0 -102.5 21t-76 55t-56 75t-48 82t-46 75
t-56 55t-72.5 21h-18l-57 -59v-188q0 -56 8 -80.5t32 -32.5v-14h-186zM752 347q10 -63 48 -105t89 -43q58 -1 93.5 41.5t47.5 106.5h-278z" />
    <glyph glyph-name="K_U" horiz-adv-x="1207" 
d="M937 190q-46 0 -86 11.5t-75 36.5t-55 71t-20 108v156q0 56 -8 80.5t-32 32.5v14h168v-14q-24 -8 -32 -32.5t-8 -80.5v-161q0 -202 176 -202q64 0 112 49.5t48 155.5v98q0 88 -17.5 124t-58.5 49v14h131v-14q-24 -8 -32 -32.5t-8 -80.5v-156q0 -116 -54.5 -171.5
t-148.5 -55.5zM47 0v14q24 8 32 32.5t8 80.5v446q0 56 -8 80.5t-32 32.5v14h186v-14q-24 -8 -32 -32.5t-8 -80.5v-235l243 249q91 92 24 103v10h157v-14q-84 -23 -137 -77l-214 -219l26 2q63 5 113.5 -12.5t83 -50t59.5 -72.5t51 -81.5t49.5 -76t62 -56t82.5 -21.5
q37 0 70 20.5t52 52.5l10 -8q-62 -97 -200 -97q-57 0 -102.5 21t-76 55t-56 75t-48 82t-46 75t-56 55t-72.5 21h-18l-57 -59v-188q0 -56 8 -80.5t32 -32.5v-14h-186z" />
    <glyph glyph-name="L_A" horiz-adv-x="823" 
d="M47 0v14q24 8 32 32.5t8 80.5v446q0 56 -8 80.5t-32 32.5v14h186v-14q-24 -8 -32 -32.5t-8 -80.5v-505q0 -50 50 -50h212q78 0 121 23.5t72 86.5l13 -2l-8 -126h-606zM291 189v14q48 18 83 104l119 298q8 20 0 40l-12 28l81 32l161 -398q32 -84 75 -104v-14h-165v14
q11 4 16 10t3.5 18t-6.5 26t-15 38q-3 8 -5 12l-23 59h-188l-23 -59q-37 -92 14 -104v-14h-115zM421 381h176l-88 222z" />
    <glyph glyph-name="L_E" horiz-adv-x="804" 
d="M47 0v14q24 8 32 32.5t8 80.5v446q0 56 -8 80.5t-32 32.5v14h186v-14q-24 -8 -32 -32.5t-8 -80.5v-505q0 -50 50 -50h132q78 0 121 23.5t72 86.5l13 -2l-8 -126h-526zM363 189v14q24 8 32 32.5t8 80.5v256q0 56 -8 80.5t-32 32.5v14h385l9 -98l-13 -2q-23 50 -54.5 67.5
t-99.5 17.5h-81v-210h22q79 0 111.5 15.5t43.5 52.5h13v-151h-13q-11 37 -43.5 52.5t-111.5 15.5h-22v-205q0 -50 50 -50h48q57 0 89.5 20t59.5 69l13 -2l-8 -102h-398z" />
    <glyph glyph-name="L_Eacute" horiz-adv-x="804" 
d="M47 0v14q24 8 32 32.5t8 80.5v446q0 56 -8 80.5t-32 32.5v14h186v-14q-24 -8 -32 -32.5t-8 -80.5v-505q0 -50 50 -50h132q78 0 121 23.5t72 86.5l13 -2l-8 -126h-526zM363 189v14q24 8 32 32.5t8 80.5v256q0 56 -8 80.5t-32 32.5v14h385l9 -98l-13 -2q-23 50 -54.5 67.5
t-99.5 17.5h-81v-210h22q79 0 111.5 15.5t43.5 52.5h13v-151h-13q-11 37 -43.5 52.5t-111.5 15.5h-22v-205q0 -50 50 -50h48q57 0 89.5 20t59.5 69l13 -2l-8 -102h-398zM467 752l101 87q32 28 50 28q19 0 41 -12.5t22 -23.5q0 -23 -38 -34l-172 -52z" />
    <glyph glyph-name="L_Ecaron" horiz-adv-x="804" 
d="M47 0v14q24 8 32 32.5t8 80.5v446q0 56 -8 80.5t-32 32.5v14h186v-14q-24 -8 -32 -32.5t-8 -80.5v-505q0 -50 50 -50h132q78 0 121 23.5t72 86.5l13 -2l-8 -126h-526zM363 189v14q24 8 32 32.5t8 80.5v256q0 56 -8 80.5t-32 32.5v14h385l9 -98l-13 -2q-23 50 -54.5 67.5
t-99.5 17.5h-81v-210h22q79 0 111.5 15.5t43.5 52.5h13v-151h-13q-11 37 -43.5 52.5t-111.5 15.5h-22v-205q0 -50 50 -50h48q57 0 89.5 20t59.5 69l13 -2l-8 -102h-398zM430 864l8 7l104 -46l110 46l9 -9l-116 -117h-6z" />
    <glyph glyph-name="L_Edieresis" horiz-adv-x="804" 
d="M47 0v14q24 8 32 32.5t8 80.5v446q0 56 -8 80.5t-32 32.5v14h186v-14q-24 -8 -32 -32.5t-8 -80.5v-505q0 -50 50 -50h132q78 0 121 23.5t72 86.5l13 -2l-8 -126h-526zM363 189v14q24 8 32 32.5t8 80.5v256q0 56 -8 80.5t-32 32.5v14h385l9 -98l-13 -2q-23 50 -54.5 67.5
t-99.5 17.5h-81v-210h22q79 0 111.5 15.5t43.5 52.5h13v-151h-13q-11 37 -43.5 52.5t-111.5 15.5h-22v-205q0 -50 50 -50h48q57 0 89.5 20t59.5 69l13 -2l-8 -102h-398zM437 812q0 22 15.5 37t37.5 15q24 0 39.5 -15.5t15.5 -38.5q0 -22 -16 -37.5t-39 -15.5t-38 15.5
t-15 39.5zM607 812q0 22 16 37t39 15q22 0 37.5 -16t15.5 -38t-15.5 -37.5t-37.5 -15.5q-23 0 -39 15.5t-16 39.5z" />
    <glyph glyph-name="L_Edotaccent" horiz-adv-x="804" 
d="M47 0v14q24 8 32 32.5t8 80.5v446q0 56 -8 80.5t-32 32.5v14h186v-14q-24 -8 -32 -32.5t-8 -80.5v-505q0 -50 50 -50h132q78 0 121 23.5t72 86.5l13 -2l-8 -126h-526zM363 189v14q24 8 32 32.5t8 80.5v256q0 56 -8 80.5t-32 32.5v14h385l9 -98l-13 -2q-23 50 -54.5 67.5
t-99.5 17.5h-81v-210h22q79 0 111.5 15.5t43.5 52.5h13v-151h-13q-11 37 -43.5 52.5t-111.5 15.5h-22v-205q0 -50 50 -50h48q57 0 89.5 20t59.5 69l13 -2l-8 -102h-398zM470 807q0 29 19.5 49t48.5 20q30 0 49 -19.5t19 -49.5q0 -29 -20 -48.5t-48 -19.5t-48 19.5t-20 48.5z
" />
    <glyph glyph-name="L_Egrave" horiz-adv-x="804" 
d="M47 0v14q24 8 32 32.5t8 80.5v446q0 56 -8 80.5t-32 32.5v14h186v-14q-24 -8 -32 -32.5t-8 -80.5v-505q0 -50 50 -50h132q78 0 121 23.5t72 86.5l13 -2l-8 -126h-526zM363 189v14q24 8 32 32.5t8 80.5v256q0 56 -8 80.5t-32 32.5v14h385l9 -98l-13 -2q-23 50 -54.5 67.5
t-99.5 17.5h-81v-210h22q79 0 111.5 15.5t43.5 52.5h13v-151h-13q-11 37 -43.5 52.5t-111.5 15.5h-22v-205q0 -50 50 -50h48q57 0 89.5 20t59.5 69l13 -2l-8 -102h-398zM446 834q0 11 22 23.5t41 12.5t50 -28l101 -87l-4 -7l-172 52q-38 11 -38 34z" />
    <glyph glyph-name="L_I" horiz-adv-x="623" 
d="M47 0v14q24 8 32 32.5t8 80.5v446q0 56 -8 80.5t-32 32.5v14h186v-14q-24 -8 -32 -32.5t-8 -80.5v-505q0 -50 50 -50h82q78 0 121 23.5t72 86.5l13 -2l-8 -126h-476zM385 190v14q24 8 32 32.5t8 80.5v256q0 56 -8 80.5t-32 32.5v14h179v-14q-24 -8 -32 -32.5t-8 -80.5
v-256q0 -56 8 -80.5t32 -32.5v-14h-179z" />
    <glyph glyph-name="L_L" horiz-adv-x="738" 
d="M47 0v14q24 8 32 32.5t8 80.5v446q0 56 -8 80.5t-32 32.5v14h186v-14q-24 -8 -32 -32.5t-8 -80.5v-505q0 -50 50 -50h212q77 0 121.5 23.5t79.5 86.5l13 -2l-16 -126h-606zM327 190v14q24 8 32 32.5t8 80.5v256q0 56 -8 80.5t-32 32.5v14h181v-14q-24 -8 -32 -32.5
t-8 -80.5v-325q0 -40 45 -40h17q71 0 112 22t63 80h15l-12 -120h-381z" />
    <glyph glyph-name="L_O" horiz-adv-x="897" 
d="M47 0v14q24 8 32 32.5t8 80.5v446q0 56 -8 80.5t-32 32.5v14h186v-14q-24 -8 -32 -32.5t-8 -80.5v-505q0 -50 50 -50h212q78 0 121 23.5t72 86.5l13 -2l-8 -126h-606zM313 436q0 118 80 194t187 76q66 0 124.5 -24.5t100 -83t41.5 -141.5q0 -61 -25 -113.5t-64 -85
t-85.5 -51t-91.5 -18.5q-108 0 -187.5 64t-79.5 183zM413 511q0 -63 22 -130t70 -118.5t110 -51.5q68 0 99 49t31 121q0 66 -26 138t-77.5 122.5t-112.5 44.5t-88.5 -54.5t-27.5 -120.5z" />
    <glyph glyph-name="L_Oacute" horiz-adv-x="897" 
d="M47 0v14q24 8 32 32.5t8 80.5v446q0 56 -8 80.5t-32 32.5v14h186v-14q-24 -8 -32 -32.5t-8 -80.5v-505q0 -50 50 -50h212q78 0 121 23.5t72 86.5l13 -2l-8 -126h-606zM313 436q0 118 80 194t187 76q66 0 124.5 -24.5t100 -83t41.5 -141.5q0 -61 -25 -113.5t-64 -85
t-85.5 -51t-91.5 -18.5q-108 0 -187.5 64t-79.5 183zM413 511q0 -63 22 -130t70 -118.5t110 -51.5q68 0 99 49t31 121q0 66 -26 138t-77.5 122.5t-112.5 44.5t-88.5 -54.5t-27.5 -120.5zM520 752l101 87q31 28 50 28t41 -12.5t22 -23.5q0 -23 -38 -34l-172 -52z" />
    <glyph glyph-name="L_Ocircumflex" horiz-adv-x="897" 
d="M47 0v14q24 8 32 32.5t8 80.5v446q0 56 -8 80.5t-32 32.5v14h186v-14q-24 -8 -32 -32.5t-8 -80.5v-505q0 -50 50 -50h212q78 0 121 23.5t72 86.5l13 -2l-8 -126h-606zM313 436q0 118 80 194t187 76q66 0 124.5 -24.5t100 -83t41.5 -141.5q0 -61 -25 -113.5t-64 -85
t-85.5 -51t-91.5 -18.5q-108 0 -187.5 64t-79.5 183zM413 511q0 -63 22 -130t70 -118.5t110 -51.5q68 0 99 49t31 121q0 66 -26 138t-77.5 122.5t-112.5 44.5t-88.5 -54.5t-27.5 -120.5zM478 762l109 119h6l116 -117l-9 -9l-110 46l-104 -46z" />
    <glyph glyph-name="L_Odieresis" horiz-adv-x="897" 
d="M47 0v14q24 8 32 32.5t8 80.5v446q0 56 -8 80.5t-32 32.5v14h186v-14q-24 -8 -32 -32.5t-8 -80.5v-505q0 -50 50 -50h212q78 0 121 23.5t72 86.5l13 -2l-8 -126h-606zM313 436q0 118 80 194t187 76q66 0 124.5 -24.5t100 -83t41.5 -141.5q0 -61 -25 -113.5t-64 -85
t-85.5 -51t-91.5 -18.5q-108 0 -187.5 64t-79.5 183zM413 511q0 -63 22 -130t70 -118.5t110 -51.5q68 0 99 49t31 121q0 66 -26 138t-77.5 122.5t-112.5 44.5t-88.5 -54.5t-27.5 -120.5zM447 817q0 22 15.5 37t37.5 15q24 0 39.5 -15.5t15.5 -38.5q0 -22 -16 -37.5
t-39 -15.5t-38 15.5t-15 39.5zM617 817q0 22 16 37t39 15q22 0 37.5 -16t15.5 -38q0 -23 -15.5 -38t-37.5 -15q-23 0 -39 15.5t-16 39.5z" />
    <glyph glyph-name="L_Ohungarumlaut" horiz-adv-x="897" 
d="M47 0v14q24 8 32 32.5t8 80.5v446q0 56 -8 80.5t-32 32.5v14h186v-14q-24 -8 -32 -32.5t-8 -80.5v-505q0 -50 50 -50h212q78 0 121 23.5t72 86.5l13 -2l-8 -126h-606zM313 436q0 118 80 194t187 76q66 0 124.5 -24.5t100 -83t41.5 -141.5q0 -61 -25 -113.5t-64 -85
t-85.5 -51t-91.5 -18.5q-108 0 -187.5 64t-79.5 183zM413 511q0 -63 22 -130t70 -118.5t110 -51.5q68 0 99 49t31 121q0 66 -26 138t-77.5 122.5t-112.5 44.5t-88.5 -54.5t-27.5 -120.5zM476 746l82 89q16 17 26 22.5t27 5.5q40 0 40 -18q0 -16 -38 -36l-132 -68zM616 746
l82 89q16 17 25 22.5t25 5.5q43 0 43 -18q0 -16 -38 -36l-132 -68z" />
    <glyph glyph-name="L_Omacron" horiz-adv-x="897" 
d="M47 0v14q24 8 32 32.5t8 80.5v446q0 56 -8 80.5t-32 32.5v14h186v-14q-24 -8 -32 -32.5t-8 -80.5v-505q0 -50 50 -50h212q78 0 121 23.5t72 86.5l13 -2l-8 -126h-606zM313 436q0 118 80 194t187 76q66 0 124.5 -24.5t100 -83t41.5 -141.5q0 -61 -25 -113.5t-64 -85
t-85.5 -51t-91.5 -18.5q-108 0 -187.5 64t-79.5 183zM413 511q0 -63 22 -130t70 -118.5t110 -51.5q68 0 99 49t31 121q0 66 -26 138t-77.5 122.5t-112.5 44.5t-88.5 -54.5t-27.5 -120.5zM457 762l24 31q10 14 30 14h227l3 -4l-24 -31q-11 -14 -30 -14h-227z" />
    <glyph glyph-name="L_Otilde" horiz-adv-x="897" 
d="M47 0v14q24 8 32 32.5t8 80.5v446q0 56 -8 80.5t-32 32.5v14h186v-14q-24 -8 -32 -32.5t-8 -80.5v-505q0 -50 50 -50h212q78 0 121 23.5t72 86.5l13 -2l-8 -126h-606zM313 436q0 118 80 194t187 76q66 0 124.5 -24.5t100 -83t41.5 -141.5q0 -61 -25 -113.5t-64 -85
t-85.5 -51t-91.5 -18.5q-108 0 -187.5 64t-79.5 183zM413 511q0 -63 22 -130t70 -118.5t110 -51.5q68 0 99 49t31 121q0 66 -26 138t-77.5 122.5t-112.5 44.5t-88.5 -54.5t-27.5 -120.5zM413 736q41 109 101 109q21 0 76.5 -20t74.5 -20t30.5 11.5t23.5 43.5l10 -3
q-37 -120 -103 -120q-32 0 -79 20.5t-73 20.5q-34 0 -51 -46z" />
    <glyph glyph-name="L_S" horiz-adv-x="739" 
d="M47 0v14q24 8 32 32.5t8 80.5v446q0 56 -8 80.5t-32 32.5v14h186v-14q-24 -8 -32 -32.5t-8 -80.5v-505q0 -50 50 -50h212q78 0 121 23.5t72 86.5l13 -4l-8 -124h-606zM331 368l10 2q33 -75 86 -119t118 -45q45 -1 73.5 24.5t28.5 61.5q0 45 -32.5 69t-105.5 47
q-90 27 -130 58t-40 93t49.5 104t145.5 42q91 0 152 -25l5 -110l-12 -2q-26 55 -71 89t-98 34q-47 0 -75.5 -21.5t-28.5 -54.5q0 -39 32.5 -62t107.5 -48q87 -29 115 -49q53 -37 53 -104q0 -66 -46.5 -114t-146.5 -48q-109 0 -180 47z" />
    <glyph glyph-name="uni004C018F" horiz-adv-x="876" 
d="M47 0v14q24 8 32 32.5t8 80.5v446q0 56 -8 80.5t-32 32.5v14h186v-14q-24 -8 -32 -32.5t-8 -80.5v-505q0 -50 50 -50h212q78 0 121 23.5t72 86.5l13 -3l-8 -125h-606zM347 557q40 61 105.5 105.5t145.5 44.5q93 0 160 -63t67 -178q0 -122 -80 -199t-183 -77
q-95 0 -151 54.5t-56 125.5h381q3 21 3 41q0 99 -54 159.5t-146 60.5q-108 0 -183 -84zM456 356q10 -63 48 -105t89 -43q58 -1 93.5 41.5t47.5 106.5h-278z" />
    <glyph glyph-name="L_U" horiz-adv-x="856" 
d="M47 0v14q24 8 32 32.5t8 80.5v446q0 56 -8 80.5t-32 32.5v14h186v-14q-24 -8 -32 -32.5t-8 -80.5v-505q0 -50 50 -50h192q78 0 121 23.5t72 86.5l13 -3l-8 -125h-586zM310 686v14h168v-14q-24 -8 -32 -32.5t-8 -80.5v-161q0 -202 176 -202q64 0 112 49.5t48 155.5v98
q0 88 -17.5 124t-58.5 49v14h131v-14q-24 -8 -32 -32.5t-8 -80.5v-156q0 -116 -54.5 -171.5t-148.5 -55.5q-46 0 -86 11.5t-75 36.5t-55 71t-20 108v156q0 56 -8 80.5t-32 32.5z" />
    <glyph glyph-name="O_C" horiz-adv-x="1061" 
d="M412 -10q-52 0 -102.5 13.5t-97 42.5t-81.5 70.5t-56 102.5t-21 134q0 151 100.5 253t257.5 102q92 0 173 -42q88 41 195 41q63 0 128 -12.5t101 -36.5l4 -132l-12 -3q-30 76 -99 120.5t-148 44.5q-82 0 -144 -36q73 -46 116 -123t43 -182q0 -188 -138 -288
q70 -48 159 -48q82 0 139.5 46t85.5 126l13 -2l-16 -143q-106 -48 -251 -48q-108 0 -191 34q-75 -34 -158 -34zM158 414q11 -156 99.5 -274.5t211.5 -118.5q46 0 79 13q-173 85 -173 304q0 85 36 159t102 125q-69 60 -153 60q-101 0 -155.5 -73t-46.5 -195zM481 383
q0 -94 34 -176t97 -133q64 66 56 194q-7 95 -39.5 181t-85.5 144q-62 -81 -62 -210z" />
    <glyph glyph-name="O_G" horiz-adv-x="1085" 
d="M412 -10q-52 0 -102.5 13.5t-97 42.5t-81.5 70.5t-56 102.5t-21 134q0 151 100.5 253t257.5 102q86 0 165 -38q79 37 174 37q54 0 117.5 -12.5t99.5 -36.5l4 -132l-12 -3q-30 75 -99.5 120t-146.5 45q-68 0 -117 -29q78 -44 125 -123t47 -189q0 -184 -132 -283
q68 -50 148 -50q49 0 88 19.5t57 56.5v91q0 60 -10.5 84.5t-41.5 33.5v14h155v-184q-52 -68 -131.5 -103.5t-149.5 -35.5q-101 0 -179 35q-78 -35 -161 -35zM158 414q11 -156 99.5 -274.5t211.5 -118.5q47 0 83 14q-84 45 -130.5 127.5t-46.5 190.5q0 81 35 153t97 121
q-66 55 -147 55q-101 0 -155.5 -73t-46.5 -195zM480 419q-1 -96 35.5 -189t101.5 -150q59 66 51 188q-7 99 -42.5 188t-92.5 147q-52 -71 -53 -184z" />
    <glyph glyph-name="O_O" horiz-adv-x="1141" 
d="M412 -10q-52 0 -102.5 13.5t-97 42.5t-81.5 70.5t-56 102.5t-21 134q0 151 100.5 253t257.5 102q81 0 159 -35q76 35 162 35q65 0 127.5 -22.5t114.5 -65.5t83.5 -114t31.5 -159t-32 -158t-84 -112.5t-114 -64.5t-127 -22q-87 0 -161 35q-74 -35 -160 -35zM158 414
q11 -156 99.5 -274.5t211.5 -118.5q46 0 83 14q-81 43 -129 123t-48 195q0 84 33.5 156.5t94.5 121.5q-67 51 -143 51q-101 0 -155.5 -73t-46.5 -195zM479 414q7 -96 45.5 -183t100.5 -142q51 67 43 179q-8 103 -45 194t-97 148q-56 -72 -47 -196zM591 663q80 -43 129 -123
t49 -193q0 -175 -123 -276q69 -50 144 -50q108 0 157 70t42 177q-8 108 -47.5 201.5t-108.5 153t-152 59.5q-49 0 -90 -19z" />
    <glyph glyph-name="R_A" horiz-adv-x="1048" 
d="M680 -10q-66 0 -118 25t-83 63.5t-58 84.5t-45 86.5t-42 71.5t-50 38h-22h-69v-232q0 -56 8 -80.5t32 -32.5v-14h-186v14q24 8 32 32.5t8 80.5v446q0 56 -8 80.5t-32 32.5v14h210q78 0 132.5 -13t81.5 -37t38 -50.5t11 -59.5q0 -69 -46.5 -115.5t-137.5 -60.5
q41 -13 79 -44.5t64.5 -67.5t57.5 -76t58.5 -72t67.5 -52.5t86 -20.5q37 0 69.5 17t52.5 42l10 -8q-30 -38 -83.5 -65t-117.5 -27zM193 375h64q81 0 119 39t38 102q0 68 -45 118t-132 50q-21 0 -44 -3v-306zM564 190v14q48 18 83 104l119 298q8 20 0 40l-12 28l81 32
l161 -398q32 -84 75 -104v-14h-165v14q11 4 16 10t3.5 18t-6.5 26t-15 38q-3 8 -5 12l-23 59h-188l-23 -59q-37 -92 14 -104v-14h-115zM694 382h176l-88 222z" />
    <glyph glyph-name="R_Aacute" horiz-adv-x="1048" 
d="M680 -10q-66 0 -118 25t-83 63.5t-58 84.5t-45 86.5t-42 71.5t-50 38h-22h-69v-232q0 -56 8 -80.5t32 -32.5v-14h-186v14q24 8 32 32.5t8 80.5v446q0 56 -8 80.5t-32 32.5v14h210q78 0 132.5 -13t81.5 -37t38 -50.5t11 -59.5q0 -69 -46.5 -115.5t-137.5 -60.5
q41 -13 79 -44.5t64.5 -67.5t57.5 -76t58.5 -72t67.5 -52.5t86 -20.5q37 0 69.5 17t52.5 42l10 -8q-30 -38 -83.5 -65t-117.5 -27zM193 375h64q81 0 119 39t38 102q0 68 -45 118t-132 50q-21 0 -44 -3v-306zM564 190v14q48 18 83 104l119 298q8 20 0 40l-12 28l81 32
l161 -398q32 -84 75 -104v-14h-165v14q11 4 16 10t3.5 18t-6.5 26t-15 38q-3 8 -5 12l-23 59h-188l-23 -59q-37 -92 14 -104v-14h-115zM694 382h176l-88 222zM757 756l101 87q32 28 50 28q19 0 41 -12.5t22 -23.5q0 -23 -38 -34l-172 -52z" />
    <glyph glyph-name="R_Abreve" horiz-adv-x="1048" 
d="M680 -10q-66 0 -118 25t-83 63.5t-58 84.5t-45 86.5t-42 71.5t-50 38h-22h-69v-232q0 -56 8 -80.5t32 -32.5v-14h-186v14q24 8 32 32.5t8 80.5v446q0 56 -8 80.5t-32 32.5v14h210q78 0 132.5 -13t81.5 -37t38 -50.5t11 -59.5q0 -69 -46.5 -115.5t-137.5 -60.5
q41 -13 79 -44.5t64.5 -67.5t57.5 -76t58.5 -72t67.5 -52.5t86 -20.5q37 0 69.5 17t52.5 42l10 -8q-30 -38 -83.5 -65t-117.5 -27zM193 375h64q81 0 119 39t38 102q0 68 -45 118t-132 50q-21 0 -44 -3v-306zM564 190v14q48 18 83 104l119 298q8 20 0 40l-12 28l81 32
l161 -398q32 -84 75 -104v-14h-165v14q11 4 16 10t3.5 18t-6.5 26t-15 38q-3 8 -5 12l-23 59h-188l-23 -59q-37 -92 14 -104v-14h-115zM694 382h176l-88 222zM715 858l12 5q13 -15 22.5 -23t29.5 -15.5t46 -7.5q38 0 58.5 11.5t39.5 34.5l11 -5q-27 -59 -50 -83t-59 -24
q-37 0 -60 24t-50 83z" />
    <glyph glyph-name="R_Acircumflex" horiz-adv-x="1048" 
d="M680 -10q-66 0 -118 25t-83 63.5t-58 84.5t-45 86.5t-42 71.5t-50 38h-22h-69v-232q0 -56 8 -80.5t32 -32.5v-14h-186v14q24 8 32 32.5t8 80.5v446q0 56 -8 80.5t-32 32.5v14h210q78 0 132.5 -13t81.5 -37t38 -50.5t11 -59.5q0 -69 -46.5 -115.5t-137.5 -60.5
q41 -13 79 -44.5t64.5 -67.5t57.5 -76t58.5 -72t67.5 -52.5t86 -20.5q37 0 69.5 17t52.5 42l10 -8q-30 -38 -83.5 -65t-117.5 -27zM193 375h64q81 0 119 39t38 102q0 68 -45 118t-132 50q-21 0 -44 -3v-306zM564 190v14q48 18 83 104l119 298q8 20 0 40l-12 28l81 32
l161 -398q32 -84 75 -104v-14h-165v14q11 4 16 10t3.5 18t-6.5 26t-15 38q-3 8 -5 12l-23 59h-188l-23 -59q-37 -92 14 -104v-14h-115zM694 382h176l-88 222zM708 756l109 119h6l116 -117l-9 -9l-110 46l-104 -46z" />
    <glyph glyph-name="R_Adieresis" horiz-adv-x="1048" 
d="M680 -10q-66 0 -118 25t-83 63.5t-58 84.5t-45 86.5t-42 71.5t-50 38h-22h-69v-232q0 -56 8 -80.5t32 -32.5v-14h-186v14q24 8 32 32.5t8 80.5v446q0 56 -8 80.5t-32 32.5v14h210q78 0 132.5 -13t81.5 -37t38 -50.5t11 -59.5q0 -69 -46.5 -115.5t-137.5 -60.5
q41 -13 79 -44.5t64.5 -67.5t57.5 -76t58.5 -72t67.5 -52.5t86 -20.5q37 0 69.5 17t52.5 42l10 -8q-30 -38 -83.5 -65t-117.5 -27zM193 375h64q81 0 119 39t38 102q0 68 -45 118t-132 50q-21 0 -44 -3v-306zM564 190v14q48 18 83 104l119 298q8 20 0 40l-12 28l81 32
l161 -398q32 -84 75 -104v-14h-165v14q11 4 16 10t3.5 18t-6.5 26t-15 38q-3 8 -5 12l-23 59h-188l-23 -59q-37 -92 14 -104v-14h-115zM685 816q0 22 15.5 37t37.5 15q24 0 39.5 -15.5t15.5 -38.5q0 -22 -16 -37.5t-39 -15.5t-38 15.5t-15 39.5zM694 382h176l-88 222z
M855 816q0 22 16 37t39 15q22 0 37.5 -16t15.5 -38t-15.5 -37.5t-37.5 -15.5q-23 0 -39 15.5t-16 39.5z" />
    <glyph glyph-name="R_Agrave" horiz-adv-x="1048" 
d="M680 -10q-66 0 -118 25t-83 63.5t-58 84.5t-45 86.5t-42 71.5t-50 38h-22h-69v-232q0 -56 8 -80.5t32 -32.5v-14h-186v14q24 8 32 32.5t8 80.5v446q0 56 -8 80.5t-32 32.5v14h210q78 0 132.5 -13t81.5 -37t38 -50.5t11 -59.5q0 -69 -46.5 -115.5t-137.5 -60.5
q41 -13 79 -44.5t64.5 -67.5t57.5 -76t58.5 -72t67.5 -52.5t86 -20.5q37 0 69.5 17t52.5 42l10 -8q-30 -38 -83.5 -65t-117.5 -27zM193 375h64q81 0 119 39t38 102q0 68 -45 118t-132 50q-21 0 -44 -3v-306zM564 190v14q48 18 83 104l119 298q8 20 0 40l-12 28l81 32
l161 -398q32 -84 75 -104v-14h-165v14q11 4 16 10t3.5 18t-6.5 26t-15 38q-3 8 -5 12l-23 59h-188l-23 -59q-37 -92 14 -104v-14h-115zM694 382h176l-88 222zM715 835q0 11 22 23.5t41 12.5q18 0 50 -28l101 -87l-4 -7l-172 52q-38 11 -38 34z" />
    <glyph glyph-name="R_Aring" horiz-adv-x="1048" 
d="M680 -10q-66 0 -118 25t-83 63.5t-58 84.5t-45 86.5t-42 71.5t-50 38h-22h-69v-232q0 -56 8 -80.5t32 -32.5v-14h-186v14q24 8 32 32.5t8 80.5v446q0 56 -8 80.5t-32 32.5v14h210q78 0 132.5 -13t81.5 -37t38 -50.5t11 -59.5q0 -69 -46.5 -115.5t-137.5 -60.5
q41 -13 79 -44.5t64.5 -67.5t57.5 -76t58.5 -72t67.5 -52.5t86 -20.5q37 0 69.5 17t52.5 42l10 -8q-30 -38 -83.5 -65t-117.5 -27zM193 375h64q81 0 119 39t38 102q0 68 -45 118t-132 50q-21 0 -44 -3v-306zM564 190v14q48 18 83 104l119 298q8 20 0 40l-12 28l81 32
l161 -398q32 -84 75 -104v-14h-165v14q11 4 16 10t3.5 18t-6.5 26t-15 38q-3 8 -5 12l-23 59h-188l-23 -59q-37 -92 14 -104v-14h-115zM694 382h176l-88 222zM752 815q0 30 19 50t49 20q33 0 51.5 -19t18.5 -49q0 -29 -20 -49t-50 -20t-49 19.5t-19 47.5zM764 815
q0 -25 16 -41t40 -16q25 0 41.5 17t16.5 42t-16 41.5t-42 16.5q-24 0 -40 -16.5t-16 -43.5z" />
    <glyph glyph-name="R_Atilde" horiz-adv-x="1048" 
d="M680 -10q-66 0 -118 25t-83 63.5t-58 84.5t-45 86.5t-42 71.5t-50 38h-22h-69v-232q0 -56 8 -80.5t32 -32.5v-14h-186v14q24 8 32 32.5t8 80.5v446q0 56 -8 80.5t-32 32.5v14h210q78 0 132.5 -13t81.5 -37t38 -50.5t11 -59.5q0 -69 -46.5 -115.5t-137.5 -60.5
q41 -13 79 -44.5t64.5 -67.5t57.5 -76t58.5 -72t67.5 -52.5t86 -20.5q37 0 69.5 17t52.5 42l10 -8q-30 -38 -83.5 -65t-117.5 -27zM193 375h64q81 0 119 39t38 102q0 68 -45 118t-132 50q-21 0 -44 -3v-306zM564 190v14q48 18 83 104l119 298q8 20 0 40l-12 28l81 32
l161 -398q32 -84 75 -104v-14h-165v14q11 4 16 10t3.5 18t-6.5 26t-15 38q-3 8 -5 12l-23 59h-188l-23 -59q-37 -92 14 -104v-14h-115zM670 755q41 109 101 109q21 0 76.5 -20t74.5 -20t30.5 11.5t23.5 43.5l10 -3q-38 -120 -103 -120q-33 0 -79 20.5t-73 20.5
q-34 0 -51 -46zM694 382h176l-88 222z" />
    <glyph glyph-name="R_C" horiz-adv-x="1146" 
d="M811 -10q-63 0 -118 20.5t-94.5 53t-74.5 71.5t-66 78.5t-62 72t-69.5 53t-80.5 20.5h-53v-232q0 -56 8 -80.5t32 -32.5v-14h-186v14q24 8 32 32.5t8 80.5v446q0 56 -8 80.5t-32 32.5v14h210q78 0 132.5 -13t81.5 -37t38 -50.5t11 -59.5q0 -69 -46.5 -115.5t-137.5 -60.5
q77 -14 142 -54t109.5 -86t86.5 -90t93.5 -73.5t111.5 -29.5q37 0 69.5 17t52.5 42l10 -8q-30 -38 -83 -65t-117 -27zM193 375h64q81 0 119 39t38 102q0 68 -45 118t-132 50q-21 0 -44 -3v-306zM638 441q0 115 80.5 190t211.5 75q105 0 163 -29l8 -113l-12 -2q-23 64 -73 97
t-112 31q-84 -4 -123.5 -64t-40.5 -160q0 -42 8.5 -83t28.5 -83.5t60.5 -68.5t96.5 -26q65 0 102.5 35.5t65.5 100.5l9 -2l-6 -99q-87 -52 -194 -50q-122 2 -197.5 66t-75.5 185z" />
    <glyph glyph-name="R_E" horiz-adv-x="1098" 
d="M710 -10q-55 0 -99 18.5t-73.5 49t-54.5 67t-46.5 75t-43 71.5t-51.5 57t-66 31h-14h-69v-232q0 -56 8 -80.5t32 -32.5v-14h-186v14q24 8 32 32.5t8 80.5v446q0 56 -8 80.5t-32 32.5v14h210q78 0 132.5 -13t81.5 -37t38 -50.5t11 -59.5q0 -68 -45.5 -114.5t-134.5 -60.5
q67 -16 120.5 -56.5t87 -86.5t65 -89.5t73 -72.5t92.5 -29q37 0 69.5 17t52.5 42l10 -8q-30 -38 -83 -65t-117 -27zM193 375h64q81 0 119 39t38 102q0 68 -45 118t-132 50q-21 0 -44 -3v-306zM657 190v14q24 8 32 32.5t8 80.5v256q0 56 -8 80.5t-32 32.5v14h385l9 -98
l-13 -2q-23 50 -54.5 67.5t-99.5 17.5h-81v-210h22q79 0 111.5 15.5t43.5 52.5h13v-151h-13q-11 37 -43.5 52.5t-111.5 15.5h-22v-205q0 -50 50 -50h48q57 0 89.5 20t59.5 69l13 -2l-8 -102h-398z" />
    <glyph glyph-name="R_Eacute" horiz-adv-x="1098" 
d="M710 -10q-55 0 -99 18.5t-73.5 49t-54.5 67t-46.5 75t-43 71.5t-51.5 57t-66 31h-14h-69v-232q0 -56 8 -80.5t32 -32.5v-14h-186v14q24 8 32 32.5t8 80.5v446q0 56 -8 80.5t-32 32.5v14h210q78 0 132.5 -13t81.5 -37t38 -50.5t11 -59.5q0 -68 -45.5 -114.5t-134.5 -60.5
q67 -16 120.5 -56.5t87 -86.5t65 -89.5t73 -72.5t92.5 -29q37 0 69.5 17t52.5 42l10 -8q-30 -38 -83 -65t-117 -27zM193 375h64q81 0 119 39t38 102q0 68 -45 118t-132 50q-21 0 -44 -3v-306zM657 190v14q24 8 32 32.5t8 80.5v256q0 56 -8 80.5t-32 32.5v14h385l9 -98
l-13 -2q-23 50 -54.5 67.5t-99.5 17.5h-81v-210h22q79 0 111.5 15.5t43.5 52.5h13v-151h-13q-11 37 -43.5 52.5t-111.5 15.5h-22v-205q0 -50 50 -50h48q57 0 89.5 20t59.5 69l13 -2l-8 -102h-398zM767 752l101 87q32 28 50 28q19 0 41 -12.5t22 -23.5q0 -23 -38 -34
l-172 -52z" />
    <glyph glyph-name="R_Ecaron" horiz-adv-x="1098" 
d="M710 -10q-55 0 -99 18.5t-73.5 49t-54.5 67t-46.5 75t-43 71.5t-51.5 57t-66 31h-14h-69v-232q0 -56 8 -80.5t32 -32.5v-14h-186v14q24 8 32 32.5t8 80.5v446q0 56 -8 80.5t-32 32.5v14h210q78 0 132.5 -13t81.5 -37t38 -50.5t11 -59.5q0 -68 -45.5 -114.5t-134.5 -60.5
q67 -16 120.5 -56.5t87 -86.5t65 -89.5t73 -72.5t92.5 -29q37 0 69.5 17t52.5 42l10 -8q-30 -38 -83 -65t-117 -27zM193 375h64q81 0 119 39t38 102q0 68 -45 118t-132 50q-21 0 -44 -3v-306zM657 190v14q24 8 32 32.5t8 80.5v256q0 56 -8 80.5t-32 32.5v14h385l9 -98
l-13 -2q-23 50 -54.5 67.5t-99.5 17.5h-81v-210h22q79 0 111.5 15.5t43.5 52.5h13v-151h-13q-11 37 -43.5 52.5t-111.5 15.5h-22v-205q0 -50 50 -50h48q57 0 89.5 20t59.5 69l13 -2l-8 -102h-398zM730 864l8 7l104 -46l110 46l9 -9l-116 -117h-6z" />
    <glyph glyph-name="R_Edieresis" horiz-adv-x="1098" 
d="M710 -10q-55 0 -99 18.5t-73.5 49t-54.5 67t-46.5 75t-43 71.5t-51.5 57t-66 31h-14h-69v-232q0 -56 8 -80.5t32 -32.5v-14h-186v14q24 8 32 32.5t8 80.5v446q0 56 -8 80.5t-32 32.5v14h210q78 0 132.5 -13t81.5 -37t38 -50.5t11 -59.5q0 -68 -45.5 -114.5t-134.5 -60.5
q67 -16 120.5 -56.5t87 -86.5t65 -89.5t73 -72.5t92.5 -29q37 0 69.5 17t52.5 42l10 -8q-30 -38 -83 -65t-117 -27zM193 375h64q81 0 119 39t38 102q0 68 -45 118t-132 50q-21 0 -44 -3v-306zM657 190v14q24 8 32 32.5t8 80.5v256q0 56 -8 80.5t-32 32.5v14h385l9 -98
l-13 -2q-23 50 -54.5 67.5t-99.5 17.5h-81v-210h22q79 0 111.5 15.5t43.5 52.5h13v-151h-13q-11 37 -43.5 52.5t-111.5 15.5h-22v-205q0 -50 50 -50h48q57 0 89.5 20t59.5 69l13 -2l-8 -102h-398zM737 812q0 22 15.5 37t37.5 15q24 0 39.5 -15.5t15.5 -38.5q0 -22 -16 -37.5
t-39 -15.5t-38 15.5t-15 39.5zM907 812q0 22 16 37t39 15q22 0 37.5 -16t15.5 -38t-15.5 -37.5t-37.5 -15.5q-23 0 -39 15.5t-16 39.5z" />
    <glyph glyph-name="R_Edotaccent" horiz-adv-x="1098" 
d="M710 -10q-55 0 -99 18.5t-73.5 49t-54.5 67t-46.5 75t-43 71.5t-51.5 57t-66 31h-14h-69v-232q0 -56 8 -80.5t32 -32.5v-14h-186v14q24 8 32 32.5t8 80.5v446q0 56 -8 80.5t-32 32.5v14h210q78 0 132.5 -13t81.5 -37t38 -50.5t11 -59.5q0 -68 -45.5 -114.5t-134.5 -60.5
q67 -16 120.5 -56.5t87 -86.5t65 -89.5t73 -72.5t92.5 -29q37 0 69.5 17t52.5 42l10 -8q-30 -38 -83 -65t-117 -27zM193 375h64q81 0 119 39t38 102q0 68 -45 118t-132 50q-21 0 -44 -3v-306zM657 190v14q24 8 32 32.5t8 80.5v256q0 56 -8 80.5t-32 32.5v14h385l9 -98
l-13 -2q-23 50 -54.5 67.5t-99.5 17.5h-81v-210h22q79 0 111.5 15.5t43.5 52.5h13v-151h-13q-11 37 -43.5 52.5t-111.5 15.5h-22v-205q0 -50 50 -50h48q57 0 89.5 20t59.5 69l13 -2l-8 -102h-398zM770 807q0 29 19.5 49t48.5 20q30 0 49 -19.5t19 -49.5q0 -29 -20 -48.5
t-48 -19.5t-48 19.5t-20 48.5z" />
    <glyph glyph-name="R_Egrave" horiz-adv-x="1098" 
d="M710 -10q-55 0 -99 18.5t-73.5 49t-54.5 67t-46.5 75t-43 71.5t-51.5 57t-66 31h-14h-69v-232q0 -56 8 -80.5t32 -32.5v-14h-186v14q24 8 32 32.5t8 80.5v446q0 56 -8 80.5t-32 32.5v14h210q78 0 132.5 -13t81.5 -37t38 -50.5t11 -59.5q0 -68 -45.5 -114.5t-134.5 -60.5
q67 -16 120.5 -56.5t87 -86.5t65 -89.5t73 -72.5t92.5 -29q37 0 69.5 17t52.5 42l10 -8q-30 -38 -83 -65t-117 -27zM193 375h64q81 0 119 39t38 102q0 68 -45 118t-132 50q-21 0 -44 -3v-306zM657 190v14q24 8 32 32.5t8 80.5v256q0 56 -8 80.5t-32 32.5v14h385l9 -98
l-13 -2q-23 50 -54.5 67.5t-99.5 17.5h-81v-210h22q79 0 111.5 15.5t43.5 52.5h13v-151h-13q-11 37 -43.5 52.5t-111.5 15.5h-22v-205q0 -50 50 -50h48q57 0 89.5 20t59.5 69l13 -2l-8 -102h-398zM747 834q0 11 22 23.5t41 12.5t50 -28l101 -87l-4 -7l-172 52q-38 11 -38 34
z" />
    <glyph glyph-name="R_I" horiz-adv-x="874" 
d="M670 -10q-66 0 -118 25t-82.5 63t-57.5 84t-43.5 86.5t-39 72t-46.5 38.5h-21h-69v-232q0 -56 8 -80.5t32 -32.5v-14h-186v14q24 8 32 32.5t8 80.5v446q0 56 -8 80.5t-32 32.5v14h210q78 0 132.5 -13t81.5 -37t38 -50.5t11 -59.5q0 -69 -46 -115.5t-137 -60.5
q50 -16 92 -56.5t72 -86t61 -89.5t73 -72.5t94 -28.5q37 0 69.5 17t52.5 42l10 -8q-30 -38 -81.5 -65t-109.5 -27zM193 375h64q81 0 119 39t38 102q0 68 -45 118t-132 50q-21 0 -44 -3v-306zM641 190v14q24 8 32 32.5t8 80.5v256q0 56 -8 80.5t-32 32.5v14h179v-14
q-24 -8 -32 -32.5t-8 -80.5v-256q0 -56 8 -80.5t32 -32.5v-14h-179z" />
    <glyph glyph-name="R_O" horiz-adv-x="1222" 
d="M905 190q-108 0 -187.5 64t-79.5 183q0 118 80 194t187 76q66 0 124.5 -24.5t100 -83t41.5 -141.5q0 -61 -25 -113.5t-64 -85t-85.5 -51t-91.5 -18.5zM47 0v14q24 8 32 32.5t8 80.5v446q0 56 -8 80.5t-32 32.5v14h210q78 0 132.5 -13t81.5 -37t38 -50.5t11 -59.5
q0 -69 -46.5 -115.5t-137.5 -60.5q77 -14 142 -54t109.5 -86t86.5 -90t93.5 -73.5t111.5 -29.5q37 0 69.5 17t52.5 42l10 -8q-30 -38 -83 -65t-117 -27q-63 0 -118 20.5t-94.5 53t-74.5 71.5t-66 78.5t-62 72t-69.5 53t-80.5 20.5h-53v-232q0 -56 8 -80.5t32 -32.5v-14h-186
zM193 375h64q81 0 119 39t38 102q0 68 -45 118t-132 50q-21 0 -44 -3v-306zM738 512q0 -63 22 -130t70 -118.5t110 -51.5q68 0 99 49t31 121q0 66 -26 138t-77.5 122.5t-112.5 44.5t-88.5 -54.5t-27.5 -120.5z" />
    <glyph glyph-name="R_Oacute" horiz-adv-x="1222" 
d="M905 190q-108 0 -187.5 64t-79.5 183q0 118 80 194t187 76q66 0 124.5 -24.5t100 -83t41.5 -141.5q0 -61 -25 -113.5t-64 -85t-85.5 -51t-91.5 -18.5zM47 0v14q24 8 32 32.5t8 80.5v446q0 56 -8 80.5t-32 32.5v14h210q78 0 132.5 -13t81.5 -37t38 -50.5t11 -59.5
q0 -69 -46.5 -115.5t-137.5 -60.5q77 -14 142 -54t109.5 -86t86.5 -90t93.5 -73.5t111.5 -29.5q37 0 69.5 17t52.5 42l10 -8q-30 -38 -83 -65t-117 -27q-63 0 -118 20.5t-94.5 53t-74.5 71.5t-66 78.5t-62 72t-69.5 53t-80.5 20.5h-53v-232q0 -56 8 -80.5t32 -32.5v-14h-186
zM193 375h64q81 0 119 39t38 102q0 68 -45 118t-132 50q-21 0 -44 -3v-306zM738 512q0 -63 22 -130t70 -118.5t110 -51.5q68 0 99 49t31 121q0 66 -26 138t-77.5 122.5t-112.5 44.5t-88.5 -54.5t-27.5 -120.5zM820 752l101 87q31 28 50 28t41 -12.5t22 -23.5q0 -23 -38 -34
l-172 -52z" />
    <glyph glyph-name="R_Ocircumflex" horiz-adv-x="1222" 
d="M905 190q-108 0 -187.5 64t-79.5 183q0 118 80 194t187 76q66 0 124.5 -24.5t100 -83t41.5 -141.5q0 -61 -25 -113.5t-64 -85t-85.5 -51t-91.5 -18.5zM47 0v14q24 8 32 32.5t8 80.5v446q0 56 -8 80.5t-32 32.5v14h210q78 0 132.5 -13t81.5 -37t38 -50.5t11 -59.5
q0 -69 -46.5 -115.5t-137.5 -60.5q77 -14 142 -54t109.5 -86t86.5 -90t93.5 -73.5t111.5 -29.5q37 0 69.5 17t52.5 42l10 -8q-30 -38 -83 -65t-117 -27q-63 0 -118 20.5t-94.5 53t-74.5 71.5t-66 78.5t-62 72t-69.5 53t-80.5 20.5h-53v-232q0 -56 8 -80.5t32 -32.5v-14h-186
zM193 375h64q81 0 119 39t38 102q0 68 -45 118t-132 50q-21 0 -44 -3v-306zM738 512q0 -63 22 -130t70 -118.5t110 -51.5q68 0 99 49t31 121q0 66 -26 138t-77.5 122.5t-112.5 44.5t-88.5 -54.5t-27.5 -120.5zM798 762l109 119h6l116 -117l-9 -9l-110 46l-104 -46z" />
    <glyph glyph-name="R_Odieresis" horiz-adv-x="1222" 
d="M905 190q-108 0 -187.5 64t-79.5 183q0 118 80 194t187 76q66 0 124.5 -24.5t100 -83t41.5 -141.5q0 -61 -25 -113.5t-64 -85t-85.5 -51t-91.5 -18.5zM47 0v14q24 8 32 32.5t8 80.5v446q0 56 -8 80.5t-32 32.5v14h210q78 0 132.5 -13t81.5 -37t38 -50.5t11 -59.5
q0 -69 -46.5 -115.5t-137.5 -60.5q77 -14 142 -54t109.5 -86t86.5 -90t93.5 -73.5t111.5 -29.5q37 0 69.5 17t52.5 42l10 -8q-30 -38 -83 -65t-117 -27q-63 0 -118 20.5t-94.5 53t-74.5 71.5t-66 78.5t-62 72t-69.5 53t-80.5 20.5h-53v-232q0 -56 8 -80.5t32 -32.5v-14h-186
zM193 375h64q81 0 119 39t38 102q0 68 -45 118t-132 50q-21 0 -44 -3v-306zM738 512q0 -63 22 -130t70 -118.5t110 -51.5q68 0 99 49t31 121q0 66 -26 138t-77.5 122.5t-112.5 44.5t-88.5 -54.5t-27.5 -120.5zM777 817q0 22 15.5 37t37.5 15q24 0 39.5 -15.5t15.5 -38.5
q0 -22 -16 -37.5t-39 -15.5t-38 15.5t-15 39.5zM947 817q0 22 16 37t39 15q22 0 37.5 -16t15.5 -38q0 -23 -15.5 -38t-37.5 -15q-23 0 -39 15.5t-16 39.5z" />
    <glyph glyph-name="R_Ohungarumlaut" horiz-adv-x="1222" 
d="M905 190q-108 0 -187.5 64t-79.5 183q0 118 80 194t187 76q66 0 124.5 -24.5t100 -83t41.5 -141.5q0 -61 -25 -113.5t-64 -85t-85.5 -51t-91.5 -18.5zM47 0v14q24 8 32 32.5t8 80.5v446q0 56 -8 80.5t-32 32.5v14h210q78 0 132.5 -13t81.5 -37t38 -50.5t11 -59.5
q0 -69 -46.5 -115.5t-137.5 -60.5q77 -14 142 -54t109.5 -86t86.5 -90t93.5 -73.5t111.5 -29.5q37 0 69.5 17t52.5 42l10 -8q-30 -38 -83 -65t-117 -27q-63 0 -118 20.5t-94.5 53t-74.5 71.5t-66 78.5t-62 72t-69.5 53t-80.5 20.5h-53v-232q0 -56 8 -80.5t32 -32.5v-14h-186
zM193 375h64q81 0 119 39t38 102q0 68 -45 118t-132 50q-21 0 -44 -3v-306zM738 512q0 -63 22 -130t70 -118.5t110 -51.5q68 0 99 49t31 121q0 66 -26 138t-77.5 122.5t-112.5 44.5t-88.5 -54.5t-27.5 -120.5zM796 746l82 89q16 17 26 22.5t27 5.5q40 0 40 -18
q0 -16 -38 -36l-132 -68zM936 746l82 89q16 17 25 22.5t25 5.5q43 0 43 -18q0 -16 -38 -36l-132 -68z" />
    <glyph glyph-name="R_Omacron" horiz-adv-x="1222" 
d="M905 190q-108 0 -187.5 64t-79.5 183q0 118 80 194t187 76q66 0 124.5 -24.5t100 -83t41.5 -141.5q0 -61 -25 -113.5t-64 -85t-85.5 -51t-91.5 -18.5zM47 0v14q24 8 32 32.5t8 80.5v446q0 56 -8 80.5t-32 32.5v14h210q78 0 132.5 -13t81.5 -37t38 -50.5t11 -59.5
q0 -69 -46.5 -115.5t-137.5 -60.5q77 -14 142 -54t109.5 -86t86.5 -90t93.5 -73.5t111.5 -29.5q37 0 69.5 17t52.5 42l10 -8q-30 -38 -83 -65t-117 -27q-63 0 -118 20.5t-94.5 53t-74.5 71.5t-66 78.5t-62 72t-69.5 53t-80.5 20.5h-53v-232q0 -56 8 -80.5t32 -32.5v-14h-186
zM193 375h64q81 0 119 39t38 102q0 68 -45 118t-132 50q-21 0 -44 -3v-306zM738 512q0 -63 22 -130t70 -118.5t110 -51.5q68 0 99 49t31 121q0 66 -26 138t-77.5 122.5t-112.5 44.5t-88.5 -54.5t-27.5 -120.5zM787 762l24 31q11 14 30 14h227l3 -4l-24 -31q-11 -14 -30 -14
h-227z" />
    <glyph glyph-name="R_Otilde" horiz-adv-x="1222" 
d="M905 190q-108 0 -187.5 64t-79.5 183q0 118 80 194t187 76q66 0 124.5 -24.5t100 -83t41.5 -141.5q0 -61 -25 -113.5t-64 -85t-85.5 -51t-91.5 -18.5zM47 0v14q24 8 32 32.5t8 80.5v446q0 56 -8 80.5t-32 32.5v14h210q78 0 132.5 -13t81.5 -37t38 -50.5t11 -59.5
q0 -69 -46.5 -115.5t-137.5 -60.5q77 -14 142 -54t109.5 -86t86.5 -90t93.5 -73.5t111.5 -29.5q37 0 69.5 17t52.5 42l10 -8q-30 -38 -83 -65t-117 -27q-63 0 -118 20.5t-94.5 53t-74.5 71.5t-66 78.5t-62 72t-69.5 53t-80.5 20.5h-53v-232q0 -56 8 -80.5t32 -32.5v-14h-186
zM193 375h64q81 0 119 39t38 102q0 68 -45 118t-132 50q-21 0 -44 -3v-306zM738 512q0 -63 22 -130t70 -118.5t110 -51.5q68 0 99 49t31 121q0 66 -26 138t-77.5 122.5t-112.5 44.5t-88.5 -54.5t-27.5 -120.5zM763 736q41 109 101 109q21 0 76.5 -20t74.5 -20t30.5 11.5
t23.5 43.5l10 -3q-37 -120 -103 -120q-32 0 -79 20.5t-73 20.5q-34 0 -51 -46z" />
    <glyph glyph-name="R_S" horiz-adv-x="1057" 
d="M710 -10q-55 0 -99 18.5t-73.5 49t-54.5 67t-46.5 75t-43 71.5t-51.5 57t-66 31h-14h-69v-232q0 -56 8 -80.5t32 -32.5v-14h-186v14q24 8 32 32.5t8 80.5v446q0 56 -8 80.5t-32 32.5v14h210q78 0 132.5 -13t81.5 -37t38 -50.5t11 -59.5q0 -68 -45.5 -114.5t-134.5 -60.5
q67 -16 120.5 -56.5t87 -86.5t65 -89.5t73 -72.5t92.5 -29q37 0 69.5 17t52.5 42l10 -8q-30 -38 -83 -65t-117 -27zM193 375h64q81 0 119 39t38 102q0 68 -45 118t-132 50q-21 0 -44 -3v-306zM650 370l10 2q33 -75 86 -119t118 -45q45 -1 73.5 24.5t28.5 61.5q0 45 -32.5 69
t-105.5 47q-90 27 -130 58t-40 93t49.5 104t145.5 42q91 0 152 -25l5 -110l-12 -2q-26 55 -71 89t-98 34q-47 0 -75.5 -21.5t-28.5 -54.5q0 -39 32.5 -62t107.5 -48q87 -29 115 -49q53 -37 53 -104q0 -66 -46.5 -114t-146.5 -48q-109 0 -180 47z" />
    <glyph glyph-name="uni0052018F" horiz-adv-x="1164" 
d="M811 -10q-63 0 -118 20.5t-94.5 53t-74.5 71.5t-66 78.5t-62 72t-69.5 53t-80.5 20.5h-53v-232q0 -56 8 -80.5t32 -32.5v-14h-186v14q24 8 32 32.5t8 80.5v446q0 56 -8 80.5t-32 32.5v14h210q78 0 132.5 -13t81.5 -37t38 -50.5t11 -59.5q0 -69 -46.5 -115.5t-137.5 -60.5
q77 -14 142 -54t109.5 -86t86.5 -90t93.5 -73.5t111.5 -29.5q37 0 69.5 17t52.5 42l10 -8q-30 -38 -83 -65t-117 -27zM193 375h64q81 0 119 39t38 102q0 68 -45 118t-132 50q-21 0 -44 -3v-306zM635 549q40 61 105.5 105.5t145.5 44.5q93 0 160 -63t67 -178q0 -122 -80 -199
t-183 -77q-95 0 -151 54.5t-56 125.5h381q3 21 3 41q0 99 -54 159.5t-146 60.5q-108 0 -183 -84zM744 348q10 -63 48 -105t89 -43q58 -1 93.5 41.5t47.5 106.5h-278z" />
    <glyph glyph-name="R_U" horiz-adv-x="1205" 
d="M935 190q-46 0 -86 11.5t-75 36.5t-55 71t-20 108v156q0 56 -8 80.5t-32 32.5v14h168v-14q-24 -8 -32 -32.5t-8 -80.5v-161q0 -202 176 -202q64 0 112 49.5t48 155.5v98q0 88 -17.5 124t-58.5 49v14h131v-14q-24 -8 -32 -32.5t-8 -80.5v-156q0 -116 -54.5 -171.5
t-148.5 -55.5zM47 0v14q24 8 32 32.5t8 80.5v446q0 56 -8 80.5t-32 32.5v14h210q78 0 132.5 -13t81.5 -37t38 -50.5t11 -59.5q0 -69 -46.5 -115.5t-137.5 -60.5q77 -14 142 -54t109.5 -86t86.5 -90t93.5 -73.5t111.5 -29.5q37 0 69.5 17t52.5 42l10 -8q-30 -38 -83 -65
t-117 -27q-63 0 -118 20.5t-94.5 53t-74.5 71.5t-66 78.5t-62 72t-69.5 53t-80.5 20.5h-53v-232q0 -56 8 -80.5t32 -32.5v-14h-186zM193 375h64q81 0 119 39t38 102q0 68 -45 118t-132 50q-21 0 -44 -3v-306z" />
    <glyph glyph-name="T_O" horiz-adv-x="1009" 
d="M181 0v14q24 8 32 32.5t8 80.5v555h-24q-68 0 -106 -23t-65 -82l-12 2l6 121h709l6 -121l-12 -2q-27 59 -65 82t-106 23h-224v-555q0 -56 8 -80.5t32 -32.5v-14h-187zM425 237q0 118 80 194t187 76q66 0 124.5 -24.5t100 -83t41.5 -141.5q0 -61 -25 -113.5t-64 -85
t-85.5 -51t-91.5 -18.5q-108 0 -187.5 64t-79.5 183zM525 312q0 -63 22 -130t70 -118.5t110 -51.5q68 0 99 49t31 121q0 66 -26 138t-77.5 122.5t-112.5 44.5t-88.5 -54.5t-27.5 -120.5z" />
    <glyph glyph-name="L_I.ss01" horiz-adv-x="581" 
d="M47 0v14q24 8 32 32.5t8 80.5v446q0 56 -8 80.5t-32 32.5v14h186v-14q-24 -8 -32 -32.5t-8 -80.5v-505q0 -50 50 -50h152q78 0 121 23.5t72 86.5l13 -2l-8 -126h-546zM355 190v14q24 8 32 32.5t8 80.5v256q0 56 -8 80.5t-32 32.5v14h179v-14q-24 -8 -32 -32.5t-8 -80.5
v-256q0 -56 8 -80.5t32 -32.5v-14h-179z" />
    <glyph glyph-name="R_I.ss02" horiz-adv-x="861" 
d="M720 -10q-83 0 -147 35t-102 86.5t-67 103.5t-58.5 94t-60.5 50h-23h-69v-232q0 -56 8 -80.5t32 -32.5v-14h-186v14q24 8 32 32.5t8 80.5v446q0 56 -8 80.5t-32 32.5v14h210q78 0 132.5 -13t81.5 -37t38 -50.5t11 -59.5q0 -69 -46 -115.5t-137 -60.5q49 -16 95.5 -56.5
t82.5 -86t74.5 -89.5t89.5 -72.5t110 -28.5q37 0 74.5 19.5t57.5 44.5l10 -8q-30 -38 -88.5 -67.5t-122.5 -29.5zM193 375h64q81 0 119 39t38 102q0 68 -45 118t-132 50q-21 0 -44 -3v-306zM640 190v14q24 8 32 32.5t8 80.5v256q0 56 -8 80.5t-32 32.5v14h179v-14
q-24 -8 -32 -32.5t-8 -80.5v-256q0 -56 8 -80.5t32 -32.5v-14h-179z" />
    <glyph glyph-name="i.loclTRK" horiz-adv-x="240" 
d="M28 0v14q24 8 32 32.5t8 80.5v230q0 41 -9 55.5t-31 24.5v14l132 58l10 -8v-374q0 -56 8 -80.5t32 -32.5v-14h-182zM45 611q0 29 19.5 49t48.5 20q30 0 49 -19.5t19 -49.5q0 -29 -19.5 -48.5t-48.5 -19.5t-48.5 19.5t-19.5 48.5z" />
    <glyph glyph-name="uni006A0301" horiz-adv-x="243" 
d="M-97 -278q-63 0 -63 28q0 18 19 39.5t44 21.5q26 0 131 -21q31 24 38 55t7 105v16v391q0 41 -9 55.5t-31 24.5v14l132 58l10 -8v-458q0 -67 -40 -142t-106 -127t-132 -52zM33 586l101 107q27 28 50 28q19 0 41 -12.5t22 -23.5q0 -10 -7.5 -17t-30.5 -17l-172 -72z" />
    <glyph glyph-name="a.ss01" horiz-adv-x="511" 
d="M396 0q-40 0 -40 40v159q-20 -91 -69.5 -150t-121.5 -59q-58 0 -97 35t-39 96q0 37 15 64.5t48 47t65.5 31t87.5 27.5l111 32v3v13q0 30 -1.5 46t-8.5 38.5t-25.5 37t-49.5 24.5q-100 -76 -131 -90q-20 -9 -34 -9q-34 0 -34 38q0 49 33.5 65t106.5 16q51 0 104.5 -18
t96.5 -62t43 -105v-193q0 -56 8 -80.5t32 -32.5v-14h-100zM122 156q0 -46 27.5 -69.5t65.5 -23.5q46 0 79.5 39.5t47 89t14.5 99.5v18l-107 -31q-24 -7 -41 -13.5t-39 -20.5t-34.5 -36.5t-12.5 -51.5z" />
    <glyph glyph-name="aacute.ss01" horiz-adv-x="511" 
d="M396 0q-40 0 -40 40v159q-20 -91 -69.5 -150t-121.5 -59q-58 0 -97 35t-39 96q0 37 15 64.5t48 47t65.5 31t87.5 27.5l111 32v3v13q0 30 -1.5 46t-8.5 38.5t-25.5 37t-49.5 24.5q-100 -76 -131 -90q-20 -9 -34 -9q-34 0 -34 38q0 49 33.5 65t106.5 16q51 0 104.5 -18
t96.5 -62t43 -105v-193q0 -56 8 -80.5t32 -32.5v-14h-100zM122 156q0 -46 27.5 -69.5t65.5 -23.5q46 0 79.5 39.5t47 89t14.5 99.5v18l-107 -31q-24 -7 -41 -13.5t-39 -20.5t-34.5 -36.5t-12.5 -51.5zM191 586l101 107q27 28 50 28q19 0 41 -12.5t22 -23.5q0 -10 -7.5 -17
t-30.5 -17l-172 -72z" />
    <glyph glyph-name="abreve.ss01" horiz-adv-x="511" 
d="M396 0q-40 0 -40 40v159q-20 -91 -69.5 -150t-121.5 -59q-58 0 -97 35t-39 96q0 37 15 64.5t48 47t65.5 31t87.5 27.5l111 32v3v13q0 30 -1.5 46t-8.5 38.5t-25.5 37t-49.5 24.5q-100 -76 -131 -90q-20 -9 -34 -9q-34 0 -34 38q0 49 33.5 65t106.5 16q51 0 104.5 -18
t96.5 -62t43 -105v-193q0 -56 8 -80.5t32 -32.5v-14h-100zM122 156q0 -46 27.5 -69.5t65.5 -23.5q46 0 79.5 39.5t47 89t14.5 99.5v18l-107 -31q-24 -7 -41 -13.5t-39 -20.5t-34.5 -36.5t-12.5 -51.5zM158 686l12 5q19 -21 30 -30.5t31 -17.5t47 -8q38 0 59.5 13t48.5 43
l11 -5q-35 -67 -59 -92t-60 -25q-37 0 -61 25t-59 92z" />
    <glyph glyph-name="acircumflex.ss01" horiz-adv-x="511" 
d="M396 0q-40 0 -40 40v159q-20 -91 -69.5 -150t-121.5 -59q-58 0 -97 35t-39 96q0 37 15 64.5t48 47t65.5 31t87.5 27.5l111 32v3v13q0 30 -1.5 46t-8.5 38.5t-25.5 37t-49.5 24.5q-100 -76 -131 -90q-20 -9 -34 -9q-34 0 -34 38q0 49 33.5 65t106.5 16q51 0 104.5 -18
t96.5 -62t43 -105v-193q0 -56 8 -80.5t32 -32.5v-14h-100zM122 156q0 -46 27.5 -69.5t65.5 -23.5q46 0 79.5 39.5t47 89t14.5 99.5v18l-107 -31q-24 -7 -41 -13.5t-39 -20.5t-34.5 -36.5t-12.5 -51.5zM141 581l131 139h6l136 -137l-9 -9l-130 66l-126 -66z" />
    <glyph glyph-name="adieresis.ss01" horiz-adv-x="511" 
d="M396 0q-40 0 -40 40v159q-20 -91 -69.5 -150t-121.5 -59q-58 0 -97 35t-39 96q0 37 15 64.5t48 47t65.5 31t87.5 27.5l111 32v3v13q0 30 -1.5 46t-8.5 38.5t-25.5 37t-49.5 24.5q-100 -76 -131 -90q-20 -9 -34 -9q-34 0 -34 38q0 49 33.5 65t106.5 16q51 0 104.5 -18
t96.5 -62t43 -105v-193q0 -56 8 -80.5t32 -32.5v-14h-100zM122 156q0 -46 27.5 -69.5t65.5 -23.5q46 0 79.5 39.5t47 89t14.5 99.5v18l-107 -31q-24 -7 -41 -13.5t-39 -20.5t-34.5 -36.5t-12.5 -51.5zM139 616q0 22 15.5 37t37.5 15q24 0 39.5 -15.5t15.5 -38.5
q0 -22 -16 -37.5t-39 -15.5t-38 15.5t-15 39.5zM309 616q0 22 16 37t39 15q22 0 37.5 -16t15.5 -38t-15.5 -37.5t-37.5 -15.5q-23 0 -39 15.5t-16 39.5z" />
    <glyph glyph-name="agrave.ss01" horiz-adv-x="511" 
d="M396 0q-40 0 -40 40v159q-20 -91 -69.5 -150t-121.5 -59q-58 0 -97 35t-39 96q0 37 15 64.5t48 47t65.5 31t87.5 27.5l111 32v3v13q0 30 -1.5 46t-8.5 38.5t-25.5 37t-49.5 24.5q-100 -76 -131 -90q-20 -9 -34 -9q-34 0 -34 38q0 49 33.5 65t106.5 16q51 0 104.5 -18
t96.5 -62t43 -105v-193q0 -56 8 -80.5t32 -32.5v-14h-100zM122 156q0 -46 27.5 -69.5t65.5 -23.5q46 0 79.5 39.5t47 89t14.5 99.5v18l-107 -31q-24 -7 -41 -13.5t-39 -20.5t-34.5 -36.5t-12.5 -51.5zM151 685q0 11 22 23.5t41 12.5q23 0 50 -28l101 -107l-4 -7l-172 72
q-23 10 -30.5 17t-7.5 17z" />
    <glyph glyph-name="amacron.ss01" horiz-adv-x="511" 
d="M396 0q-40 0 -40 40v159q-20 -91 -69.5 -150t-121.5 -59q-58 0 -97 35t-39 96q0 37 15 64.5t48 47t65.5 31t87.5 27.5l111 32v3v13q0 30 -1.5 46t-8.5 38.5t-25.5 37t-49.5 24.5q-100 -76 -131 -90q-20 -9 -34 -9q-34 0 -34 38q0 49 33.5 65t106.5 16q51 0 104.5 -18
t96.5 -62t43 -105v-193q0 -56 8 -80.5t32 -32.5v-14h-100zM122 156q0 -46 27.5 -69.5t65.5 -23.5q46 0 79.5 39.5t47 89t14.5 99.5v18l-107 -31q-24 -7 -41 -13.5t-39 -20.5t-34.5 -36.5t-12.5 -51.5zM137 587l24 31q10 14 30 14h227l3 -4l-24 -31q-11 -14 -30 -14h-227z
" />
    <glyph glyph-name="aogonek.ss01" horiz-adv-x="511" 
d="M396 0q-40 0 -40 40v159q-20 -91 -69.5 -150t-121.5 -59q-58 0 -97 35t-39 96q0 37 15 64.5t48 47t65.5 31t87.5 27.5l111 32v3v13q0 30 -1.5 46t-8.5 38.5t-25.5 37t-49.5 24.5q-100 -76 -131 -90q-20 -9 -34 -9q-34 0 -34 38q0 49 33.5 65t106.5 16q51 0 104.5 -18
t96.5 -62t43 -105v-193q0 -56 8 -80.5t32 -32.5v-14h-35q-49 -48 -49 -84q0 -22 16.5 -34t41.5 -12q26 0 51 16l5 -4l-36 -63q-17 -12 -46 -12q-33 0 -56 19.5t-23 50.5q0 52 78 123h-47zM122 156q0 -46 27.5 -69.5t65.5 -23.5q46 0 79.5 39.5t47 89t14.5 99.5v18l-107 -31
q-24 -7 -41 -13.5t-39 -20.5t-34.5 -36.5t-12.5 -51.5z" />
    <glyph glyph-name="aring.ss01" horiz-adv-x="511" 
d="M396 0q-40 0 -40 40v159q-20 -91 -69.5 -150t-121.5 -59q-58 0 -97 35t-39 96q0 37 15 64.5t48 47t65.5 31t87.5 27.5l111 32v3v13q0 30 -1.5 46t-8.5 38.5t-25.5 37t-49.5 24.5q-100 -76 -131 -90q-20 -9 -34 -9q-34 0 -34 38q0 49 33.5 65t106.5 16q51 0 104.5 -18
t96.5 -62t43 -105v-193q0 -56 8 -80.5t32 -32.5v-14h-100zM122 156q0 -46 27.5 -69.5t65.5 -23.5q46 0 79.5 39.5t47 89t14.5 99.5v18l-107 -31q-24 -7 -41 -13.5t-39 -20.5t-34.5 -36.5t-12.5 -51.5zM209 615q0 30 19 50t49 20q33 0 51.5 -19t18.5 -49q0 -29 -20 -49
t-50 -20t-49 19.5t-19 47.5zM221 615q0 -25 16 -41t40 -16q25 0 41.5 17t16.5 42t-16.5 41.5t-41.5 16.5q-24 0 -40 -16.5t-16 -43.5z" />
    <glyph glyph-name="atilde.ss01" horiz-adv-x="511" 
d="M396 0q-40 0 -40 40v159q-20 -91 -69.5 -150t-121.5 -59q-58 0 -97 35t-39 96q0 37 15 64.5t48 47t65.5 31t87.5 27.5l111 32v3v13q0 30 -1.5 46t-8.5 38.5t-25.5 37t-49.5 24.5q-100 -76 -131 -90q-20 -9 -34 -9q-34 0 -34 38q0 49 33.5 65t106.5 16q51 0 104.5 -18
t96.5 -62t43 -105v-193q0 -56 8 -80.5t32 -32.5v-14h-100zM122 156q0 -46 27.5 -69.5t65.5 -23.5q46 0 79.5 39.5t47 89t14.5 99.5v18l-107 -31q-24 -7 -41 -13.5t-39 -20.5t-34.5 -36.5t-12.5 -51.5zM126 555q41 109 101 109q21 0 76.5 -20t74.5 -20t30.5 11.5t23.5 43.5
l10 -3q-38 -120 -103 -120q-33 0 -79 20.5t-73 20.5q-34 0 -51 -46z" />
    <glyph glyph-name="r.ss01" horiz-adv-x="461" 
d="M28 0v14q24 8 32 32.5t8 80.5v230q0 41 -9 55.5t-31 24.5v14l132 58l10 -8v-116q18 45 47 76q42 45 85 45q24 0 64.5 -12.5t56.5 -12.5q27 0 49 27l9 -5q-24 -35 -36 -51t-31 -29.5t-39 -13.5q-35 0 -149 40q-17 -16 -35.5 -52.5t-20.5 -70.5v-199q0 -56 8 -80.5
t32 -32.5v-14h-182z" />
    <glyph glyph-name="racute.ss01" horiz-adv-x="461" 
d="M28 0v14q24 8 32 32.5t8 80.5v230q0 41 -9 55.5t-31 24.5v14l132 58l10 -8v-116q18 45 47 76q42 45 85 45q24 0 64.5 -12.5t56.5 -12.5q27 0 49 27l9 -5q-24 -35 -36 -51t-31 -29.5t-39 -13.5q-35 0 -149 40q-17 -16 -35.5 -52.5t-20.5 -70.5v-199q0 -56 8 -80.5
t32 -32.5v-14h-182zM106 586l101 107q27 28 50 28q19 0 41 -12.5t22 -23.5q0 -10 -7.5 -17t-30.5 -17l-172 -72z" />
    <glyph glyph-name="rcaron.ss01" horiz-adv-x="461" 
d="M28 0v14q24 8 32 32.5t8 80.5v230q0 41 -9 55.5t-31 24.5v14l132 58l10 -8v-116q18 45 47 76q42 45 85 45q24 0 64.5 -12.5t56.5 -12.5q27 0 49 27l9 -5q-24 -35 -36 -51t-31 -29.5t-39 -13.5q-35 0 -149 40q-17 -16 -35.5 -52.5t-20.5 -70.5v-199q0 -56 8 -80.5
t32 -32.5v-14h-182zM56 713l8 7l126 -66l130 66l9 -9l-136 -137h-6z" />
    <glyph glyph-name="uni0157.ss01" horiz-adv-x="461" 
d="M28 0v14q24 8 32 32.5t8 80.5v230q0 41 -9 55.5t-31 24.5v14l132 58l10 -8v-116q18 45 47 76q42 45 85 45q24 0 64.5 -12.5t56.5 -12.5q27 0 49 27l9 -5q-24 -35 -36 -51t-31 -29.5t-39 -13.5q-35 0 -149 40q-17 -16 -35.5 -52.5t-20.5 -70.5v-199q0 -56 8 -80.5
t32 -32.5v-14h-182zM58 -255q65 36 70 109q-14 -4 -21 -4q-20 0 -33.5 13.5t-13.5 33.5q0 24 14 39.5t38 15.5q27 0 43.5 -17.5t16.5 -52.5q0 -47 -34.5 -90.5t-74.5 -57.5z" />
    <glyph glyph-name="f_b" horiz-adv-x="890" 
d="M578 -9q-52 0 -98 20.5t-75 53.5l-41 -65h-11v687l-108 37q-28 -14 -50 -52t-22 -94v-78h99l-6 -15h-93v-358q0 -56 8 -80.5t32 -32.5v-14h-182v14q24 8 32 32.5t8 80.5v349v9h-45l6 15h40q12 107 105 194t198 87l13 -1l58 27l9 -6v-353q92 59 166 59q102 0 165 -71.5
t63 -169.5q0 -118 -74.5 -196.5t-196.5 -78.5zM455 176q0 -58 52.5 -111t109.5 -53q134 0 134 178q0 38 -9.5 82t-29.5 89.5t-60 75.5t-92 30q-50 0 -105 -35v-256z" />
    <glyph glyph-name="f_h" horiz-adv-x="870" 
d="M313 0v14q24 8 32 32.5t8 80.5v560l-108 37q-28 -14 -50 -52t-22 -94v-78h99l-6 -15h-93v-358q0 -56 8 -80.5t32 -32.5v-14h-182v14q24 8 32 32.5t8 80.5v349v9h-45l6 15h40q12 107 105 194t198 87l13 -1l58 27l9 -6v-387q111 93 209 93q72 0 113 -40.5t41 -124.5v-215
q0 -56 8 -80.5t32 -32.5v-14h-182v14q24 8 32 32.5t8 80.5v197q0 68 -29 105.5t-84 37.5q-63 0 -147 -69l-1 1v-272q0 -56 8 -80.5t32 -32.5v-14h-182z" />
    <glyph glyph-name="f_j" horiz-adv-x="478" 
d="M35 0v14q24 8 32 32.5t8 80.5v350v8h-49l6 15h44q11 107 105 193t202 86q35 0 58.5 -8.5t23.5 -25.5q0 -31 -23 -56.5t-54 -25.5q-51 0 -146 60q-18 -10 -30 -21.5t-23.5 -43.5t-11.5 -80v-78h135l-6 -15h-129v-358q0 -56 8 -80.5t32 -32.5v-14h-182zM117 -250
q0 18 19 39.5t44 21.5q26 0 131 -21q31 24 38 55t7 105v16v391q0 41 -9 55.5t-31 24.5v14l132 58l10 -8v-458q0 -67 -40 -142t-106 -127t-132 -52q-63 0 -63 28z" />
    <glyph glyph-name="f_k" horiz-adv-x="822" 
d="M313 0v14q24 8 32 32.5t8 80.5v560l-108 37q-28 -14 -50 -52t-22 -94v-78h99l-6 -15h-93v-358q0 -56 8 -80.5t32 -32.5v-14h-182v14q24 8 32 32.5t8 80.5v349v9h-45l6 15h40q12 107 105 194t198 87l13 -1l58 27l9 -6v-574l156 155q30 30 43.5 54.5t12 37.5t-12.5 17v9
h127v-14q-67 -21 -122 -76l-64 -64l119 -215q34 -61 59.5 -89t58.5 -28v-14h-80q-79 0 -143 120l-83 158l-71 -71v-80q0 -56 8 -80.5t32 -32.5v-14h-182z" />
    <glyph glyph-name="zero.osf" horiz-adv-x="605" 
d="M298 -10q-108 0 -187.5 64t-79.5 183q0 118 80 194t187 76q66 0 124.5 -24.5t100 -83t41.5 -141.5q0 -61 -25 -113.5t-64 -85t-85.5 -51t-91.5 -18.5zM131 312q0 -63 22 -130t70 -118.5t110 -51.5q68 0 99 49t31 121q0 66 -26 138t-77.5 122.5t-112.5 44.5t-88.5 -54.5
t-27.5 -120.5z" />
    <glyph glyph-name="one.osf" horiz-adv-x="314" 
d="M62 0v14q29 8 38.5 32.5t9.5 80.5v277l-88 -37l-2 7l188 131h8v-378q0 -56 9.5 -80.5t38.5 -32.5v-14h-202z" />
    <glyph glyph-name="two.osf" horiz-adv-x="419" 
d="M10 14q10 8 29 25q62 53 92 81t69 71.5t55.5 82t16.5 79.5q0 101 -96 101q-68 0 -126 -63l-8 8q81 108 193 108q61 0 98 -34t37 -88q0 -35 -17.5 -72t-40.5 -65t-63 -62.5t-67 -54.5t-71 -50h134q73 0 98 10.5t39 44.5l11 -1l-15 -135h-368v14z" />
    <glyph glyph-name="three.osf" horiz-adv-x="451" 
d="M25 -250q140 60 209.5 138.5t69.5 164.5q0 71 -31.5 103.5t-81.5 32.5q-35 0 -64 -12l-5 11q139 67 139 169q0 42 -27 66.5t-73 24.5q-77 0 -142 -71l-9 9q50 60 101 90.5t114 30.5q60 0 96.5 -34t36.5 -81q0 -107 -154 -179q24 4 44 4q38 0 73.5 -11.5t64.5 -46
t29 -87.5q0 -49 -21.5 -93t-56 -78t-86 -65t-103 -54t-116.5 -46z" />
    <glyph glyph-name="four.osf" horiz-adv-x="511" 
d="M15 0l-5 10l367 497h19v-437h94l1 -2l-7 -53q-1 -14 -24 -14h-64v-74q0 -56 8 -80.5t32 -32.5v-14h-184v14q24 8 32 32.5t8 80.5v73h-277zM75 70h217v295z" />
    <glyph glyph-name="five.osf" horiz-adv-x="433" 
d="M10 -250q108 48 189.5 145t81.5 191q0 60 -37.5 91.5t-104.5 29.5q-51 -1 -100 -11l-10 7l54 297h154q63 0 93.5 16t44.5 49l13 -6q-12 -28 -22.5 -46t-31 -42.5t-52.5 -37t-73 -12.5h-125l-25 -149q57 17 132 17q97 0 147.5 -47t50.5 -114q0 -226 -372 -392z" />
    </font>
</defs>
</svg>
